<svg xmlns="http://www.w3.org/2000/svg" viewBox="0 0 1280 1760" width="1280" height="1760">
<defs>
  <clipPath id="badlands-b-clip-top">
    <polygon points="640,240 1194.3,560 1194.3,1200 640,1520 85.7,1200 85.7,560" />
  </clipPath>
  <linearGradient id="badlands-b-top-gradient" x1="0%" y1="0%" x2="100%" y2="100%">
    <stop offset="0%" stop-color="#eea360" />
    <stop offset="58%" stop-color="#cb7334" />
    <stop offset="100%" stop-color="#823414" />
  </linearGradient>
  <linearGradient id="badlands-b-left-face" x1="0%" y1="0%" x2="100%" y2="100%">
    <stop offset="0%" stop-color="#9e4d23" />
    <stop offset="100%" stop-color="#5a2410" />
  </linearGradient>
  <linearGradient id="badlands-b-right-face" x1="100%" y1="0%" x2="0%" y2="100%">
    <stop offset="0%" stop-color="#9e4d23" />
    <stop offset="100%" stop-color="#5a2410" />
  </linearGradient>
  <linearGradient id="badlands-b-front-face" x1="50%" y1="0%" x2="50%" y2="100%">
    <stop offset="0%" stop-color="#9e4d23" />
    <stop offset="100%" stop-color="#5a2410" />
  </linearGradient>
  <filter id="badlands-b-platform-shadow" x="-20%" y="-20%" width="140%" height="190%">
    <feDropShadow dx="0" dy="22" stdDeviation="22" flood-color="#2c1209" flood-opacity="0.42" />
  </filter>
  <filter id="badlands-b-overhang-shadow" x="-30%" y="-30%" width="160%" height="220%">
    <feDropShadow dx="0" dy="30" stdDeviation="24" flood-color="#2c1209" flood-opacity="0.5" />
  </filter>

</defs>
  <ellipse cx="640" cy="1676" rx="396" ry="70" fill="#2c1209" opacity="0.18" />
  <g filter="url(#badlands-b-platform-shadow)">
    <polygon points="85.7,1200 640,1520 640,1680 0,1360" fill="url(#badlands-b-left-face)" opacity="0.98" />
    <polygon points="640,1520 1194.3,1200 1280,1360 640,1680" fill="url(#badlands-b-right-face)" opacity="0.98" />
    <polygon points="224.3,1280 640,1520 1055.7,1280 1055.7,1440 640,1680 224.3,1440" fill="url(#badlands-b-front-face)" opacity="0.94" />
  </g>
  <g clip-path="url(#badlands-b-clip-top)">
    <polygon points="640,240 1194.3,560 1194.3,1200 640,1520 85.7,1200 85.7,560" fill="url(#badlands-b-top-gradient)" />
    <ellipse cx="116.9" cy="1232.9" rx="90.6" ry="32" fill="#54200f" opacity="0.069" transform="rotate(16.3 116.9 1232.9)" />
    <ellipse cx="925.3" cy="631.8" rx="103.4" ry="28.5" fill="#ffe4be" opacity="0.074" transform="rotate(29.8 925.3 631.8)" />
    <ellipse cx="426.2" cy="790.7" rx="115.4" ry="38" fill="#54200f" opacity="0.087" transform="rotate(-28.4 426.2 790.7)" />
    <ellipse cx="107.4" cy="913.2" rx="124.3" ry="28.6" fill="#ffe4be" opacity="0.051" transform="rotate(-23.9 107.4 913.2)" />
    <ellipse cx="652.4" cy="1114.1" rx="118.1" ry="34" fill="#54200f" opacity="0.078" transform="rotate(-18.9 652.4 1114.1)" />
    <ellipse cx="705.5" cy="1345.8" rx="85.6" ry="22.5" fill="#ffe4be" opacity="0.069" transform="rotate(3.9 705.5 1345.8)" />
    <ellipse cx="541" cy="1324.6" rx="141.3" ry="17.3" fill="#ffe4be" opacity="0.043" transform="rotate(-15.7 541 1324.6)" />
    <ellipse cx="530.7" cy="1354" rx="144.6" ry="31.1" fill="#54200f" opacity="0.113" transform="rotate(-16.7 530.7 1354)" />
    <ellipse cx="534.6" cy="1388.7" rx="139.9" ry="42.7" fill="#54200f" opacity="0.091" transform="rotate(32.2 534.6 1388.7)" />
    <ellipse cx="913.1" cy="1257.8" rx="142.5" ry="34.7" fill="#54200f" opacity="0.071" transform="rotate(-5.1 913.1 1257.8)" />
    <ellipse cx="621.4" cy="608.2" rx="110.2" ry="32.7" fill="#ffe4be" opacity="0.088" transform="rotate(-15.6 621.4 608.2)" />
    <ellipse cx="935.1" cy="796.4" rx="59.9" ry="27.9" fill="#ffe4be" opacity="0.118" transform="rotate(4 935.1 796.4)" />
    <circle cx="686.9" cy="1074.5" r="14.5" fill="#54200f" opacity="0.179" />
    <circle cx="194.6" cy="1361" r="6.7" fill="#54200f" opacity="0.086" />
    <circle cx="432.6" cy="551.5" r="11.9" fill="#54200f" opacity="0.11" />
    <circle cx="491.4" cy="920.1" r="15.6" fill="#ffe4be" opacity="0.125" />
    <circle cx="995.7" cy="1062.7" r="15.4" fill="#ffe4be" opacity="0.159" />
    <circle cx="1181.1" cy="640.9" r="8.7" fill="#ffe4be" opacity="0.113" />
    <circle cx="237.1" cy="568.6" r="7.1" fill="#ffe4be" opacity="0.168" />
    <circle cx="1100.4" cy="1058.2" r="10.9" fill="#ffe4be" opacity="0.133" />
    <circle cx="442.4" cy="1046.7" r="7.8" fill="#54200f" opacity="0.152" />
    <circle cx="650.9" cy="1322.9" r="14.9" fill="#54200f" opacity="0.087" />
    <circle cx="1125.8" cy="1151.4" r="9.2" fill="#54200f" opacity="0.123" />
    <circle cx="380.4" cy="1406.1" r="11.8" fill="#ffe4be" opacity="0.142" />
    <circle cx="941.6" cy="763.8" r="15.7" fill="#54200f" opacity="0.18" />
    <circle cx="596" cy="730.9" r="13.6" fill="#54200f" opacity="0.088" />
    <circle cx="781.5" cy="610.1" r="10.2" fill="#ffe4be" opacity="0.083" />
    <circle cx="1093.2" cy="815.3" r="13.3" fill="#54200f" opacity="0.155" />
    <path d="M 243.5 774.8 Q 345 737.8 469 774.8" fill="none" stroke="#ffe4be" stroke-opacity="0.22" stroke-width="22" stroke-linecap="round" />
    <path d="M 991.2 1076.1 Q 1062 1014.2 1148.6 1076.1" fill="none" stroke="#ffe4be" stroke-opacity="0.22" stroke-width="22" stroke-linecap="round" />
    <path d="M 340 1158 Q 411.9 1123.6 499.7 1158" fill="none" stroke="#ffe4be" stroke-opacity="0.22" stroke-width="22" stroke-linecap="round" />
    <path d="M 861.8 1240.4 Q 973 1199.6 1109 1240.4" fill="none" stroke="#ffe4be" stroke-opacity="0.22" stroke-width="22" stroke-linecap="round" />
    <path d="M 385.1 1194.2 Q 499.4 1150.7 639 1194.2" fill="none" stroke="#ffe4be" stroke-opacity="0.22" stroke-width="22" stroke-linecap="round" />
    <path d="M 161.9 817.3 Q 640 737.2 1054.2 817.3" fill="none" stroke="#ffe8c9" stroke-opacity="0.057" stroke-width="22" stroke-linecap="round" />
    <path d="M 193 1138 Q 640 1094.7 1167.4 1138" fill="none" stroke="#ffe8c9" stroke-opacity="0.08" stroke-width="22" stroke-linecap="round" />
    <path d="M 154.9 1132.5 Q 640 1088.3 1209.8 1132.5" fill="none" stroke="#ffe8c9" stroke-opacity="0.086" stroke-width="22" stroke-linecap="round" />
    <path d="M 155.7 1076.5 Q 640 996.3 1079.2 1076.5" fill="none" stroke="#ffe8c9" stroke-opacity="0.072" stroke-width="22" stroke-linecap="round" />
  </g>
  <g filter="url(#badlands-b-overhang-shadow)">
    <polygon points="143.8,626.4 170.5,434.6 189,360 207.5,477.2 230.1,626.4" fill="#823414" />
    <polygon points="170.5,434.6 189,360 197.2,503.9" fill="#ffe4be" opacity="0.78" />
    <polygon points="392.4,806.6 416.3,563.4 432.9,468.8 449.5,617.4 469.7,806.6" fill="#823414" />
    <polygon points="416.3,563.4 432.9,468.8 440.3,651.2" fill="#ffe4be" opacity="0.78" />
    <polygon points="561.9,600.6 597,405.3 621.3,329.3 645.6,448.7 675.3,600.6" fill="#823414" />
    <polygon points="597,405.3 621.3,329.3 632.1,475.8" fill="#ffe4be" opacity="0.78" />
    <polygon points="858.3,829.2 884.3,648.6 902.3,578.3 920.3,688.7 942.3,829.2" fill="#823414" />
    <polygon points="884.3,648.6 902.3,578.3 910.3,713.8" fill="#ffe4be" opacity="0.78" />
  </g>
  <polygon points="640,240 1194.3,560 1194.3,1200 640,1520 85.7,1200 85.7,560" fill="none" stroke="#54200f" stroke-opacity="0.16" stroke-width="10" />
  <path d="M96 1236 Q640 1560 1184 1236" fill="none" stroke="#ffe8c9" stroke-opacity="0.16" stroke-width="18" />
  <path d="M160 1216 Q640 1468 1120 1216" fill="none" stroke="#2c1209" stroke-opacity="0.14" stroke-width="10" />
</svg>
