<svg xmlns="http://www.w3.org/2000/svg" viewBox="0 0 1280 1760" width="1280" height="1760">
<defs>
  <clipPath id="badlands-d-clip-top">
    <polygon points="640,240 1194.3,560 1194.3,1200 640,1520 85.7,1200 85.7,560" />
  </clipPath>
  <linearGradient id="badlands-d-top-gradient" x1="0%" y1="0%" x2="100%" y2="100%">
    <stop offset="0%" stop-color="#eea360" />
    <stop offset="58%" stop-color="#cb7334" />
    <stop offset="100%" stop-color="#823414" />
  </linearGradient>
  <linearGradient id="badlands-d-left-face" x1="0%" y1="0%" x2="100%" y2="100%">
    <stop offset="0%" stop-color="#9e4d23" />
    <stop offset="100%" stop-color="#5a2410" />
  </linearGradient>
  <linearGradient id="badlands-d-right-face" x1="100%" y1="0%" x2="0%" y2="100%">
    <stop offset="0%" stop-color="#9e4d23" />
    <stop offset="100%" stop-color="#5a2410" />
  </linearGradient>
  <linearGradient id="badlands-d-front-face" x1="50%" y1="0%" x2="50%" y2="100%">
    <stop offset="0%" stop-color="#9e4d23" />
    <stop offset="100%" stop-color="#5a2410" />
  </linearGradient>
  <filter id="badlands-d-platform-shadow" x="-20%" y="-20%" width="140%" height="190%">
    <feDropShadow dx="0" dy="22" stdDeviation="22" flood-color="#2c1209" flood-opacity="0.42" />
  </filter>
  <filter id="badlands-d-overhang-shadow" x="-30%" y="-30%" width="160%" height="220%">
    <feDropShadow dx="0" dy="30" stdDeviation="24" flood-color="#2c1209" flood-opacity="0.5" />
  </filter>

</defs>
  <ellipse cx="640" cy="1676" rx="396" ry="70" fill="#2c1209" opacity="0.18" />
  <g filter="url(#badlands-d-platform-shadow)">
    <polygon points="85.7,1200 640,1520 640,1680 0,1360" fill="url(#badlands-d-left-face)" opacity="0.98" />
    <polygon points="640,1520 1194.3,1200 1280,1360 640,1680" fill="url(#badlands-d-right-face)" opacity="0.98" />
    <polygon points="224.3,1280 640,1520 1055.7,1280 1055.7,1440 640,1680 224.3,1440" fill="url(#badlands-d-front-face)" opacity="0.94" />
  </g>
  <g clip-path="url(#badlands-d-clip-top)">
    <polygon points="640,240 1194.3,560 1194.3,1200 640,1520 85.7,1200 85.7,560" fill="url(#badlands-d-top-gradient)" />
    <ellipse cx="748" cy="749.5" rx="136.1" ry="17.1" fill="#54200f" opacity="0.044" transform="rotate(-23.3 748 749.5)" />
    <ellipse cx="281.1" cy="932.4" rx="79.6" ry="38.4" fill="#54200f" opacity="0.11" transform="rotate(11.5 281.1 932.4)" />
    <ellipse cx="1143.2" cy="1057" rx="145.1" ry="43.1" fill="#54200f" opacity="0.084" transform="rotate(0.2 1143.2 1057)" />
    <ellipse cx="107" cy="444.8" rx="144.4" ry="36.8" fill="#ffe4be" opacity="0.041" transform="rotate(-16.6 107 444.8)" />
    <ellipse cx="462.4" cy="602.1" rx="132.6" ry="27.5" fill="#ffe4be" opacity="0.107" transform="rotate(30.1 462.4 602.1)" />
    <ellipse cx="638.8" cy="450.1" rx="61.8" ry="18.8" fill="#54200f" opacity="0.042" transform="rotate(-6 638.8 450.1)" />
    <ellipse cx="1019.4" cy="498.7" rx="115.1" ry="29.1" fill="#54200f" opacity="0.068" transform="rotate(5.9 1019.4 498.7)" />
    <ellipse cx="962.2" cy="946.1" rx="64.4" ry="36.4" fill="#ffe4be" opacity="0.116" transform="rotate(-30.8 962.2 946.1)" />
    <ellipse cx="1141.1" cy="676.1" rx="100.5" ry="28.6" fill="#54200f" opacity="0.079" transform="rotate(16.6 1141.1 676.1)" />
    <ellipse cx="590.3" cy="695.8" rx="65.3" ry="21.1" fill="#ffe4be" opacity="0.048" transform="rotate(30.2 590.3 695.8)" />
    <ellipse cx="436.5" cy="601.5" rx="144.9" ry="42.5" fill="#ffe4be" opacity="0.1" transform="rotate(-26.5 436.5 601.5)" />
    <ellipse cx="652.1" cy="801.6" rx="60.7" ry="26.8" fill="#54200f" opacity="0.054" transform="rotate(-16.5 652.1 801.6)" />
    <circle cx="893" cy="709.5" r="15.4" fill="#ffe4be" opacity="0.13" />
    <circle cx="1036.3" cy="1206" r="9.6" fill="#ffe4be" opacity="0.132" />
    <circle cx="1039.9" cy="603.4" r="8.1" fill="#54200f" opacity="0.141" />
    <circle cx="1074" cy="1109.9" r="6.3" fill="#ffe4be" opacity="0.156" />
    <circle cx="821.3" cy="1080.5" r="6.8" fill="#54200f" opacity="0.08" />
    <circle cx="407.6" cy="456.8" r="14.3" fill="#ffe4be" opacity="0.144" />
    <circle cx="479.5" cy="833" r="13.6" fill="#ffe4be" opacity="0.152" />
    <circle cx="1149" cy="682.2" r="9.7" fill="#ffe4be" opacity="0.173" />
    <circle cx="668.9" cy="970.7" r="14.8" fill="#54200f" opacity="0.154" />
    <circle cx="1105.6" cy="1330.9" r="15.8" fill="#54200f" opacity="0.093" />
    <circle cx="275.3" cy="1018.9" r="14.3" fill="#54200f" opacity="0.179" />
    <circle cx="372.8" cy="1215.5" r="6.7" fill="#ffe4be" opacity="0.164" />
    <circle cx="318.5" cy="575.5" r="15" fill="#ffe4be" opacity="0.175" />
    <circle cx="237.1" cy="967.2" r="8.8" fill="#ffe4be" opacity="0.081" />
    <circle cx="1084" cy="479.3" r="7.2" fill="#54200f" opacity="0.14" />
    <circle cx="559.8" cy="1101.5" r="13.1" fill="#54200f" opacity="0.161" />
    <path d="M 900.9 832.8 Q 971.9 774 1058.7 832.8" fill="none" stroke="#ffe4be" stroke-opacity="0.22" stroke-width="22" stroke-linecap="round" />
    <path d="M 485 887.9 Q 589.9 844.2 718.1 887.9" fill="none" stroke="#ffe4be" stroke-opacity="0.22" stroke-width="22" stroke-linecap="round" />
    <path d="M 235.5 1235.4 Q 332.7 1183.2 451.6 1235.4" fill="none" stroke="#ffe4be" stroke-opacity="0.22" stroke-width="22" stroke-linecap="round" />
    <path d="M 826.9 994.8 Q 891.6 933.3 970.7 994.8" fill="none" stroke="#ffe4be" stroke-opacity="0.22" stroke-width="22" stroke-linecap="round" />
    <path d="M 818.6 816.2 Q 898.1 762.5 995.2 816.2" fill="none" stroke="#ffe4be" stroke-opacity="0.22" stroke-width="22" stroke-linecap="round" />
    <path d="M 196.9 633.5 Q 640 594.6 1104.8 633.5" fill="none" stroke="#ffe8c9" stroke-opacity="0.064" stroke-width="22" stroke-linecap="round" />
    <path d="M 115.1 909.2 Q 640 860.7 1125.1 909.2" fill="none" stroke="#ffe8c9" stroke-opacity="0.095" stroke-width="22" stroke-linecap="round" />
    <path d="M 204.2 967.4 Q 640 899.4 1210.4 967.4" fill="none" stroke="#ffe8c9" stroke-opacity="0.068" stroke-width="22" stroke-linecap="round" />
    <path d="M 168.2 1003.7 Q 640 948.7 1064.3 1003.7" fill="none" stroke="#ffe8c9" stroke-opacity="0.058" stroke-width="22" stroke-linecap="round" />
  </g>
  <g filter="url(#badlands-d-overhang-shadow)">
    <polygon points="130,620 164.8,399.7 188.8,314 212.8,448.6 242.2,620" fill="#823414" />
    <polygon points="164.8,399.7 188.8,314 199.5,479.2" fill="#ffe4be" opacity="0.78" />
    <polygon points="358.4,825.1 395,665.1 420.4,602.9 445.8,700.7 476.8,825.1" fill="#823414" />
    <polygon points="395,665.1 420.4,602.9 431.7,722.9" fill="#ffe4be" opacity="0.78" />
    <polygon points="566.4,628.6 595.2,456 615.1,388.9 635,494.4 659.3,628.6" fill="#823414" />
    <polygon points="595.2,456 615.1,388.9 623.9,518.3" fill="#ffe4be" opacity="0.78" />
    <polygon points="765.3,751.4 798.6,577 821.6,509.2 844.6,615.8 872.8,751.4" fill="#823414" />
    <polygon points="798.6,577 821.6,509.2 831.8,640" fill="#ffe4be" opacity="0.78" />
  </g>
  <polygon points="640,240 1194.3,560 1194.3,1200 640,1520 85.7,1200 85.7,560" fill="none" stroke="#54200f" stroke-opacity="0.16" stroke-width="10" />
  <path d="M96 1236 Q640 1560 1184 1236" fill="none" stroke="#ffe8c9" stroke-opacity="0.16" stroke-width="18" />
  <path d="M160 1216 Q640 1468 1120 1216" fill="none" stroke="#2c1209" stroke-opacity="0.14" stroke-width="10" />
</svg>
