<svg xmlns="http://www.w3.org/2000/svg" viewBox="0 0 1280 1760" width="1280" height="1760">
<defs>
  <clipPath id="badlands-a-clip-top">
    <polygon points="640,240 1194.3,560 1194.3,1200 640,1520 85.7,1200 85.7,560" />
  </clipPath>
  <linearGradient id="badlands-a-top-gradient" x1="0%" y1="0%" x2="100%" y2="100%">
    <stop offset="0%" stop-color="#eea360" />
    <stop offset="58%" stop-color="#cb7334" />
    <stop offset="100%" stop-color="#823414" />
  </linearGradient>
  <linearGradient id="badlands-a-left-face" x1="0%" y1="0%" x2="100%" y2="100%">
    <stop offset="0%" stop-color="#9e4d23" />
    <stop offset="100%" stop-color="#5a2410" />
  </linearGradient>
  <linearGradient id="badlands-a-right-face" x1="100%" y1="0%" x2="0%" y2="100%">
    <stop offset="0%" stop-color="#9e4d23" />
    <stop offset="100%" stop-color="#5a2410" />
  </linearGradient>
  <linearGradient id="badlands-a-front-face" x1="50%" y1="0%" x2="50%" y2="100%">
    <stop offset="0%" stop-color="#9e4d23" />
    <stop offset="100%" stop-color="#5a2410" />
  </linearGradient>
  <filter id="badlands-a-platform-shadow" x="-20%" y="-20%" width="140%" height="190%">
    <feDropShadow dx="0" dy="22" stdDeviation="22" flood-color="#2c1209" flood-opacity="0.42" />
  </filter>
  <filter id="badlands-a-overhang-shadow" x="-30%" y="-30%" width="160%" height="220%">
    <feDropShadow dx="0" dy="30" stdDeviation="24" flood-color="#2c1209" flood-opacity="0.5" />
  </filter>

</defs>
  <ellipse cx="640" cy="1676" rx="396" ry="70" fill="#2c1209" opacity="0.18" />
  <g filter="url(#badlands-a-platform-shadow)">
    <polygon points="85.7,1200 640,1520 640,1680 0,1360" fill="url(#badlands-a-left-face)" opacity="0.98" />
    <polygon points="640,1520 1194.3,1200 1280,1360 640,1680" fill="url(#badlands-a-right-face)" opacity="0.98" />
    <polygon points="224.3,1280 640,1520 1055.7,1280 1055.7,1440 640,1680 224.3,1440" fill="url(#badlands-a-front-face)" opacity="0.94" />
  </g>
  <g clip-path="url(#badlands-a-clip-top)">
    <polygon points="640,240 1194.3,560 1194.3,1200 640,1520 85.7,1200 85.7,560" fill="url(#badlands-a-top-gradient)" />
    <ellipse cx="635.4" cy="500.5" rx="117.7" ry="23.3" fill="#ffe4be" opacity="0.113" transform="rotate(-26.9 635.4 500.5)" />
    <ellipse cx="348.8" cy="454.2" rx="78.3" ry="29.7" fill="#ffe4be" opacity="0.106" transform="rotate(-17.9 348.8 454.2)" />
    <ellipse cx="881.4" cy="751.6" rx="103" ry="24.8" fill="#ffe4be" opacity="0.051" transform="rotate(4.4 881.4 751.6)" />
    <ellipse cx="262.5" cy="1193.5" rx="130.5" ry="29.8" fill="#ffe4be" opacity="0.042" transform="rotate(-22.7 262.5 1193.5)" />
    <ellipse cx="932.4" cy="434.4" rx="111.2" ry="16.5" fill="#ffe4be" opacity="0.06" transform="rotate(28.3 932.4 434.4)" />
    <ellipse cx="553.5" cy="520.3" rx="109.4" ry="17.9" fill="#ffe4be" opacity="0.047" transform="rotate(-6.4 553.5 520.3)" />
    <ellipse cx="141" cy="484.5" rx="88.9" ry="18.2" fill="#54200f" opacity="0.076" transform="rotate(-9.4 141 484.5)" />
    <ellipse cx="161.2" cy="752.3" rx="130.6" ry="24.7" fill="#54200f" opacity="0.047" transform="rotate(-26.2 161.2 752.3)" />
    <ellipse cx="312.2" cy="1166.5" rx="119.9" ry="31.6" fill="#ffe4be" opacity="0.105" transform="rotate(2 312.2 1166.5)" />
    <ellipse cx="367.4" cy="1240.3" rx="126.1" ry="23.5" fill="#ffe4be" opacity="0.061" transform="rotate(9 367.4 1240.3)" />
    <ellipse cx="774.4" cy="1375.1" rx="74.7" ry="17.7" fill="#ffe4be" opacity="0.106" transform="rotate(8.6 774.4 1375.1)" />
    <ellipse cx="380.9" cy="1379.6" rx="148" ry="22.8" fill="#54200f" opacity="0.113" transform="rotate(15.5 380.9 1379.6)" />
    <circle cx="1147.5" cy="1399.8" r="10.1" fill="#54200f" opacity="0.155" />
    <circle cx="1016.6" cy="845.4" r="11.5" fill="#ffe4be" opacity="0.162" />
    <circle cx="785.4" cy="540.1" r="6.4" fill="#ffe4be" opacity="0.132" />
    <circle cx="926.9" cy="598.7" r="13.3" fill="#ffe4be" opacity="0.147" />
    <circle cx="138.1" cy="922.5" r="16" fill="#54200f" opacity="0.088" />
    <circle cx="1059.8" cy="1028.2" r="10" fill="#54200f" opacity="0.121" />
    <circle cx="1023.5" cy="1281.9" r="10.3" fill="#ffe4be" opacity="0.164" />
    <circle cx="864" cy="1331.3" r="7.7" fill="#54200f" opacity="0.096" />
    <circle cx="617.7" cy="517.3" r="6.3" fill="#54200f" opacity="0.161" />
    <circle cx="270.3" cy="466.8" r="10.5" fill="#54200f" opacity="0.145" />
    <circle cx="430.5" cy="1263.8" r="11.4" fill="#54200f" opacity="0.086" />
    <circle cx="220.3" cy="1176.3" r="13.5" fill="#54200f" opacity="0.159" />
    <circle cx="1040.3" cy="1068.8" r="14.8" fill="#ffe4be" opacity="0.115" />
    <circle cx="496.8" cy="1180.2" r="13.7" fill="#54200f" opacity="0.12" />
    <circle cx="1176.7" cy="931.4" r="9.1" fill="#54200f" opacity="0.083" />
    <circle cx="1058.4" cy="539.5" r="10.5" fill="#54200f" opacity="0.124" />
    <path d="M 208.9 1063 Q 310.8 1029.5 435.4 1063" fill="none" stroke="#ffe4be" stroke-opacity="0.22" stroke-width="22" stroke-linecap="round" />
    <path d="M 763.3 1050.3 Q 846.1 1018.1 947.4 1050.3" fill="none" stroke="#ffe4be" stroke-opacity="0.22" stroke-width="22" stroke-linecap="round" />
    <path d="M 244.2 1143.9 Q 346.4 1112.4 471.3 1143.9" fill="none" stroke="#ffe4be" stroke-opacity="0.22" stroke-width="22" stroke-linecap="round" />
    <path d="M 451.6 927.6 Q 559.1 892.7 690.4 927.6" fill="none" stroke="#ffe4be" stroke-opacity="0.22" stroke-width="22" stroke-linecap="round" />
    <path d="M 439 979.4 Q 540.4 948 664.3 979.4" fill="none" stroke="#ffe4be" stroke-opacity="0.22" stroke-width="22" stroke-linecap="round" />
    <path d="M 186.4 1037 Q 640 1002.6 1071.4 1037" fill="none" stroke="#ffe8c9" stroke-opacity="0.096" stroke-width="22" stroke-linecap="round" />
    <path d="M 142.4 747.3 Q 640 673.8 1172.1 747.3" fill="none" stroke="#ffe8c9" stroke-opacity="0.098" stroke-width="22" stroke-linecap="round" />
    <path d="M 214.9 653.4 Q 640 591.2 1109.7 653.4" fill="none" stroke="#ffe8c9" stroke-opacity="0.083" stroke-width="22" stroke-linecap="round" />
    <path d="M 147.7 638.6 Q 640 565.7 1131.5 638.6" fill="none" stroke="#ffe8c9" stroke-opacity="0.081" stroke-width="22" stroke-linecap="round" />
  </g>
  <g filter="url(#badlands-a-overhang-shadow)">
    <polygon points="138.8,687.7 171.4,528.3 194,466.3 216.6,563.7 244.2,687.7" fill="#823414" />
    <polygon points="171.4,528.3 194,466.3 204,585.9" fill="#ffe4be" opacity="0.78" />
    <polygon points="395.7,840.4 422.2,654.6 440.6,582.4 459,695.9 481.4,840.4" fill="#823414" />
    <polygon points="422.2,654.6 440.6,582.4 448.8,721.7" fill="#ffe4be" opacity="0.78" />
    <polygon points="579.2,799.5 614.3,625.3 638.6,557.6 662.9,664 692.6,799.5" fill="#823414" />
    <polygon points="614.3,625.3 638.6,557.6 649.4,688.2" fill="#ffe4be" opacity="0.78" />
    <polygon points="794.1,792.5 829.5,569.5 853.9,482.8 878.3,619.1 908.2,792.5" fill="#823414" />
    <polygon points="829.5,569.5 853.9,482.8 864.8,650" fill="#ffe4be" opacity="0.78" />
  </g>
  <polygon points="640,240 1194.3,560 1194.3,1200 640,1520 85.7,1200 85.7,560" fill="none" stroke="#54200f" stroke-opacity="0.16" stroke-width="10" />
  <path d="M96 1236 Q640 1560 1184 1236" fill="none" stroke="#ffe8c9" stroke-opacity="0.16" stroke-width="18" />
  <path d="M160 1216 Q640 1468 1120 1216" fill="none" stroke="#2c1209" stroke-opacity="0.14" stroke-width="10" />
</svg>
