<svg xmlns="http://www.w3.org/2000/svg" viewBox="0 0 1280 1760" width="1280" height="1760">
<defs>
  <clipPath id="badlands-c-clip-top">
    <polygon points="640,240 1194.3,560 1194.3,1200 640,1520 85.7,1200 85.7,560" />
  </clipPath>
  <linearGradient id="badlands-c-top-gradient" x1="0%" y1="0%" x2="100%" y2="100%">
    <stop offset="0%" stop-color="#eea360" />
    <stop offset="58%" stop-color="#cb7334" />
    <stop offset="100%" stop-color="#823414" />
  </linearGradient>
  <linearGradient id="badlands-c-left-face" x1="0%" y1="0%" x2="100%" y2="100%">
    <stop offset="0%" stop-color="#9e4d23" />
    <stop offset="100%" stop-color="#5a2410" />
  </linearGradient>
  <linearGradient id="badlands-c-right-face" x1="100%" y1="0%" x2="0%" y2="100%">
    <stop offset="0%" stop-color="#9e4d23" />
    <stop offset="100%" stop-color="#5a2410" />
  </linearGradient>
  <linearGradient id="badlands-c-front-face" x1="50%" y1="0%" x2="50%" y2="100%">
    <stop offset="0%" stop-color="#9e4d23" />
    <stop offset="100%" stop-color="#5a2410" />
  </linearGradient>
  <filter id="badlands-c-platform-shadow" x="-20%" y="-20%" width="140%" height="190%">
    <feDropShadow dx="0" dy="22" stdDeviation="22" flood-color="#2c1209" flood-opacity="0.42" />
  </filter>
  <filter id="badlands-c-overhang-shadow" x="-30%" y="-30%" width="160%" height="220%">
    <feDropShadow dx="0" dy="30" stdDeviation="24" flood-color="#2c1209" flood-opacity="0.5" />
  </filter>

</defs>
  <ellipse cx="640" cy="1676" rx="396" ry="70" fill="#2c1209" opacity="0.18" />
  <g filter="url(#badlands-c-platform-shadow)">
    <polygon points="85.7,1200 640,1520 640,1680 0,1360" fill="url(#badlands-c-left-face)" opacity="0.98" />
    <polygon points="640,1520 1194.3,1200 1280,1360 640,1680" fill="url(#badlands-c-right-face)" opacity="0.98" />
    <polygon points="224.3,1280 640,1520 1055.7,1280 1055.7,1440 640,1680 224.3,1440" fill="url(#badlands-c-front-face)" opacity="0.94" />
  </g>
  <g clip-path="url(#badlands-c-clip-top)">
    <polygon points="640,240 1194.3,560 1194.3,1200 640,1520 85.7,1200 85.7,560" fill="url(#badlands-c-top-gradient)" />
    <ellipse cx="835.7" cy="1159" rx="74.1" ry="27.5" fill="#54200f" opacity="0.101" transform="rotate(3 835.7 1159)" />
    <ellipse cx="335.7" cy="559.1" rx="111.6" ry="17.7" fill="#ffe4be" opacity="0.091" transform="rotate(-7.2 335.7 559.1)" />
    <ellipse cx="791.2" cy="435.3" rx="77.2" ry="30.7" fill="#ffe4be" opacity="0.063" transform="rotate(-21 791.2 435.3)" />
    <ellipse cx="948.1" cy="827.9" rx="81.8" ry="40.1" fill="#54200f" opacity="0.109" transform="rotate(2.3 948.1 827.9)" />
    <ellipse cx="1147.2" cy="1122.5" rx="65.6" ry="16.3" fill="#ffe4be" opacity="0.103" transform="rotate(-7.1 1147.2 1122.5)" />
    <ellipse cx="390.7" cy="1278.9" rx="101.3" ry="28" fill="#54200f" opacity="0.063" transform="rotate(-8.4 390.7 1278.9)" />
    <ellipse cx="379.3" cy="1111.5" rx="61.6" ry="34.5" fill="#ffe4be" opacity="0.044" transform="rotate(-25.1 379.3 1111.5)" />
    <ellipse cx="932.6" cy="1012.6" rx="85" ry="39.1" fill="#ffe4be" opacity="0.106" transform="rotate(-21 932.6 1012.6)" />
    <ellipse cx="635" cy="1355.2" rx="144.5" ry="39.1" fill="#54200f" opacity="0.066" transform="rotate(18.6 635 1355.2)" />
    <ellipse cx="173.2" cy="655.2" rx="56.2" ry="39.8" fill="#ffe4be" opacity="0.07" transform="rotate(11.1 173.2 655.2)" />
    <ellipse cx="1111.6" cy="918.7" rx="73.2" ry="40.7" fill="#ffe4be" opacity="0.07" transform="rotate(-4.1 1111.6 918.7)" />
    <ellipse cx="692.2" cy="874.1" rx="58.1" ry="26.2" fill="#ffe4be" opacity="0.063" transform="rotate(32.5 692.2 874.1)" />
    <circle cx="1083.8" cy="1111" r="9.7" fill="#ffe4be" opacity="0.101" />
    <circle cx="708.1" cy="1153.7" r="6.4" fill="#ffe4be" opacity="0.175" />
    <circle cx="1082.8" cy="777.9" r="12" fill="#54200f" opacity="0.144" />
    <circle cx="316.7" cy="454.8" r="14.7" fill="#ffe4be" opacity="0.111" />
    <circle cx="644.3" cy="1310.9" r="6.1" fill="#ffe4be" opacity="0.158" />
    <circle cx="1154.1" cy="1304.3" r="13.1" fill="#54200f" opacity="0.087" />
    <circle cx="288.7" cy="816" r="15.7" fill="#54200f" opacity="0.127" />
    <circle cx="387.5" cy="891.9" r="10.9" fill="#ffe4be" opacity="0.156" />
    <circle cx="161.6" cy="1234" r="8.4" fill="#54200f" opacity="0.168" />
    <circle cx="626.9" cy="451.2" r="9.1" fill="#54200f" opacity="0.113" />
    <circle cx="700.8" cy="886.2" r="14" fill="#ffe4be" opacity="0.178" />
    <circle cx="1052.1" cy="638.2" r="6.5" fill="#ffe4be" opacity="0.082" />
    <circle cx="496.7" cy="1397.6" r="6" fill="#ffe4be" opacity="0.109" />
    <circle cx="505.6" cy="1365.6" r="7.1" fill="#ffe4be" opacity="0.119" />
    <circle cx="763" cy="1103.1" r="7.7" fill="#ffe4be" opacity="0.136" />
    <circle cx="903.4" cy="759.5" r="11.1" fill="#54200f" opacity="0.148" />
    <path d="M 788.8 884.9 Q 904.3 836.5 1045.5 884.9" fill="none" stroke="#ffe4be" stroke-opacity="0.22" stroke-width="22" stroke-linecap="round" />
    <path d="M 535 925.3 Q 610.4 889.4 702.6 925.3" fill="none" stroke="#ffe4be" stroke-opacity="0.22" stroke-width="22" stroke-linecap="round" />
    <path d="M 630.1 1239.2 Q 738.5 1205.5 871 1239.2" fill="none" stroke="#ffe4be" stroke-opacity="0.22" stroke-width="22" stroke-linecap="round" />
    <path d="M 924.9 951.7 Q 1026.6 907.1 1150.8 951.7" fill="none" stroke="#ffe4be" stroke-opacity="0.22" stroke-width="22" stroke-linecap="round" />
    <path d="M 486.4 1198.9 Q 571.4 1147.3 675.2 1198.9" fill="none" stroke="#ffe4be" stroke-opacity="0.22" stroke-width="22" stroke-linecap="round" />
    <path d="M 112.8 763.2 Q 640 694.2 1084 763.2" fill="none" stroke="#ffe8c9" stroke-opacity="0.066" stroke-width="22" stroke-linecap="round" />
    <path d="M 73.3 1025 Q 640 949.1 1206.2 1025" fill="none" stroke="#ffe8c9" stroke-opacity="0.054" stroke-width="22" stroke-linecap="round" />
    <path d="M 182.7 792.2 Q 640 748.7 1181.1 792.2" fill="none" stroke="#ffe8c9" stroke-opacity="0.081" stroke-width="22" stroke-linecap="round" />
    <path d="M 66.5 1093.4 Q 640 1019.6 1150.6 1093.4" fill="none" stroke="#ffe8c9" stroke-opacity="0.1" stroke-width="22" stroke-linecap="round" />
  </g>
  <g filter="url(#badlands-c-overhang-shadow)">
    <polygon points="144.8,793.6 177.1,568.6 199.5,481.1 221.9,618.6 249.2,793.6" fill="#823414" />
    <polygon points="177.1,568.6 199.5,481.1 209.4,649.9" fill="#ffe4be" opacity="0.78" />
    <polygon points="411.7,693.8 435.5,489.3 452,409.8 468.5,534.8 488.6,693.8" fill="#823414" />
    <polygon points="435.5,489.3 452,409.8 459.3,563.2" fill="#ffe4be" opacity="0.78" />
    <polygon points="569.1,649.3 593.7,442.7 610.7,362.3 627.7,488.6 648.5,649.3" fill="#823414" />
    <polygon points="593.7,442.7 610.7,362.3 618.3,517.3" fill="#ffe4be" opacity="0.78" />
    <polygon points="772.4,777.7 801.5,597.6 821.7,527.6 841.9,637.6 866.5,777.7" fill="#823414" />
    <polygon points="801.5,597.6 821.7,527.6 830.7,662.7" fill="#ffe4be" opacity="0.78" />
  </g>
  <polygon points="640,240 1194.3,560 1194.3,1200 640,1520 85.7,1200 85.7,560" fill="none" stroke="#54200f" stroke-opacity="0.16" stroke-width="10" />
  <path d="M96 1236 Q640 1560 1184 1236" fill="none" stroke="#ffe8c9" stroke-opacity="0.16" stroke-width="18" />
  <path d="M160 1216 Q640 1468 1120 1216" fill="none" stroke="#2c1209" stroke-opacity="0.14" stroke-width="10" />
</svg>
