<svg xmlns="http://www.w3.org/2000/svg" viewBox="0 0 1280 1760" width="1280" height="1760">
<defs>
  <clipPath id="desert-d-clip-top">
    <polygon points="640,240 1194.3,560 1194.3,1200 640,1520 85.7,1200 85.7,560" />
  </clipPath>
  <linearGradient id="desert-d-top-gradient" x1="0%" y1="0%" x2="100%" y2="100%">
    <stop offset="0%" stop-color="#ffd863" />
    <stop offset="58%" stop-color="#f6ba2a" />
    <stop offset="100%" stop-color="#d88c10" />
  </linearGradient>
  <linearGradient id="desert-d-left-face" x1="0%" y1="0%" x2="100%" y2="100%">
    <stop offset="0%" stop-color="#d98b32" />
    <stop offset="100%" stop-color="#8b4e1d" />
  </linearGradient>
  <linearGradient id="desert-d-right-face" x1="100%" y1="0%" x2="0%" y2="100%">
    <stop offset="0%" stop-color="#d98b32" />
    <stop offset="100%" stop-color="#8b4e1d" />
  </linearGradient>
  <linearGradient id="desert-d-front-face" x1="50%" y1="0%" x2="50%" y2="100%">
    <stop offset="0%" stop-color="#d98b32" />
    <stop offset="100%" stop-color="#8b4e1d" />
  </linearGradient>
  <filter id="desert-d-platform-shadow" x="-20%" y="-20%" width="140%" height="190%">
    <feDropShadow dx="0" dy="22" stdDeviation="22" flood-color="#5f2f11" flood-opacity="0.42" />
  </filter>
  <filter id="desert-d-overhang-shadow" x="-30%" y="-30%" width="160%" height="220%">
    <feDropShadow dx="0" dy="30" stdDeviation="24" flood-color="#5f2f11" flood-opacity="0.5" />
  </filter>

</defs>
  <ellipse cx="640" cy="1676" rx="396" ry="70" fill="#5f2f11" opacity="0.18" />
  <g filter="url(#desert-d-platform-shadow)">
    <polygon points="85.7,1200 640,1520 640,1680 0,1360" fill="url(#desert-d-left-face)" opacity="0.98" />
    <polygon points="640,1520 1194.3,1200 1280,1360 640,1680" fill="url(#desert-d-right-face)" opacity="0.98" />
    <polygon points="224.3,1280 640,1520 1055.7,1280 1055.7,1440 640,1680 224.3,1440" fill="url(#desert-d-front-face)" opacity="0.94" />
  </g>
  <g clip-path="url(#desert-d-clip-top)">
    <polygon points="640,240 1194.3,560 1194.3,1200 640,1520 85.7,1200 85.7,560" fill="url(#desert-d-top-gradient)" />
    <ellipse cx="446.3" cy="1156.6" rx="82.2" ry="40.9" fill="#9f5e11" opacity="0.058" transform="rotate(19.6 446.3 1156.6)" />
    <ellipse cx="961.3" cy="839.1" rx="116.5" ry="27.6" fill="#9f5e11" opacity="0.116" transform="rotate(18.5 961.3 839.1)" />
    <ellipse cx="918.7" cy="569.2" rx="136.2" ry="31.7" fill="#9f5e11" opacity="0.069" transform="rotate(25.2 918.7 569.2)" />
    <ellipse cx="333" cy="993.1" rx="131.3" ry="31.6" fill="#9f5e11" opacity="0.091" transform="rotate(19.3 333 993.1)" />
    <ellipse cx="552.3" cy="1160.8" rx="148.7" ry="19.8" fill="#9f5e11" opacity="0.105" transform="rotate(-1.4 552.3 1160.8)" />
    <ellipse cx="1023.7" cy="641.8" rx="117.3" ry="33.8" fill="#ffe9a8" opacity="0.065" transform="rotate(-8.9 1023.7 641.8)" />
    <ellipse cx="558.6" cy="1210.5" rx="138.4" ry="24.9" fill="#ffe9a8" opacity="0.064" transform="rotate(-19.1 558.6 1210.5)" />
    <ellipse cx="328.2" cy="498.8" rx="82.6" ry="37.4" fill="#ffe9a8" opacity="0.047" transform="rotate(28.3 328.2 498.8)" />
    <ellipse cx="179.6" cy="1230" rx="92.3" ry="35.3" fill="#9f5e11" opacity="0.045" transform="rotate(-21.3 179.6 1230)" />
    <ellipse cx="1114.9" cy="964.1" rx="112.3" ry="29.1" fill="#ffe9a8" opacity="0.089" transform="rotate(29 1114.9 964.1)" />
    <ellipse cx="1083.8" cy="1174.3" rx="57.2" ry="18.6" fill="#ffe9a8" opacity="0.105" transform="rotate(30.3 1083.8 1174.3)" />
    <ellipse cx="1022.5" cy="853" rx="79.4" ry="21.7" fill="#9f5e11" opacity="0.07" transform="rotate(-20.5 1022.5 853)" />
    <circle cx="517.4" cy="844.2" r="12" fill="#9f5e11" opacity="0.107" />
    <circle cx="947.6" cy="562.3" r="10.8" fill="#9f5e11" opacity="0.15" />
    <circle cx="974" cy="465.5" r="12.3" fill="#9f5e11" opacity="0.15" />
    <circle cx="935.7" cy="1107.8" r="10.6" fill="#ffe9a8" opacity="0.105" />
    <circle cx="635.1" cy="856.8" r="7.8" fill="#ffe9a8" opacity="0.147" />
    <circle cx="1084.7" cy="1106.2" r="6.5" fill="#ffe9a8" opacity="0.133" />
    <circle cx="327.9" cy="988.6" r="8.2" fill="#9f5e11" opacity="0.107" />
    <circle cx="835.5" cy="998.1" r="15" fill="#ffe9a8" opacity="0.156" />
    <circle cx="498.7" cy="1380.3" r="11" fill="#ffe9a8" opacity="0.114" />
    <circle cx="319.3" cy="600.9" r="10.4" fill="#9f5e11" opacity="0.124" />
    <circle cx="346" cy="1251.6" r="10.4" fill="#ffe9a8" opacity="0.165" />
    <circle cx="943" cy="1112.7" r="11.5" fill="#9f5e11" opacity="0.137" />
    <circle cx="1093.8" cy="1309.6" r="14.5" fill="#9f5e11" opacity="0.11" />
    <circle cx="903.8" cy="531.3" r="14.2" fill="#ffe9a8" opacity="0.086" />
    <circle cx="173.4" cy="1060.7" r="8.2" fill="#9f5e11" opacity="0.084" />
    <circle cx="134.4" cy="607.9" r="9" fill="#ffe9a8" opacity="0.122" />
    <path d="M 823.8 847.4 Q 917.2 765.1 1010.5 847.4" fill="none" stroke="#ffe9a8" stroke-opacity="0.32" stroke-width="28" stroke-linecap="round" />
    <path d="M 787.7 1044.4 Q 919 983.1 1050.2 1044.4" fill="none" stroke="#ffe9a8" stroke-opacity="0.32" stroke-width="28" stroke-linecap="round" />
    <path d="M 213.8 626.7 Q 325.3 542.2 436.8 626.7" fill="none" stroke="#ffe9a8" stroke-opacity="0.32" stroke-width="28" stroke-linecap="round" />
    <path d="M 659.4 647 Q 761 591.8 862.6 647" fill="none" stroke="#ffe9a8" stroke-opacity="0.32" stroke-width="28" stroke-linecap="round" />
    <path d="M 276.7 975.4 Q 390 891.6 503.4 975.4" fill="none" stroke="#ffe9a8" stroke-opacity="0.32" stroke-width="28" stroke-linecap="round" />
    <path d="M 874.7 1224.1 Q 944.8 1163.7 1014.8 1224.1" fill="none" stroke="#ffe9a8" stroke-opacity="0.32" stroke-width="28" stroke-linecap="round" />
    <path d="M 510.3 861.2 Q 601.1 819.4 691.8 861.2" fill="none" stroke="#ffe9a8" stroke-opacity="0.32" stroke-width="28" stroke-linecap="round" />
    <path d="M 91.7 721 Q 640 638.5 1052.1 721" fill="none" stroke="#fff0c7" stroke-opacity="0.066" stroke-width="22" stroke-linecap="round" />
    <path d="M 124.8 1102.6 Q 640 1066.7 1178.1 1102.6" fill="none" stroke="#fff0c7" stroke-opacity="0.083" stroke-width="22" stroke-linecap="round" />
    <path d="M 210.5 1009.3 Q 640 942 1202.7 1009.3" fill="none" stroke="#fff0c7" stroke-opacity="0.073" stroke-width="22" stroke-linecap="round" />
    <path d="M 148 645.4 Q 640 604 1186.9 645.4" fill="none" stroke="#fff0c7" stroke-opacity="0.051" stroke-width="22" stroke-linecap="round" />
  </g>
  <g filter="url(#desert-d-overhang-shadow)">
    <polygon points="227.8,730.9 302,505.7 415.7,523.7 475,730.9" fill="#d88c10" />
    <polygon points="227.8,730.9 306.9,505.7 351.4,690.4" fill="#f6ba2a" opacity="0.84" />
    <path d="M 282.2 528.2 L 400.8 528.2" fill="none" stroke="#ffe9a8" stroke-opacity="0.4" stroke-width="12" stroke-linecap="round" />
    <path d="M 340.3 816.1 L 340.3 680.1" fill="none" stroke="#9f5e11" stroke-width="18" stroke-linecap="round" />
    <path d="M 340.3 739.9 L 302.3 712.7" fill="none" stroke="#9f5e11" stroke-width="14" stroke-linecap="round" />
    <path d="M 340.3 759 L 374.3 734.5" fill="none" stroke="#9f5e11" stroke-width="14" stroke-linecap="round" />
    <path d="M 340.3 816.1 L 340.3 680.1" fill="none" stroke="#f6ba2a" stroke-width="12" stroke-linecap="round" opacity="0.94" />
    <path d="M 340.3 739.9 L 302.3 712.7" fill="none" stroke="#f6ba2a" stroke-width="9" stroke-linecap="round" opacity="0.92" />
    <path d="M 340.3 759 L 374.3 734.5" fill="none" stroke="#f6ba2a" stroke-width="9" stroke-linecap="round" opacity="0.92" />
    <circle cx="340.3" cy="680.1" r="8" fill="#ffe9a8" opacity="0.7" />
    <polygon points="582.1,828.5 663.8,582.9 789.2,602.5 854.6,828.5" fill="#d88c10" />
    <polygon points="582.1,828.5 669.3,582.9 718.3,784.3" fill="#f6ba2a" opacity="0.84" />
    <path d="M 642 607.5 L 772.8 607.5" fill="none" stroke="#ffe9a8" stroke-opacity="0.4" stroke-width="12" stroke-linecap="round" />
    <path d="M 760.6 932.7 L 760.6 790.8" fill="none" stroke="#9f5e11" stroke-width="18" stroke-linecap="round" />
    <path d="M 760.6 853.2 L 722.6 824.9" fill="none" stroke="#9f5e11" stroke-width="14" stroke-linecap="round" />
    <path d="M 760.6 873.1 L 794.6 847.6" fill="none" stroke="#9f5e11" stroke-width="14" stroke-linecap="round" />
    <path d="M 760.6 932.7 L 760.6 790.8" fill="none" stroke="#f6ba2a" stroke-width="12" stroke-linecap="round" opacity="0.94" />
    <path d="M 760.6 853.2 L 722.6 824.9" fill="none" stroke="#f6ba2a" stroke-width="9" stroke-linecap="round" opacity="0.92" />
    <path d="M 760.6 873.1 L 794.6 847.6" fill="none" stroke="#f6ba2a" stroke-width="9" stroke-linecap="round" opacity="0.92" />
    <circle cx="760.6" cy="790.8" r="8" fill="#ffe9a8" opacity="0.7" />
  </g>
  <polygon points="640,240 1194.3,560 1194.3,1200 640,1520 85.7,1200 85.7,560" fill="none" stroke="#9f5e11" stroke-opacity="0.16" stroke-width="10" />
  <path d="M96 1236 Q640 1560 1184 1236" fill="none" stroke="#fff0c7" stroke-opacity="0.16" stroke-width="18" />
  <path d="M160 1216 Q640 1468 1120 1216" fill="none" stroke="#5f2f11" stroke-opacity="0.14" stroke-width="10" />
</svg>
