<svg xmlns="http://www.w3.org/2000/svg" viewBox="0 0 1280 1760" width="1280" height="1760">
<defs>
  <clipPath id="forest-a-clip-top">
    <polygon points="640,240 1194.3,560 1194.3,1200 640,1520 85.7,1200 85.7,560" />
  </clipPath>
  <linearGradient id="forest-a-top-gradient" x1="0%" y1="0%" x2="100%" y2="100%">
    <stop offset="0%" stop-color="#9ae565" />
    <stop offset="58%" stop-color="#73be45" />
    <stop offset="100%" stop-color="#2b6e26" />
  </linearGradient>
  <linearGradient id="forest-a-left-face" x1="0%" y1="0%" x2="100%" y2="100%">
    <stop offset="0%" stop-color="#99642e" />
    <stop offset="100%" stop-color="#603715" />
  </linearGradient>
  <linearGradient id="forest-a-right-face" x1="100%" y1="0%" x2="0%" y2="100%">
    <stop offset="0%" stop-color="#99642e" />
    <stop offset="100%" stop-color="#603715" />
  </linearGradient>
  <linearGradient id="forest-a-front-face" x1="50%" y1="0%" x2="50%" y2="100%">
    <stop offset="0%" stop-color="#99642e" />
    <stop offset="100%" stop-color="#603715" />
  </linearGradient>
  <filter id="forest-a-platform-shadow" x="-20%" y="-20%" width="140%" height="190%">
    <feDropShadow dx="0" dy="22" stdDeviation="22" flood-color="#10230f" flood-opacity="0.42" />
  </filter>
  <filter id="forest-a-overhang-shadow" x="-30%" y="-30%" width="160%" height="220%">
    <feDropShadow dx="0" dy="30" stdDeviation="24" flood-color="#10230f" flood-opacity="0.5" />
  </filter>

</defs>
  <ellipse cx="640" cy="1676" rx="396" ry="70" fill="#10230f" opacity="0.18" />
  <g filter="url(#forest-a-platform-shadow)">
    <polygon points="85.7,1200 640,1520 640,1680 0,1360" fill="url(#forest-a-left-face)" opacity="0.98" />
    <polygon points="640,1520 1194.3,1200 1280,1360 640,1680" fill="url(#forest-a-right-face)" opacity="0.98" />
    <polygon points="224.3,1280 640,1520 1055.7,1280 1055.7,1440 640,1680 224.3,1440" fill="url(#forest-a-front-face)" opacity="0.94" />
  </g>
  <g clip-path="url(#forest-a-clip-top)">
    <polygon points="640,240 1194.3,560 1194.3,1200 640,1520 85.7,1200 85.7,560" fill="url(#forest-a-top-gradient)" />
    <ellipse cx="747" cy="1200" rx="62.5" ry="38" fill="#19461c" opacity="0.074" transform="rotate(-33.7 747 1200)" />
    <ellipse cx="811.9" cy="771.1" rx="81.6" ry="17.1" fill="#19461c" opacity="0.114" transform="rotate(-33 811.9 771.1)" />
    <ellipse cx="280.8" cy="1156.7" rx="92.4" ry="38.3" fill="#19461c" opacity="0.108" transform="rotate(34 280.8 1156.7)" />
    <ellipse cx="268.7" cy="802.9" rx="127.9" ry="37" fill="#19461c" opacity="0.055" transform="rotate(23.9 268.7 802.9)" />
    <ellipse cx="894.2" cy="672.1" rx="127.2" ry="41.3" fill="#d9f5ac" opacity="0.071" transform="rotate(33.3 894.2 672.1)" />
    <ellipse cx="1130.5" cy="1384.1" rx="137.7" ry="31.2" fill="#d9f5ac" opacity="0.076" transform="rotate(15.6 1130.5 1384.1)" />
    <ellipse cx="228.8" cy="714.6" rx="142.1" ry="30.4" fill="#d9f5ac" opacity="0.061" transform="rotate(-3.3 228.8 714.6)" />
    <ellipse cx="1076.4" cy="1103.5" rx="87.3" ry="20.1" fill="#19461c" opacity="0.061" transform="rotate(15.2 1076.4 1103.5)" />
    <ellipse cx="199.1" cy="650.8" rx="66.5" ry="17.6" fill="#d9f5ac" opacity="0.109" transform="rotate(-27 199.1 650.8)" />
    <ellipse cx="171.9" cy="871.7" rx="142" ry="38.4" fill="#d9f5ac" opacity="0.045" transform="rotate(17.4 171.9 871.7)" />
    <ellipse cx="253" cy="703.7" rx="115.5" ry="23.8" fill="#19461c" opacity="0.115" transform="rotate(18.8 253 703.7)" />
    <ellipse cx="457.1" cy="483" rx="135.5" ry="26.8" fill="#19461c" opacity="0.04" transform="rotate(-20.4 457.1 483)" />
    <circle cx="123.6" cy="1163.3" r="7.5" fill="#d9f5ac" opacity="0.097" />
    <circle cx="234.4" cy="768" r="12.9" fill="#19461c" opacity="0.097" />
    <circle cx="139.8" cy="626.2" r="14.3" fill="#19461c" opacity="0.155" />
    <circle cx="793.3" cy="1034.4" r="7.1" fill="#19461c" opacity="0.13" />
    <circle cx="163" cy="1171.3" r="9.4" fill="#19461c" opacity="0.116" />
    <circle cx="429" cy="1336.4" r="16" fill="#d9f5ac" opacity="0.083" />
    <circle cx="997.8" cy="1366.4" r="15.7" fill="#19461c" opacity="0.153" />
    <circle cx="1031.5" cy="1179.5" r="8.4" fill="#19461c" opacity="0.135" />
    <circle cx="333.5" cy="1345.9" r="13.5" fill="#19461c" opacity="0.103" />
    <circle cx="1102.3" cy="1052.8" r="6.6" fill="#19461c" opacity="0.155" />
    <circle cx="382.2" cy="943.8" r="8.5" fill="#19461c" opacity="0.153" />
    <circle cx="689.7" cy="702.2" r="14.5" fill="#19461c" opacity="0.157" />
    <circle cx="206.5" cy="1008.1" r="8.7" fill="#19461c" opacity="0.151" />
    <circle cx="380.1" cy="1393.7" r="11.6" fill="#19461c" opacity="0.134" />
    <circle cx="572.7" cy="678.5" r="15.5" fill="#d9f5ac" opacity="0.131" />
    <circle cx="509.2" cy="696.3" r="12.6" fill="#19461c" opacity="0.118" />
    <ellipse cx="138.9" cy="892.5" rx="84.3" ry="19.8" fill="#19461c" opacity="0.2" />
    <ellipse cx="608.3" cy="832.4" rx="68.3" ry="28.6" fill="#19461c" opacity="0.2" />
    <ellipse cx="917.4" cy="1253" rx="47.7" ry="27.8" fill="#19461c" opacity="0.2" />
    <ellipse cx="582" cy="1174.6" rx="71.9" ry="21.6" fill="#19461c" opacity="0.2" />
    <ellipse cx="395.4" cy="861.9" rx="77.4" ry="19.9" fill="#19461c" opacity="0.2" />
    <ellipse cx="1120.9" cy="919" rx="44.6" ry="25.4" fill="#19461c" opacity="0.2" />
    <ellipse cx="262.2" cy="1059.6" rx="81.1" ry="18.6" fill="#19461c" opacity="0.2" />
    <ellipse cx="292.2" cy="1226.1" rx="71.3" ry="21.4" fill="#19461c" opacity="0.2" />
    <path d="M 142.6 953.4 Q 640 912.5 1123.6 953.4" fill="none" stroke="#e9f9bf" stroke-opacity="0.055" stroke-width="22" stroke-linecap="round" />
    <path d="M 199.3 980.1 Q 640 920.3 1139.5 980.1" fill="none" stroke="#e9f9bf" stroke-opacity="0.082" stroke-width="22" stroke-linecap="round" />
    <path d="M 151.6 600.3 Q 640 554 1161.2 600.3" fill="none" stroke="#e9f9bf" stroke-opacity="0.09" stroke-width="22" stroke-linecap="round" />
    <path d="M 69.1 688.4 Q 640 621.4 1127.4 688.4" fill="none" stroke="#e9f9bf" stroke-opacity="0.065" stroke-width="22" stroke-linecap="round" />
  </g>
  <g filter="url(#forest-a-overhang-shadow)">
    <path d="M 250.6 682.0510788483546 L 250.6 615" fill="none" stroke="#19461c" stroke-width="18" stroke-linecap="round" opacity="0.74" />
    <polygon points="221.3,554.1 250.6,377.5 279.9,554.1" fill="#2b6e26" />
    <polygon points="205.2,608.9 250.6,474.9 296,608.9" fill="#73be45" />
    <polygon points="189.2,682.1 250.6,554.1 312,682.1" fill="#9ae565" opacity="0.92" />
    <path d="M 326.4 715.9900724485517 L 326.4 660.6" fill="none" stroke="#19461c" stroke-width="18" stroke-linecap="round" opacity="0.74" />
    <polygon points="293.4,610.3 326.4,464.3 359.4,610.3" fill="#2b6e26" />
    <polygon points="275.4,655.6 326.4,544.8 377.4,655.6" fill="#73be45" />
    <polygon points="257.4,716 326.4,610.3 395.4,716" fill="#9ae565" opacity="0.92" />
    <path d="M 383.8 737.2808964045719 L 383.8 670.8" fill="none" stroke="#19461c" stroke-width="18" stroke-linecap="round" opacity="0.74" />
    <polygon points="359.3,610.4 383.8,435.1 408.3,610.4" fill="#2b6e26" />
    <polygon points="346,664.8 383.8,531.8 421.6,664.8" fill="#73be45" />
    <polygon points="332.6,737.3 383.8,610.4 435,737.3" fill="#9ae565" opacity="0.92" />
    <path d="M 569 765.989234640263 L 569 704.1" fill="none" stroke="#19461c" stroke-width="18" stroke-linecap="round" opacity="0.74" />
    <polygon points="532,647.8 569,484.6 606,647.8" fill="#2b6e26" />
    <polygon points="511.8,698.5 569,574.6 626.2,698.5" fill="#73be45" />
    <polygon points="491.6,766 569,647.8 646.4,766" fill="#9ae565" opacity="0.92" />
    <path d="M 584.5 796.9810514664277 L 584.5 748.2" fill="none" stroke="#19461c" stroke-width="18" stroke-linecap="round" opacity="0.74" />
    <polygon points="556.2,703.8 584.5,575.2 612.8,703.8" fill="#2b6e26" />
    <polygon points="540.8,743.7 584.5,646.2 628.2,743.7" fill="#73be45" />
    <polygon points="525.3,797 584.5,703.8 643.7,797" fill="#9ae565" opacity="0.92" />
    <path d="M 636.5 825.7009459026158 L 636.5 777.1" fill="none" stroke="#19461c" stroke-width="18" stroke-linecap="round" opacity="0.74" />
    <polygon points="610.3,733 636.5,604.9 662.7,733" fill="#2b6e26" />
    <polygon points="596,772.7 636.5,675.6 677,772.7" fill="#73be45" />
    <polygon points="581.7,825.7 636.5,733 691.3,825.7" fill="#9ae565" opacity="0.92" />
    <path d="M 857.7 612.2861886447296 L 857.7 540.3" fill="none" stroke="#19461c" stroke-width="18" stroke-linecap="round" opacity="0.74" />
    <polygon points="829.6,474.9 857.7,285.2 885.8,474.9" fill="#2b6e26" />
    <polygon points="814.2,533.8 857.7,389.9 901.2,533.8" fill="#73be45" />
    <polygon points="798.9,612.3 857.7,474.9 916.5,612.3" fill="#9ae565" opacity="0.92" />
    <path d="M 892.4 669.1917820576579 L 892.4 607.7" fill="none" stroke="#19461c" stroke-width="18" stroke-linecap="round" opacity="0.74" />
    <polygon points="864.7,551.9 892.4,389.9 920.1,551.9" fill="#2b6e26" />
    <polygon points="849.6,602.2 892.4,479.3 935.2,602.2" fill="#73be45" />
    <polygon points="834.4,669.2 892.4,551.9 950.4,669.2" fill="#9ae565" opacity="0.92" />
    <path d="M 971.5 681.8751820795238 L 971.5 623.1" fill="none" stroke="#19461c" stroke-width="18" stroke-linecap="round" opacity="0.74" />
    <polygon points="935.2,569.7 971.5,414.8 1007.8,569.7" fill="#2b6e26" />
    <polygon points="915.4,617.8 971.5,500.2 1027.6,617.8" fill="#73be45" />
    <polygon points="895.6,681.9 971.5,569.7 1047.4,681.9" fill="#9ae565" opacity="0.92" />
  </g>
  <polygon points="640,240 1194.3,560 1194.3,1200 640,1520 85.7,1200 85.7,560" fill="none" stroke="#19461c" stroke-opacity="0.16" stroke-width="10" />
  <path d="M96 1236 Q640 1560 1184 1236" fill="none" stroke="#e9f9bf" stroke-opacity="0.16" stroke-width="18" />
  <path d="M160 1216 Q640 1468 1120 1216" fill="none" stroke="#10230f" stroke-opacity="0.14" stroke-width="10" />
</svg>
