<svg xmlns="http://www.w3.org/2000/svg" viewBox="0 0 1280 1760" width="1280" height="1760">
<defs>
  <clipPath id="forest-c-clip-top">
    <polygon points="640,240 1194.3,560 1194.3,1200 640,1520 85.7,1200 85.7,560" />
  </clipPath>
  <linearGradient id="forest-c-top-gradient" x1="0%" y1="0%" x2="100%" y2="100%">
    <stop offset="0%" stop-color="#9ae565" />
    <stop offset="58%" stop-color="#73be45" />
    <stop offset="100%" stop-color="#2b6e26" />
  </linearGradient>
  <linearGradient id="forest-c-left-face" x1="0%" y1="0%" x2="100%" y2="100%">
    <stop offset="0%" stop-color="#99642e" />
    <stop offset="100%" stop-color="#603715" />
  </linearGradient>
  <linearGradient id="forest-c-right-face" x1="100%" y1="0%" x2="0%" y2="100%">
    <stop offset="0%" stop-color="#99642e" />
    <stop offset="100%" stop-color="#603715" />
  </linearGradient>
  <linearGradient id="forest-c-front-face" x1="50%" y1="0%" x2="50%" y2="100%">
    <stop offset="0%" stop-color="#99642e" />
    <stop offset="100%" stop-color="#603715" />
  </linearGradient>
  <filter id="forest-c-platform-shadow" x="-20%" y="-20%" width="140%" height="190%">
    <feDropShadow dx="0" dy="22" stdDeviation="22" flood-color="#10230f" flood-opacity="0.42" />
  </filter>
  <filter id="forest-c-overhang-shadow" x="-30%" y="-30%" width="160%" height="220%">
    <feDropShadow dx="0" dy="30" stdDeviation="24" flood-color="#10230f" flood-opacity="0.5" />
  </filter>

</defs>
  <ellipse cx="640" cy="1676" rx="396" ry="70" fill="#10230f" opacity="0.18" />
  <g filter="url(#forest-c-platform-shadow)">
    <polygon points="85.7,1200 640,1520 640,1680 0,1360" fill="url(#forest-c-left-face)" opacity="0.98" />
    <polygon points="640,1520 1194.3,1200 1280,1360 640,1680" fill="url(#forest-c-right-face)" opacity="0.98" />
    <polygon points="224.3,1280 640,1520 1055.7,1280 1055.7,1440 640,1680 224.3,1440" fill="url(#forest-c-front-face)" opacity="0.94" />
  </g>
  <g clip-path="url(#forest-c-clip-top)">
    <polygon points="640,240 1194.3,560 1194.3,1200 640,1520 85.7,1200 85.7,560" fill="url(#forest-c-top-gradient)" />
    <ellipse cx="390.5" cy="691.8" rx="130.5" ry="35.9" fill="#19461c" opacity="0.078" transform="rotate(16.7 390.5 691.8)" />
    <ellipse cx="290.7" cy="937.2" rx="92.5" ry="17.5" fill="#d9f5ac" opacity="0.086" transform="rotate(20.5 290.7 937.2)" />
    <ellipse cx="835.9" cy="857.9" rx="99.9" ry="31.9" fill="#d9f5ac" opacity="0.114" transform="rotate(5.1 835.9 857.9)" />
    <ellipse cx="835.8" cy="1276.6" rx="68.1" ry="36.1" fill="#19461c" opacity="0.083" transform="rotate(6.5 835.8 1276.6)" />
    <ellipse cx="539.5" cy="1331.6" rx="119.5" ry="31.9" fill="#19461c" opacity="0.102" transform="rotate(-1.1 539.5 1331.6)" />
    <ellipse cx="746.3" cy="803.3" rx="138.5" ry="32.7" fill="#d9f5ac" opacity="0.091" transform="rotate(-11.3 746.3 803.3)" />
    <ellipse cx="742.5" cy="1045" rx="144.5" ry="27.1" fill="#19461c" opacity="0.109" transform="rotate(28.4 742.5 1045)" />
    <ellipse cx="279.4" cy="449" rx="83.9" ry="42.8" fill="#d9f5ac" opacity="0.108" transform="rotate(-29.2 279.4 449)" />
    <ellipse cx="625.9" cy="762" rx="100.9" ry="20.7" fill="#d9f5ac" opacity="0.071" transform="rotate(-22.3 625.9 762)" />
    <ellipse cx="274.9" cy="1286.6" rx="69.1" ry="40.4" fill="#19461c" opacity="0.1" transform="rotate(23.8 274.9 1286.6)" />
    <ellipse cx="1046.8" cy="757.8" rx="78.3" ry="43.2" fill="#19461c" opacity="0.074" transform="rotate(22.4 1046.8 757.8)" />
    <ellipse cx="614.7" cy="870.9" rx="96.9" ry="38.2" fill="#d9f5ac" opacity="0.095" transform="rotate(21.9 614.7 870.9)" />
    <circle cx="885.8" cy="928.2" r="8.6" fill="#19461c" opacity="0.133" />
    <circle cx="405.6" cy="693.9" r="12.8" fill="#19461c" opacity="0.129" />
    <circle cx="789.2" cy="1014.3" r="6.1" fill="#d9f5ac" opacity="0.109" />
    <circle cx="102.5" cy="856.1" r="11.7" fill="#d9f5ac" opacity="0.098" />
    <circle cx="662.8" cy="804.5" r="15.2" fill="#d9f5ac" opacity="0.111" />
    <circle cx="337.6" cy="1036.3" r="6.8" fill="#19461c" opacity="0.177" />
    <circle cx="216" cy="1316.4" r="10" fill="#d9f5ac" opacity="0.125" />
    <circle cx="1153.2" cy="971.5" r="6.3" fill="#d9f5ac" opacity="0.102" />
    <circle cx="263.3" cy="1306.7" r="14.7" fill="#19461c" opacity="0.105" />
    <circle cx="682.9" cy="1052" r="14.8" fill="#19461c" opacity="0.127" />
    <circle cx="200.2" cy="862.9" r="12.6" fill="#19461c" opacity="0.158" />
    <circle cx="266.3" cy="601.2" r="6.6" fill="#d9f5ac" opacity="0.11" />
    <circle cx="152.8" cy="1040.9" r="8.6" fill="#d9f5ac" opacity="0.168" />
    <circle cx="338.2" cy="946" r="9.1" fill="#19461c" opacity="0.106" />
    <circle cx="766.4" cy="875.4" r="9.6" fill="#d9f5ac" opacity="0.096" />
    <circle cx="1081.2" cy="495.5" r="11.9" fill="#19461c" opacity="0.115" />
    <ellipse cx="477.6" cy="755" rx="47.1" ry="17.6" fill="#19461c" opacity="0.2" />
    <ellipse cx="758.6" cy="992.7" rx="54.1" ry="31.7" fill="#19461c" opacity="0.2" />
    <ellipse cx="959.7" cy="1208.1" rx="65.5" ry="24.6" fill="#19461c" opacity="0.2" />
    <ellipse cx="228.6" cy="1071.4" rx="54.3" ry="23.4" fill="#19461c" opacity="0.2" />
    <ellipse cx="433.9" cy="1131.4" rx="85.2" ry="31.8" fill="#19461c" opacity="0.2" />
    <ellipse cx="337.2" cy="859.3" rx="78.2" ry="17" fill="#19461c" opacity="0.2" />
    <ellipse cx="205.1" cy="778.3" rx="61.7" ry="28.2" fill="#19461c" opacity="0.2" />
    <ellipse cx="985.2" cy="1102" rx="85.9" ry="21.9" fill="#19461c" opacity="0.2" />
    <path d="M 114.7 608.5 Q 640 545.8 1193.9 608.5" fill="none" stroke="#e9f9bf" stroke-opacity="0.062" stroke-width="22" stroke-linecap="round" />
    <path d="M 124.9 1020.7 Q 640 943.7 1213.5 1020.7" fill="none" stroke="#e9f9bf" stroke-opacity="0.085" stroke-width="22" stroke-linecap="round" />
    <path d="M 150.1 931.2 Q 640 863.3 1135.2 931.2" fill="none" stroke="#e9f9bf" stroke-opacity="0.055" stroke-width="22" stroke-linecap="round" />
    <path d="M 199.9 891.6 Q 640 828.9 1083.9 891.6" fill="none" stroke="#e9f9bf" stroke-opacity="0.084" stroke-width="22" stroke-linecap="round" />
  </g>
  <g filter="url(#forest-c-overhang-shadow)">
    <path d="M 211.1 654.0066520074382 L 211.1 586.2" fill="none" stroke="#19461c" stroke-width="18" stroke-linecap="round" opacity="0.74" />
    <polygon points="177.2,524.5 211.1,345.7 245,524.5" fill="#2b6e26" />
    <polygon points="158.6,580 211.1,444.4 263.6,580" fill="#73be45" />
    <polygon points="140.1,654 211.1,524.5 282.1,654" fill="#9ae565" opacity="0.92" />
    <path d="M 292.9 704.0969593381509 L 292.9 651.2" fill="none" stroke="#19461c" stroke-width="18" stroke-linecap="round" opacity="0.74" />
    <polygon points="260.3,603 292.9,463.5 325.5,603" fill="#2b6e26" />
    <polygon points="242.6,646.4 292.9,540.5 343.2,646.4" fill="#73be45" />
    <polygon points="224.8,704.1 292.9,603 361,704.1" fill="#9ae565" opacity="0.92" />
    <path d="M 334.1 721.2384564071893 L 334.1 657.5" fill="none" stroke="#19461c" stroke-width="18" stroke-linecap="round" opacity="0.74" />
    <polygon points="309.6,599.6 334.1,431.6 358.6,599.6" fill="#2b6e26" />
    <polygon points="296.3,651.7 334.1,524.3 371.9,651.7" fill="#73be45" />
    <polygon points="282.9,721.2 334.1,599.6 385.3,721.2" fill="#9ae565" opacity="0.92" />
    <path d="M 527.3 580.8098116952926 L 527.3 510" fill="none" stroke="#19461c" stroke-width="18" stroke-linecap="round" opacity="0.74" />
    <polygon points="500.6,445.7 527.3,259.1 554,445.7" fill="#2b6e26" />
    <polygon points="486.1,503.6 527.3,362.1 568.5,503.6" fill="#73be45" />
    <polygon points="471.5,580.8 527.3,445.7 583.1,580.8" fill="#9ae565" opacity="0.92" />
    <path d="M 566 595.19869432766 L 566 533.6" fill="none" stroke="#19461c" stroke-width="18" stroke-linecap="round" opacity="0.74" />
    <polygon points="539.6,477.6 566,315.3 592.4,477.6" fill="#2b6e26" />
    <polygon points="525.2,528 566,404.9 606.8,528" fill="#73be45" />
    <polygon points="510.8,595.2 566,477.6 621.2,595.2" fill="#9ae565" opacity="0.92" />
    <path d="M 649.1 648.0430064097047 L 649.1 576.3" fill="none" stroke="#19461c" stroke-width="18" stroke-linecap="round" opacity="0.74" />
    <polygon points="622.9,511 649.1,321.8 675.3,511" fill="#2b6e26" />
    <polygon points="608.7,569.8 649.1,426.2 689.5,569.8" fill="#73be45" />
    <polygon points="594.4,648 649.1,511 703.8,648" fill="#9ae565" opacity="0.92" />
    <path d="M 858.9 738.4236873039976 L 858.9 685.4" fill="none" stroke="#19461c" stroke-width="18" stroke-linecap="round" opacity="0.74" />
    <polygon points="828.9,637.2 858.9,497.3 888.9,637.2" fill="#2b6e26" />
    <polygon points="812.6,680.6 858.9,574.5 905.2,680.6" fill="#73be45" />
    <polygon points="796.2,738.4 858.9,637.2 921.6,738.4" fill="#9ae565" opacity="0.92" />
    <path d="M 917.4 767.3500183677301 L 917.4 699.9" fill="none" stroke="#19461c" stroke-width="18" stroke-linecap="round" opacity="0.74" />
    <polygon points="885.6,638.7 917.4,461 949.2,638.7" fill="#2b6e26" />
    <polygon points="868.3,693.8 917.4,559 966.5,693.8" fill="#73be45" />
    <polygon points="851,767.4 917.4,638.7 983.8,767.4" fill="#9ae565" opacity="0.92" />
    <path d="M 963.6 816.5769700497389 L 963.6 754.3" fill="none" stroke="#19461c" stroke-width="18" stroke-linecap="round" opacity="0.74" />
    <polygon points="927,697.7 963.6,533.6 1000.2,697.7" fill="#2b6e26" />
    <polygon points="907.1,748.7 963.6,624.1 1020.1,748.7" fill="#73be45" />
    <polygon points="887.1,816.6 963.6,697.7 1040.1,816.6" fill="#9ae565" opacity="0.92" />
  </g>
  <polygon points="640,240 1194.3,560 1194.3,1200 640,1520 85.7,1200 85.7,560" fill="none" stroke="#19461c" stroke-opacity="0.16" stroke-width="10" />
  <path d="M96 1236 Q640 1560 1184 1236" fill="none" stroke="#e9f9bf" stroke-opacity="0.16" stroke-width="18" />
  <path d="M160 1216 Q640 1468 1120 1216" fill="none" stroke="#10230f" stroke-opacity="0.14" stroke-width="10" />
</svg>
