<svg xmlns="http://www.w3.org/2000/svg" viewBox="0 0 1280 1760" width="1280" height="1760">
<defs>
  <clipPath id="forest-b-clip-top">
    <polygon points="640,240 1194.3,560 1194.3,1200 640,1520 85.7,1200 85.7,560" />
  </clipPath>
  <linearGradient id="forest-b-top-gradient" x1="0%" y1="0%" x2="100%" y2="100%">
    <stop offset="0%" stop-color="#9ae565" />
    <stop offset="58%" stop-color="#73be45" />
    <stop offset="100%" stop-color="#2b6e26" />
  </linearGradient>
  <linearGradient id="forest-b-left-face" x1="0%" y1="0%" x2="100%" y2="100%">
    <stop offset="0%" stop-color="#99642e" />
    <stop offset="100%" stop-color="#603715" />
  </linearGradient>
  <linearGradient id="forest-b-right-face" x1="100%" y1="0%" x2="0%" y2="100%">
    <stop offset="0%" stop-color="#99642e" />
    <stop offset="100%" stop-color="#603715" />
  </linearGradient>
  <linearGradient id="forest-b-front-face" x1="50%" y1="0%" x2="50%" y2="100%">
    <stop offset="0%" stop-color="#99642e" />
    <stop offset="100%" stop-color="#603715" />
  </linearGradient>
  <filter id="forest-b-platform-shadow" x="-20%" y="-20%" width="140%" height="190%">
    <feDropShadow dx="0" dy="22" stdDeviation="22" flood-color="#10230f" flood-opacity="0.42" />
  </filter>
  <filter id="forest-b-overhang-shadow" x="-30%" y="-30%" width="160%" height="220%">
    <feDropShadow dx="0" dy="30" stdDeviation="24" flood-color="#10230f" flood-opacity="0.5" />
  </filter>

</defs>
  <ellipse cx="640" cy="1676" rx="396" ry="70" fill="#10230f" opacity="0.18" />
  <g filter="url(#forest-b-platform-shadow)">
    <polygon points="85.7,1200 640,1520 640,1680 0,1360" fill="url(#forest-b-left-face)" opacity="0.98" />
    <polygon points="640,1520 1194.3,1200 1280,1360 640,1680" fill="url(#forest-b-right-face)" opacity="0.98" />
    <polygon points="224.3,1280 640,1520 1055.7,1280 1055.7,1440 640,1680 224.3,1440" fill="url(#forest-b-front-face)" opacity="0.94" />
  </g>
  <g clip-path="url(#forest-b-clip-top)">
    <polygon points="640,240 1194.3,560 1194.3,1200 640,1520 85.7,1200 85.7,560" fill="url(#forest-b-top-gradient)" />
    <ellipse cx="399.8" cy="1313" rx="61.3" ry="36.3" fill="#d9f5ac" opacity="0.073" transform="rotate(32.9 399.8 1313)" />
    <ellipse cx="362.2" cy="1362.6" rx="121.7" ry="30" fill="#d9f5ac" opacity="0.049" transform="rotate(22.6 362.2 1362.6)" />
    <ellipse cx="214.3" cy="966.7" rx="147.1" ry="35.1" fill="#19461c" opacity="0.06" transform="rotate(-20.4 214.3 966.7)" />
    <ellipse cx="513" cy="1086" rx="58.1" ry="26" fill="#19461c" opacity="0.098" transform="rotate(-19.3 513 1086)" />
    <ellipse cx="112.8" cy="685.8" rx="121.2" ry="37.8" fill="#19461c" opacity="0.076" transform="rotate(-29.6 112.8 685.8)" />
    <ellipse cx="238.7" cy="500.6" rx="134.3" ry="20.4" fill="#d9f5ac" opacity="0.067" transform="rotate(29.5 238.7 500.6)" />
    <ellipse cx="217.2" cy="604.3" rx="105.8" ry="19.2" fill="#d9f5ac" opacity="0.098" transform="rotate(19.7 217.2 604.3)" />
    <ellipse cx="125.3" cy="985.3" rx="148.3" ry="24.1" fill="#d9f5ac" opacity="0.048" transform="rotate(11.1 125.3 985.3)" />
    <ellipse cx="1061" cy="774.2" rx="143.1" ry="36.7" fill="#d9f5ac" opacity="0.061" transform="rotate(-11.6 1061 774.2)" />
    <ellipse cx="1179.6" cy="1070.7" rx="143" ry="19.6" fill="#19461c" opacity="0.093" transform="rotate(-31.2 1179.6 1070.7)" />
    <ellipse cx="871.8" cy="1312.9" rx="82.4" ry="17" fill="#d9f5ac" opacity="0.055" transform="rotate(2.6 871.8 1312.9)" />
    <ellipse cx="418.2" cy="1122.3" rx="106" ry="19.9" fill="#19461c" opacity="0.101" transform="rotate(6.1 418.2 1122.3)" />
    <circle cx="828.2" cy="1178.7" r="11.3" fill="#d9f5ac" opacity="0.1" />
    <circle cx="233.7" cy="1190.5" r="6.5" fill="#19461c" opacity="0.113" />
    <circle cx="765.3" cy="769.6" r="11.1" fill="#19461c" opacity="0.118" />
    <circle cx="141.2" cy="981.9" r="12.6" fill="#19461c" opacity="0.116" />
    <circle cx="940.1" cy="1102.1" r="12.5" fill="#d9f5ac" opacity="0.117" />
    <circle cx="574" cy="1189.1" r="8.3" fill="#19461c" opacity="0.082" />
    <circle cx="905.6" cy="1047.8" r="13.1" fill="#19461c" opacity="0.101" />
    <circle cx="661.2" cy="1183.3" r="7.9" fill="#d9f5ac" opacity="0.161" />
    <circle cx="715.7" cy="1183.8" r="13.7" fill="#19461c" opacity="0.159" />
    <circle cx="116.7" cy="637.7" r="15.9" fill="#d9f5ac" opacity="0.087" />
    <circle cx="1152.4" cy="859.3" r="9.9" fill="#19461c" opacity="0.107" />
    <circle cx="169.5" cy="634.3" r="10" fill="#19461c" opacity="0.162" />
    <circle cx="840.7" cy="904" r="7.5" fill="#d9f5ac" opacity="0.099" />
    <circle cx="286.5" cy="1098.1" r="7.4" fill="#d9f5ac" opacity="0.169" />
    <circle cx="175.2" cy="1324.9" r="8.5" fill="#19461c" opacity="0.178" />
    <circle cx="465.1" cy="1385.7" r="13" fill="#d9f5ac" opacity="0.135" />
    <ellipse cx="188.7" cy="878.1" rx="45.9" ry="29.3" fill="#19461c" opacity="0.2" />
    <ellipse cx="1094.4" cy="773" rx="58.3" ry="16.5" fill="#19461c" opacity="0.2" />
    <ellipse cx="243.1" cy="915.1" rx="64.2" ry="16.9" fill="#19461c" opacity="0.2" />
    <ellipse cx="981" cy="931.8" rx="54.5" ry="23" fill="#19461c" opacity="0.2" />
    <ellipse cx="546.3" cy="899.1" rx="58" ry="24.4" fill="#19461c" opacity="0.2" />
    <ellipse cx="843" cy="977.5" rx="75.8" ry="34" fill="#19461c" opacity="0.2" />
    <ellipse cx="546" cy="1103.4" rx="70.4" ry="32.3" fill="#19461c" opacity="0.2" />
    <ellipse cx="626.7" cy="1197.3" rx="44.3" ry="19.9" fill="#19461c" opacity="0.2" />
    <path d="M 119.2 799.3 Q 640 752.6 1149 799.3" fill="none" stroke="#e9f9bf" stroke-opacity="0.073" stroke-width="22" stroke-linecap="round" />
    <path d="M 167.1 707 Q 640 659 1081.9 707" fill="none" stroke="#e9f9bf" stroke-opacity="0.091" stroke-width="22" stroke-linecap="round" />
    <path d="M 135.4 572.2 Q 640 532.2 1143.4 572.2" fill="none" stroke="#e9f9bf" stroke-opacity="0.097" stroke-width="22" stroke-linecap="round" />
    <path d="M 111.7 773.6 Q 640 711.9 1081 773.6" fill="none" stroke="#e9f9bf" stroke-opacity="0.073" stroke-width="22" stroke-linecap="round" />
  </g>
  <g filter="url(#forest-b-overhang-shadow)">
    <path d="M 248.7 572.1660902157425 L 248.7 518.6" fill="none" stroke="#19461c" stroke-width="18" stroke-linecap="round" opacity="0.74" />
    <polygon points="218.8,469.9 248.7,328.7 278.6,469.9" fill="#2b6e26" />
    <polygon points="202.6,513.7 248.7,406.6 294.8,513.7" fill="#73be45" />
    <polygon points="186.3,572.2 248.7,469.9 311.1,572.2" fill="#9ae565" opacity="0.92" />
    <path d="M 322.5 603.0516177203506 L 322.5 530.9" fill="none" stroke="#19461c" stroke-width="18" stroke-linecap="round" opacity="0.74" />
    <polygon points="288.6,465.4 322.5,275.3 356.4,465.4" fill="#2b6e26" />
    <polygon points="270.1,524.4 322.5,380.1 374.9,524.4" fill="#73be45" />
    <polygon points="251.7,603.1 322.5,465.4 393.3,603.1" fill="#9ae565" opacity="0.92" />
    <path d="M 366 632.7754336960613 L 366 560.2" fill="none" stroke="#19461c" stroke-width="18" stroke-linecap="round" opacity="0.74" />
    <polygon points="338.8,494.3 366,303.1 393.2,494.3" fill="#2b6e26" />
    <polygon points="324,553.6 366,408.6 408,553.6" fill="#73be45" />
    <polygon points="309.1,632.8 366,494.3 422.9,632.8" fill="#9ae565" opacity="0.92" />
    <path d="M 521.9 723.1813308583572 L 521.9 663" fill="none" stroke="#19461c" stroke-width="18" stroke-linecap="round" opacity="0.74" />
    <polygon points="488.5,608.4 521.9,449.8 555.3,608.4" fill="#2b6e26" />
    <polygon points="470.3,657.6 521.9,537.3 573.5,657.6" fill="#73be45" />
    <polygon points="452.1,723.2 521.9,608.4 591.7,723.2" fill="#9ae565" opacity="0.92" />
    <path d="M 565.8 757.5499309595674 L 565.8 698.8" fill="none" stroke="#19461c" stroke-width="18" stroke-linecap="round" opacity="0.74" />
    <polygon points="536.3,645.4 565.8,490.5 595.3,645.4" fill="#2b6e26" />
    <polygon points="520.3,693.5 565.8,576 611.3,693.5" fill="#73be45" />
    <polygon points="504.2,757.5 565.8,645.4 627.4,757.5" fill="#9ae565" opacity="0.92" />
    <path d="M 618.4 800.6649690350517 L 618.4 726.1" fill="none" stroke="#19461c" stroke-width="18" stroke-linecap="round" opacity="0.74" />
    <polygon points="588.2,658.3 618.4,461.7 648.7,658.3" fill="#2b6e26" />
    <polygon points="571.7,719.3 618.4,570.1 665.2,719.3" fill="#73be45" />
    <polygon points="555.2,800.7 618.4,658.3 681.7,800.7" fill="#9ae565" opacity="0.92" />
    <path d="M 911.2 784.7328776631505 L 911.2 725.2" fill="none" stroke="#19461c" stroke-width="18" stroke-linecap="round" opacity="0.74" />
    <polygon points="886.5,671.1 911.2,514.1 935.9,671.1" fill="#2b6e26" />
    <polygon points="873.1,719.8 911.2,600.7 949.3,719.8" fill="#73be45" />
    <polygon points="859.6,784.7 911.2,671.1 962.8,784.7" fill="#9ae565" opacity="0.92" />
    <path d="M 972 836.3749757369981 L 972 766.2" fill="none" stroke="#19461c" stroke-width="18" stroke-linecap="round" opacity="0.74" />
    <polygon points="934.9,702.5 972,517.6 1009.1,702.5" fill="#2b6e26" />
    <polygon points="914.7,759.9 972,619.6 1029.3,759.9" fill="#73be45" />
    <polygon points="894.5,836.4 972,702.5 1049.5,836.4" fill="#9ae565" opacity="0.92" />
    <path d="M 1026.8 846.2651824250818 L 1026.8 797.5" fill="none" stroke="#19461c" stroke-width="18" stroke-linecap="round" opacity="0.74" />
    <polygon points="992.1,753.2 1026.8,624.7 1061.5,753.2" fill="#2b6e26" />
    <polygon points="973.1,793.1 1026.8,695.6 1080.5,793.1" fill="#73be45" />
    <polygon points="954.2,846.3 1026.8,753.2 1099.4,846.3" fill="#9ae565" opacity="0.92" />
  </g>
  <polygon points="640,240 1194.3,560 1194.3,1200 640,1520 85.7,1200 85.7,560" fill="none" stroke="#19461c" stroke-opacity="0.16" stroke-width="10" />
  <path d="M96 1236 Q640 1560 1184 1236" fill="none" stroke="#e9f9bf" stroke-opacity="0.16" stroke-width="18" />
  <path d="M160 1216 Q640 1468 1120 1216" fill="none" stroke="#10230f" stroke-opacity="0.14" stroke-width="10" />
</svg>
