<svg xmlns="http://www.w3.org/2000/svg" viewBox="0 0 1280 1760" width="1280" height="1760">
<defs>
  <clipPath id="highlands-b-clip-top">
    <polygon points="640,240 1194.3,560 1194.3,1200 640,1520 85.7,1200 85.7,560" />
  </clipPath>
  <linearGradient id="highlands-b-top-gradient" x1="0%" y1="0%" x2="100%" y2="100%">
    <stop offset="0%" stop-color="#bdca8f" />
    <stop offset="58%" stop-color="#90a56d" />
    <stop offset="100%" stop-color="#5d7248" />
  </linearGradient>
  <linearGradient id="highlands-b-left-face" x1="0%" y1="0%" x2="100%" y2="100%">
    <stop offset="0%" stop-color="#8f6537" />
    <stop offset="100%" stop-color="#5a391d" />
  </linearGradient>
  <linearGradient id="highlands-b-right-face" x1="100%" y1="0%" x2="0%" y2="100%">
    <stop offset="0%" stop-color="#8f6537" />
    <stop offset="100%" stop-color="#5a391d" />
  </linearGradient>
  <linearGradient id="highlands-b-front-face" x1="50%" y1="0%" x2="50%" y2="100%">
    <stop offset="0%" stop-color="#8f6537" />
    <stop offset="100%" stop-color="#5a391d" />
  </linearGradient>
  <filter id="highlands-b-platform-shadow" x="-20%" y="-20%" width="140%" height="190%">
    <feDropShadow dx="0" dy="22" stdDeviation="22" flood-color="#202518" flood-opacity="0.42" />
  </filter>
  <filter id="highlands-b-overhang-shadow" x="-30%" y="-30%" width="160%" height="220%">
    <feDropShadow dx="0" dy="30" stdDeviation="24" flood-color="#202518" flood-opacity="0.5" />
  </filter>

</defs>
  <ellipse cx="640" cy="1676" rx="396" ry="70" fill="#202518" opacity="0.18" />
  <g filter="url(#highlands-b-platform-shadow)">
    <polygon points="85.7,1200 640,1520 640,1680 0,1360" fill="url(#highlands-b-left-face)" opacity="0.98" />
    <polygon points="640,1520 1194.3,1200 1280,1360 640,1680" fill="url(#highlands-b-right-face)" opacity="0.98" />
    <polygon points="224.3,1280 640,1520 1055.7,1280 1055.7,1440 640,1680 224.3,1440" fill="url(#highlands-b-front-face)" opacity="0.94" />
  </g>
  <g clip-path="url(#highlands-b-clip-top)">
    <polygon points="640,240 1194.3,560 1194.3,1200 640,1520 85.7,1200 85.7,560" fill="url(#highlands-b-top-gradient)" />
    <ellipse cx="481.7" cy="1272.3" rx="87.5" ry="16.7" fill="#eef3cd" opacity="0.073" transform="rotate(0.1 481.7 1272.3)" />
    <ellipse cx="999.3" cy="650.2" rx="110.6" ry="19.1" fill="#eef3cd" opacity="0.102" transform="rotate(21.4 999.3 650.2)" />
    <ellipse cx="134.6" cy="647.6" rx="60.6" ry="38.9" fill="#eef3cd" opacity="0.08" transform="rotate(-6.4 134.6 647.6)" />
    <ellipse cx="246.8" cy="520.1" rx="98.3" ry="20.2" fill="#3d4b31" opacity="0.046" transform="rotate(-31.8 246.8 520.1)" />
    <ellipse cx="644" cy="961.2" rx="69.6" ry="43.5" fill="#3d4b31" opacity="0.069" transform="rotate(8.9 644 961.2)" />
    <ellipse cx="884.8" cy="494.2" rx="121.2" ry="19.7" fill="#3d4b31" opacity="0.084" transform="rotate(-2.3 884.8 494.2)" />
    <ellipse cx="935.7" cy="818" rx="129.9" ry="27.2" fill="#eef3cd" opacity="0.105" transform="rotate(-14.8 935.7 818)" />
    <ellipse cx="518.8" cy="681.6" rx="116" ry="35.1" fill="#eef3cd" opacity="0.064" transform="rotate(6.3 518.8 681.6)" />
    <ellipse cx="974.2" cy="1140.1" rx="97.3" ry="33.1" fill="#eef3cd" opacity="0.056" transform="rotate(-24.6 974.2 1140.1)" />
    <ellipse cx="152.2" cy="1268" rx="130" ry="21.5" fill="#eef3cd" opacity="0.07" transform="rotate(18.1 152.2 1268)" />
    <ellipse cx="924.6" cy="762.1" rx="100.1" ry="29.7" fill="#eef3cd" opacity="0.055" transform="rotate(33.8 924.6 762.1)" />
    <ellipse cx="970.1" cy="570.7" rx="120.8" ry="33.2" fill="#3d4b31" opacity="0.075" transform="rotate(-16.4 970.1 570.7)" />
    <circle cx="741.1" cy="1102.7" r="15.7" fill="#eef3cd" opacity="0.121" />
    <circle cx="896.2" cy="688.1" r="14.9" fill="#eef3cd" opacity="0.146" />
    <circle cx="319.6" cy="1043.1" r="16" fill="#3d4b31" opacity="0.15" />
    <circle cx="1006.9" cy="1040.3" r="15" fill="#3d4b31" opacity="0.135" />
    <circle cx="595.2" cy="1276.2" r="7.4" fill="#eef3cd" opacity="0.153" />
    <circle cx="431.9" cy="472.6" r="9.4" fill="#3d4b31" opacity="0.125" />
    <circle cx="1058.4" cy="1062.2" r="15.2" fill="#3d4b31" opacity="0.116" />
    <circle cx="863.8" cy="1023.7" r="14.2" fill="#3d4b31" opacity="0.108" />
    <circle cx="647.5" cy="660.7" r="14.2" fill="#3d4b31" opacity="0.086" />
    <circle cx="772.4" cy="1065.2" r="10" fill="#eef3cd" opacity="0.131" />
    <circle cx="386.9" cy="576.5" r="13.9" fill="#3d4b31" opacity="0.163" />
    <circle cx="908.1" cy="1221.1" r="10.7" fill="#3d4b31" opacity="0.106" />
    <circle cx="396.8" cy="754.4" r="15.7" fill="#eef3cd" opacity="0.134" />
    <circle cx="459.3" cy="579.8" r="8.1" fill="#3d4b31" opacity="0.109" />
    <circle cx="731.4" cy="466.4" r="13.8" fill="#3d4b31" opacity="0.138" />
    <circle cx="868.2" cy="1082.7" r="13.9" fill="#3d4b31" opacity="0.139" />
    <path d="M 1035.5 1216.9 Q 1137.3 1173.3 1239.1 1216.9" fill="none" stroke="#3d4b31" stroke-opacity="0.24" stroke-width="28" stroke-linecap="round" />
    <path d="M 345.4 795.4 Q 481.7 717.6 617.9 795.4" fill="none" stroke="#3d4b31" stroke-opacity="0.24" stroke-width="28" stroke-linecap="round" />
    <path d="M 822.2 1216.1 Q 913.5 1173.5 1004.8 1216.1" fill="none" stroke="#3d4b31" stroke-opacity="0.24" stroke-width="28" stroke-linecap="round" />
    <path d="M 581.5 1188.8 Q 716.8 1115 852 1188.8" fill="none" stroke="#3d4b31" stroke-opacity="0.24" stroke-width="28" stroke-linecap="round" />
    <path d="M 97.1 791.7 Q 640 720 1073 791.7" fill="none" stroke="#f5f7dd" stroke-opacity="0.093" stroke-width="22" stroke-linecap="round" />
    <path d="M 194.4 924.9 Q 640 881.7 1102.9 924.9" fill="none" stroke="#f5f7dd" stroke-opacity="0.096" stroke-width="22" stroke-linecap="round" />
    <path d="M 200.7 617.7 Q 640 551.2 1159.7 617.7" fill="none" stroke="#f5f7dd" stroke-opacity="0.099" stroke-width="22" stroke-linecap="round" />
    <path d="M 129.4 504.9 Q 640 440.5 1057.9 504.9" fill="none" stroke="#f5f7dd" stroke-opacity="0.099" stroke-width="22" stroke-linecap="round" />
  </g>
  <g filter="url(#highlands-b-overhang-shadow)">
    <polygon points="151.9,719.7 215.3,507.4 312.6,524.4 363.3,719.7" fill="#5d7248" />
    <polygon points="151.9,719.7 219.5,507.4 257.6,681.5" fill="#90a56d" opacity="0.84" />
    <path d="M 198.4 528.6 L 299.9 528.6" fill="none" stroke="#eef3cd" stroke-opacity="0.4" stroke-width="12" stroke-linecap="round" />
    <path d="M 247.2 768.5 L 247.2 723.9" fill="none" stroke="#3d4b31" stroke-width="18" stroke-linecap="round" opacity="0.74" />
    <polygon points="222.1,683.4 247.2,565.9 272.3,683.4" fill="#5d7248" />
    <polygon points="208.4,719.9 247.2,630.7 286,719.9" fill="#90a56d" />
    <polygon points="194.7,768.5 247.2,683.4 299.7,768.5" fill="#bdca8f" opacity="0.92" />
    <polygon points="528.4,806.2 590.9,551.3 686.8,571.7 736.9,806.2" fill="#5d7248" />
    <polygon points="528.4,806.2 595.1,551.3 632.6,760.3" fill="#90a56d" opacity="0.84" />
    <path d="M 574.2 576.8 L 674.3 576.8" fill="none" stroke="#eef3cd" stroke-opacity="0.4" stroke-width="12" stroke-linecap="round" />
    <path d="M 670.2 871.6 L 670.2 829.7" fill="none" stroke="#3d4b31" stroke-width="18" stroke-linecap="round" opacity="0.74" />
    <polygon points="651.7,791.6 670.2,681.1 688.7,791.6" fill="#5d7248" />
    <polygon points="641.6,825.9 670.2,742.1 698.8,825.9" fill="#90a56d" />
    <polygon points="631.5,871.6 670.2,791.6 708.9,871.6" fill="#bdca8f" opacity="0.92" />
    <polygon points="732.6,704.2 791.6,506.5 882,522.3 929.2,704.2" fill="#5d7248" />
    <polygon points="732.6,704.2 795.5,506.5 830.9,668.6" fill="#90a56d" opacity="0.84" />
    <path d="M 775.9 526.3 L 870.2 526.3" fill="none" stroke="#eef3cd" stroke-opacity="0.4" stroke-width="12" stroke-linecap="round" />
    <path d="M 780.7 751.7 L 780.7 701" fill="none" stroke="#3d4b31" stroke-width="18" stroke-linecap="round" opacity="0.74" />
    <polygon points="760.8,654.9 780.7,521.2 800.6,654.9" fill="#5d7248" />
    <polygon points="750,696.4 780.7,595 811.4,696.4" fill="#90a56d" />
    <polygon points="739.1,751.7 780.7,654.9 822.3,751.7" fill="#bdca8f" opacity="0.92" />
  </g>
  <polygon points="640,240 1194.3,560 1194.3,1200 640,1520 85.7,1200 85.7,560" fill="none" stroke="#3d4b31" stroke-opacity="0.16" stroke-width="10" />
  <path d="M96 1236 Q640 1560 1184 1236" fill="none" stroke="#f5f7dd" stroke-opacity="0.16" stroke-width="18" />
  <path d="M160 1216 Q640 1468 1120 1216" fill="none" stroke="#202518" stroke-opacity="0.14" stroke-width="10" />
</svg>
