<svg xmlns="http://www.w3.org/2000/svg" viewBox="0 0 1280 1760" width="1280" height="1760">
<defs>
  <clipPath id="highlands-a-clip-top">
    <polygon points="640,240 1194.3,560 1194.3,1200 640,1520 85.7,1200 85.7,560" />
  </clipPath>
  <linearGradient id="highlands-a-top-gradient" x1="0%" y1="0%" x2="100%" y2="100%">
    <stop offset="0%" stop-color="#bdca8f" />
    <stop offset="58%" stop-color="#90a56d" />
    <stop offset="100%" stop-color="#5d7248" />
  </linearGradient>
  <linearGradient id="highlands-a-left-face" x1="0%" y1="0%" x2="100%" y2="100%">
    <stop offset="0%" stop-color="#8f6537" />
    <stop offset="100%" stop-color="#5a391d" />
  </linearGradient>
  <linearGradient id="highlands-a-right-face" x1="100%" y1="0%" x2="0%" y2="100%">
    <stop offset="0%" stop-color="#8f6537" />
    <stop offset="100%" stop-color="#5a391d" />
  </linearGradient>
  <linearGradient id="highlands-a-front-face" x1="50%" y1="0%" x2="50%" y2="100%">
    <stop offset="0%" stop-color="#8f6537" />
    <stop offset="100%" stop-color="#5a391d" />
  </linearGradient>
  <filter id="highlands-a-platform-shadow" x="-20%" y="-20%" width="140%" height="190%">
    <feDropShadow dx="0" dy="22" stdDeviation="22" flood-color="#202518" flood-opacity="0.42" />
  </filter>
  <filter id="highlands-a-overhang-shadow" x="-30%" y="-30%" width="160%" height="220%">
    <feDropShadow dx="0" dy="30" stdDeviation="24" flood-color="#202518" flood-opacity="0.5" />
  </filter>

</defs>
  <ellipse cx="640" cy="1676" rx="396" ry="70" fill="#202518" opacity="0.18" />
  <g filter="url(#highlands-a-platform-shadow)">
    <polygon points="85.7,1200 640,1520 640,1680 0,1360" fill="url(#highlands-a-left-face)" opacity="0.98" />
    <polygon points="640,1520 1194.3,1200 1280,1360 640,1680" fill="url(#highlands-a-right-face)" opacity="0.98" />
    <polygon points="224.3,1280 640,1520 1055.7,1280 1055.7,1440 640,1680 224.3,1440" fill="url(#highlands-a-front-face)" opacity="0.94" />
  </g>
  <g clip-path="url(#highlands-a-clip-top)">
    <polygon points="640,240 1194.3,560 1194.3,1200 640,1520 85.7,1200 85.7,560" fill="url(#highlands-a-top-gradient)" />
    <ellipse cx="125.6" cy="1297.1" rx="65.9" ry="19.4" fill="#eef3cd" opacity="0.113" transform="rotate(-23.9 125.6 1297.1)" />
    <ellipse cx="642.8" cy="950.1" rx="57" ry="24.4" fill="#eef3cd" opacity="0.057" transform="rotate(-9.5 642.8 950.1)" />
    <ellipse cx="357.5" cy="640.9" rx="128.5" ry="25" fill="#eef3cd" opacity="0.074" transform="rotate(-9.7 357.5 640.9)" />
    <ellipse cx="130.5" cy="497.9" rx="58.3" ry="25.9" fill="#eef3cd" opacity="0.119" transform="rotate(-15.8 130.5 497.9)" />
    <ellipse cx="435" cy="1297.9" rx="148.1" ry="28.7" fill="#eef3cd" opacity="0.065" transform="rotate(3.1 435 1297.9)" />
    <ellipse cx="391.3" cy="682.2" rx="119.2" ry="26.5" fill="#3d4b31" opacity="0.076" transform="rotate(-18.4 391.3 682.2)" />
    <ellipse cx="856.2" cy="817.8" rx="103.7" ry="24.5" fill="#eef3cd" opacity="0.108" transform="rotate(-29.1 856.2 817.8)" />
    <ellipse cx="1112.9" cy="1122.2" rx="98.8" ry="27.6" fill="#eef3cd" opacity="0.084" transform="rotate(9.2 1112.9 1122.2)" />
    <ellipse cx="224" cy="596.9" rx="84.8" ry="23.2" fill="#eef3cd" opacity="0.108" transform="rotate(-3.1 224 596.9)" />
    <ellipse cx="926.7" cy="787.4" rx="83.8" ry="40.6" fill="#3d4b31" opacity="0.069" transform="rotate(-30.9 926.7 787.4)" />
    <ellipse cx="496.2" cy="959.2" rx="67.8" ry="36.7" fill="#eef3cd" opacity="0.083" transform="rotate(25.2 496.2 959.2)" />
    <ellipse cx="114" cy="1100.5" rx="133.1" ry="39.7" fill="#eef3cd" opacity="0.112" transform="rotate(2.6 114 1100.5)" />
    <circle cx="1067.1" cy="644.7" r="9.1" fill="#3d4b31" opacity="0.12" />
    <circle cx="129.9" cy="984.5" r="12" fill="#3d4b31" opacity="0.166" />
    <circle cx="426.2" cy="661.2" r="8.6" fill="#3d4b31" opacity="0.106" />
    <circle cx="577.7" cy="841.7" r="12" fill="#eef3cd" opacity="0.155" />
    <circle cx="834.2" cy="618.6" r="15.8" fill="#3d4b31" opacity="0.144" />
    <circle cx="698.1" cy="903.7" r="13.9" fill="#eef3cd" opacity="0.087" />
    <circle cx="768.1" cy="910.4" r="15.4" fill="#3d4b31" opacity="0.158" />
    <circle cx="923.6" cy="736.7" r="13.3" fill="#eef3cd" opacity="0.167" />
    <circle cx="957.8" cy="479.2" r="6.9" fill="#eef3cd" opacity="0.12" />
    <circle cx="664.2" cy="1138.9" r="11.5" fill="#3d4b31" opacity="0.094" />
    <circle cx="261.3" cy="783.5" r="8.2" fill="#eef3cd" opacity="0.164" />
    <circle cx="1046.3" cy="1343.1" r="12.3" fill="#eef3cd" opacity="0.092" />
    <circle cx="577.6" cy="1133.6" r="8.2" fill="#3d4b31" opacity="0.178" />
    <circle cx="1069.3" cy="655.1" r="13.2" fill="#3d4b31" opacity="0.111" />
    <circle cx="522.2" cy="674.2" r="13" fill="#3d4b31" opacity="0.127" />
    <circle cx="767.7" cy="672.6" r="15.8" fill="#3d4b31" opacity="0.176" />
    <path d="M 954.6 827.5 Q 1051.6 766.8 1148.6 827.5" fill="none" stroke="#3d4b31" stroke-opacity="0.24" stroke-width="28" stroke-linecap="round" />
    <path d="M 185.1 851.4 Q 289.9 811.3 394.7 851.4" fill="none" stroke="#3d4b31" stroke-opacity="0.24" stroke-width="28" stroke-linecap="round" />
    <path d="M 275.4 1042 Q 385.4 962.7 495.4 1042" fill="none" stroke="#3d4b31" stroke-opacity="0.24" stroke-width="28" stroke-linecap="round" />
    <path d="M 981.5 966.3 Q 1116.2 913.3 1250.8 966.3" fill="none" stroke="#3d4b31" stroke-opacity="0.24" stroke-width="28" stroke-linecap="round" />
    <path d="M 83.5 814.2 Q 640 766.8 1201.6 814.2" fill="none" stroke="#f5f7dd" stroke-opacity="0.096" stroke-width="22" stroke-linecap="round" />
    <path d="M 190.4 776.1 Q 640 693.6 1148.7 776.1" fill="none" stroke="#f5f7dd" stroke-opacity="0.066" stroke-width="22" stroke-linecap="round" />
    <path d="M 139.1 1158.6 Q 640 1113.4 1091.1 1158.6" fill="none" stroke="#f5f7dd" stroke-opacity="0.098" stroke-width="22" stroke-linecap="round" />
    <path d="M 159.1 628.1 Q 640 544.6 1119.9 628.1" fill="none" stroke="#f5f7dd" stroke-opacity="0.056" stroke-width="22" stroke-linecap="round" />
  </g>
  <g filter="url(#highlands-a-overhang-shadow)">
    <polygon points="145.1,792.6 205.9,605.5 299.2,620.5 347.9,792.6" fill="#5d7248" />
    <polygon points="145.1,792.6 210,605.5 246.5,758.9" fill="#90a56d" opacity="0.84" />
    <path d="M 189.7 624.2 L 287.1 624.2" fill="none" stroke="#eef3cd" stroke-opacity="0.4" stroke-width="12" stroke-linecap="round" />
    <path d="M 249.4 841.7 L 249.4 795.5" fill="none" stroke="#3d4b31" stroke-width="18" stroke-linecap="round" opacity="0.74" />
    <polygon points="229.1,753.4 249.4,631.5 269.7,753.4" fill="#5d7248" />
    <polygon points="218,791.3 249.4,698.8 280.8,791.3" fill="#90a56d" />
    <polygon points="206.9,841.7 249.4,753.4 291.9,841.7" fill="#bdca8f" opacity="0.92" />
    <polygon points="491.5,670.1 558.3,469.8 660.9,485.8 714.4,670.1" fill="#5d7248" />
    <polygon points="491.5,670.1 562.8,469.8 602.9,634" fill="#90a56d" opacity="0.84" />
    <path d="M 540.5 489.8 L 647.5 489.8" fill="none" stroke="#eef3cd" stroke-opacity="0.4" stroke-width="12" stroke-linecap="round" />
    <path d="M 580.9 740.6 L 580.9 686.9" fill="none" stroke="#3d4b31" stroke-width="18" stroke-linecap="round" opacity="0.74" />
    <polygon points="559.8,638.2 580.9,496.7 602,638.2" fill="#5d7248" />
    <polygon points="548.2,682.1 580.9,574.7 613.6,682.1" fill="#90a56d" />
    <polygon points="536.7,740.6 580.9,638.2 625.1,740.6" fill="#bdca8f" opacity="0.92" />
    <polygon points="779.8,673.7 857.1,433.5 975.6,452.7 1037.5,673.7" fill="#5d7248" />
    <polygon points="779.8,673.7 862.2,433.5 908.6,630.5" fill="#90a56d" opacity="0.84" />
    <path d="M 836.4 457.5 L 960.1 457.5" fill="none" stroke="#eef3cd" stroke-opacity="0.4" stroke-width="12" stroke-linecap="round" />
    <path d="M 900 740.3 L 900 687.7" fill="none" stroke="#3d4b31" stroke-width="18" stroke-linecap="round" opacity="0.74" />
    <polygon points="878,640 900,501.4 922,640" fill="#5d7248" />
    <polygon points="866,683 900,577.8 934,683" fill="#90a56d" />
    <polygon points="854,740.3 900,640 946,740.3" fill="#bdca8f" opacity="0.92" />
  </g>
  <polygon points="640,240 1194.3,560 1194.3,1200 640,1520 85.7,1200 85.7,560" fill="none" stroke="#3d4b31" stroke-opacity="0.16" stroke-width="10" />
  <path d="M96 1236 Q640 1560 1184 1236" fill="none" stroke="#f5f7dd" stroke-opacity="0.16" stroke-width="18" />
  <path d="M160 1216 Q640 1468 1120 1216" fill="none" stroke="#202518" stroke-opacity="0.14" stroke-width="10" />
</svg>
