<svg xmlns="http://www.w3.org/2000/svg" viewBox="0 0 1280 1760" width="1280" height="1760">
<defs>
  <clipPath id="mountain-d-clip-top">
    <polygon points="640,240 1194.3,560 1194.3,1200 640,1520 85.7,1200 85.7,560" />
  </clipPath>
  <linearGradient id="mountain-d-top-gradient" x1="0%" y1="0%" x2="100%" y2="100%">
    <stop offset="0%" stop-color="#e1ebf0" />
    <stop offset="58%" stop-color="#8ea2a8" />
    <stop offset="100%" stop-color="#5d7078" />
  </linearGradient>
  <linearGradient id="mountain-d-left-face" x1="0%" y1="0%" x2="100%" y2="100%">
    <stop offset="0%" stop-color="#8a5a30" />
    <stop offset="100%" stop-color="#533114" />
  </linearGradient>
  <linearGradient id="mountain-d-right-face" x1="100%" y1="0%" x2="0%" y2="100%">
    <stop offset="0%" stop-color="#8a5a30" />
    <stop offset="100%" stop-color="#533114" />
  </linearGradient>
  <linearGradient id="mountain-d-front-face" x1="50%" y1="0%" x2="50%" y2="100%">
    <stop offset="0%" stop-color="#8a5a30" />
    <stop offset="100%" stop-color="#533114" />
  </linearGradient>
  <filter id="mountain-d-platform-shadow" x="-20%" y="-20%" width="140%" height="190%">
    <feDropShadow dx="0" dy="22" stdDeviation="22" flood-color="#253037" flood-opacity="0.42" />
  </filter>
  <filter id="mountain-d-overhang-shadow" x="-30%" y="-30%" width="160%" height="220%">
    <feDropShadow dx="0" dy="30" stdDeviation="24" flood-color="#253037" flood-opacity="0.5" />
  </filter>

</defs>
  <ellipse cx="640" cy="1676" rx="396" ry="70" fill="#253037" opacity="0.18" />
  <g filter="url(#mountain-d-platform-shadow)">
    <polygon points="85.7,1200 640,1520 640,1680 0,1360" fill="url(#mountain-d-left-face)" opacity="0.98" />
    <polygon points="640,1520 1194.3,1200 1280,1360 640,1680" fill="url(#mountain-d-right-face)" opacity="0.98" />
    <polygon points="224.3,1280 640,1520 1055.7,1280 1055.7,1440 640,1680 224.3,1440" fill="url(#mountain-d-front-face)" opacity="0.94" />
  </g>
  <g clip-path="url(#mountain-d-clip-top)">
    <polygon points="640,240 1194.3,560 1194.3,1200 640,1520 85.7,1200 85.7,560" fill="url(#mountain-d-top-gradient)" />
    <ellipse cx="1055.5" cy="658.1" rx="130.2" ry="22.4" fill="#ffffff" opacity="0.088" transform="rotate(3 1055.5 658.1)" />
    <ellipse cx="1133.5" cy="630.1" rx="136.6" ry="16.5" fill="#39464d" opacity="0.043" transform="rotate(-16.4 1133.5 630.1)" />
    <ellipse cx="347.8" cy="904.3" rx="98.4" ry="32.2" fill="#39464d" opacity="0.067" transform="rotate(-6.3 347.8 904.3)" />
    <ellipse cx="382.7" cy="688.9" rx="84.9" ry="37.1" fill="#39464d" opacity="0.108" transform="rotate(-24.8 382.7 688.9)" />
    <ellipse cx="787.9" cy="1386.8" rx="110.7" ry="19.6" fill="#ffffff" opacity="0.109" transform="rotate(28.5 787.9 1386.8)" />
    <ellipse cx="1092" cy="800.9" rx="84.8" ry="18.6" fill="#39464d" opacity="0.082" transform="rotate(32.8 1092 800.9)" />
    <ellipse cx="681.4" cy="706" rx="133.1" ry="18.2" fill="#39464d" opacity="0.057" transform="rotate(32.6 681.4 706)" />
    <ellipse cx="848.3" cy="812.9" rx="112.3" ry="40.6" fill="#39464d" opacity="0.051" transform="rotate(33.9 848.3 812.9)" />
    <ellipse cx="756.1" cy="1089.9" rx="112.5" ry="36.1" fill="#39464d" opacity="0.109" transform="rotate(6.8 756.1 1089.9)" />
    <ellipse cx="472" cy="495.2" rx="63.6" ry="37.7" fill="#ffffff" opacity="0.104" transform="rotate(8 472 495.2)" />
    <ellipse cx="1009.7" cy="950.8" rx="108" ry="30.8" fill="#ffffff" opacity="0.046" transform="rotate(15.9 1009.7 950.8)" />
    <ellipse cx="300.3" cy="998.5" rx="131.8" ry="22.1" fill="#39464d" opacity="0.073" transform="rotate(-33.7 300.3 998.5)" />
    <circle cx="637.6" cy="1200.9" r="15.1" fill="#ffffff" opacity="0.15" />
    <circle cx="610.6" cy="1212" r="15.8" fill="#39464d" opacity="0.167" />
    <circle cx="972.5" cy="464.3" r="8.2" fill="#39464d" opacity="0.101" />
    <circle cx="262.9" cy="904.2" r="6.5" fill="#39464d" opacity="0.172" />
    <circle cx="928.1" cy="1136.6" r="13.2" fill="#39464d" opacity="0.138" />
    <circle cx="1054.1" cy="1355.2" r="15.2" fill="#ffffff" opacity="0.144" />
    <circle cx="1085.9" cy="1015.6" r="14.3" fill="#ffffff" opacity="0.119" />
    <circle cx="684.5" cy="1066.1" r="7.5" fill="#39464d" opacity="0.155" />
    <circle cx="183.4" cy="1142" r="15" fill="#39464d" opacity="0.121" />
    <circle cx="1091.9" cy="628.7" r="13.8" fill="#ffffff" opacity="0.173" />
    <circle cx="206.8" cy="1135.7" r="7.5" fill="#39464d" opacity="0.121" />
    <circle cx="282.5" cy="1067.5" r="8.3" fill="#39464d" opacity="0.137" />
    <circle cx="537.8" cy="541.8" r="8.6" fill="#ffffff" opacity="0.175" />
    <circle cx="1141.8" cy="917.8" r="11.8" fill="#39464d" opacity="0.174" />
    <circle cx="146" cy="1231.3" r="13.4" fill="#ffffff" opacity="0.125" />
    <circle cx="555.3" cy="656.9" r="7.4" fill="#39464d" opacity="0.171" />
    <circle cx="1050.2" cy="1215.2" r="27.5" fill="#39464d" opacity="0.24" />
    <circle cx="1043.6" cy="1207.5" r="13.2" fill="#ffffff" opacity="0.2" />
    <circle cx="538.3" cy="1246.2" r="33.9" fill="#39464d" opacity="0.24" />
    <circle cx="530.2" cy="1236.7" r="16.3" fill="#ffffff" opacity="0.2" />
    <circle cx="1048" cy="1280.5" r="27.7" fill="#39464d" opacity="0.24" />
    <circle cx="1041.4" cy="1272.7" r="13.3" fill="#ffffff" opacity="0.2" />
    <circle cx="894.8" cy="874.2" r="35.8" fill="#39464d" opacity="0.24" />
    <circle cx="886.2" cy="864.2" r="17.2" fill="#ffffff" opacity="0.2" />
    <circle cx="433.9" cy="1180.8" r="29.7" fill="#39464d" opacity="0.24" />
    <circle cx="426.8" cy="1172.5" r="14.3" fill="#ffffff" opacity="0.2" />
    <circle cx="852" cy="1132.1" r="30.7" fill="#39464d" opacity="0.24" />
    <circle cx="844.6" cy="1123.5" r="14.7" fill="#ffffff" opacity="0.2" />
    <circle cx="1025.3" cy="889.2" r="28.4" fill="#39464d" opacity="0.24" />
    <circle cx="1018.5" cy="881.2" r="13.6" fill="#ffffff" opacity="0.2" />
    <circle cx="615" cy="1155.1" r="35.9" fill="#39464d" opacity="0.24" />
    <circle cx="606.4" cy="1145" r="17.2" fill="#ffffff" opacity="0.2" />
    <path d="M 104.6 1010 Q 640 974.2 1140.6 1010" fill="none" stroke="#f8fafc" stroke-opacity="0.091" stroke-width="22" stroke-linecap="round" />
    <path d="M 179 902.1 Q 640 832.9 1043.2 902.1" fill="none" stroke="#f8fafc" stroke-opacity="0.054" stroke-width="22" stroke-linecap="round" />
    <path d="M 136.3 1134.1 Q 640 1094.5 1191.4 1134.1" fill="none" stroke="#f8fafc" stroke-opacity="0.063" stroke-width="22" stroke-linecap="round" />
    <path d="M 159 754.2 Q 640 685.1 1145.9 754.2" fill="none" stroke="#f8fafc" stroke-opacity="0.071" stroke-width="22" stroke-linecap="round" />
  </g>
  <g filter="url(#mountain-d-overhang-shadow)">
    <polygon points="152.8,963.4 287.6,370.1 422.5,963.4" fill="#5d7078" />
    <polygon points="152.8,963.4 287.6,370.1 287.6,963.4" fill="#8ea2a8" opacity="0.92" />
    <polygon points="287.6,370.1 422.5,963.4 303.8,844.7" fill="#e1ebf0" opacity="0.9" />
    <polygon points="260.6,465 287.6,370.1 320,476.9" fill="#ffffff" opacity="0.96" />
    <polygon points="448.1,910.7 598.9,519.2 749.8,910.7" fill="#5d7078" />
    <polygon points="448.1,910.7 598.9,519.2 598.9,910.7" fill="#8ea2a8" opacity="0.92" />
    <polygon points="598.9,519.2 749.8,910.7 617,832.4" fill="#e1ebf0" opacity="0.9" />
    <polygon points="568.7,581.8 598.9,519.2 635.1,589.7" fill="#ffffff" opacity="0.96" />
    <polygon points="740.6,801.9 907.2,397.1 1073.9,801.9" fill="#5d7078" />
    <polygon points="740.6,801.9 907.2,397.1 907.2,801.9" fill="#8ea2a8" opacity="0.92" />
    <polygon points="907.2,397.1 1073.9,801.9 927.2,720.9" fill="#e1ebf0" opacity="0.9" />
    <polygon points="873.9,461.9 907.2,397.1 947.2,470" fill="#ffffff" opacity="0.96" />
  </g>
  <polygon points="640,240 1194.3,560 1194.3,1200 640,1520 85.7,1200 85.7,560" fill="none" stroke="#39464d" stroke-opacity="0.16" stroke-width="10" />
  <path d="M96 1236 Q640 1560 1184 1236" fill="none" stroke="#f8fafc" stroke-opacity="0.16" stroke-width="18" />
  <path d="M160 1216 Q640 1468 1120 1216" fill="none" stroke="#253037" stroke-opacity="0.14" stroke-width="10" />
</svg>
