<svg xmlns="http://www.w3.org/2000/svg" viewBox="0 0 1280 1760" width="1280" height="1760">
<defs>
  <clipPath id="mountain-b-clip-top">
    <polygon points="640,240 1194.3,560 1194.3,1200 640,1520 85.7,1200 85.7,560" />
  </clipPath>
  <linearGradient id="mountain-b-top-gradient" x1="0%" y1="0%" x2="100%" y2="100%">
    <stop offset="0%" stop-color="#e1ebf0" />
    <stop offset="58%" stop-color="#8ea2a8" />
    <stop offset="100%" stop-color="#5d7078" />
  </linearGradient>
  <linearGradient id="mountain-b-left-face" x1="0%" y1="0%" x2="100%" y2="100%">
    <stop offset="0%" stop-color="#8a5a30" />
    <stop offset="100%" stop-color="#533114" />
  </linearGradient>
  <linearGradient id="mountain-b-right-face" x1="100%" y1="0%" x2="0%" y2="100%">
    <stop offset="0%" stop-color="#8a5a30" />
    <stop offset="100%" stop-color="#533114" />
  </linearGradient>
  <linearGradient id="mountain-b-front-face" x1="50%" y1="0%" x2="50%" y2="100%">
    <stop offset="0%" stop-color="#8a5a30" />
    <stop offset="100%" stop-color="#533114" />
  </linearGradient>
  <filter id="mountain-b-platform-shadow" x="-20%" y="-20%" width="140%" height="190%">
    <feDropShadow dx="0" dy="22" stdDeviation="22" flood-color="#253037" flood-opacity="0.42" />
  </filter>
  <filter id="mountain-b-overhang-shadow" x="-30%" y="-30%" width="160%" height="220%">
    <feDropShadow dx="0" dy="30" stdDeviation="24" flood-color="#253037" flood-opacity="0.5" />
  </filter>

</defs>
  <ellipse cx="640" cy="1676" rx="396" ry="70" fill="#253037" opacity="0.18" />
  <g filter="url(#mountain-b-platform-shadow)">
    <polygon points="85.7,1200 640,1520 640,1680 0,1360" fill="url(#mountain-b-left-face)" opacity="0.98" />
    <polygon points="640,1520 1194.3,1200 1280,1360 640,1680" fill="url(#mountain-b-right-face)" opacity="0.98" />
    <polygon points="224.3,1280 640,1520 1055.7,1280 1055.7,1440 640,1680 224.3,1440" fill="url(#mountain-b-front-face)" opacity="0.94" />
  </g>
  <g clip-path="url(#mountain-b-clip-top)">
    <polygon points="640,240 1194.3,560 1194.3,1200 640,1520 85.7,1200 85.7,560" fill="url(#mountain-b-top-gradient)" />
    <ellipse cx="121.9" cy="720.4" rx="143.2" ry="23.1" fill="#39464d" opacity="0.111" transform="rotate(27.9 121.9 720.4)" />
    <ellipse cx="555.3" cy="952.7" rx="86.5" ry="41" fill="#39464d" opacity="0.103" transform="rotate(-9.3 555.3 952.7)" />
    <ellipse cx="887.5" cy="1105.7" rx="87.4" ry="35" fill="#ffffff" opacity="0.068" transform="rotate(4.5 887.5 1105.7)" />
    <ellipse cx="1065" cy="587.3" rx="84.8" ry="16.2" fill="#ffffff" opacity="0.052" transform="rotate(0.8 1065 587.3)" />
    <ellipse cx="1013.3" cy="556.7" rx="102.8" ry="30.3" fill="#39464d" opacity="0.087" transform="rotate(-3.5 1013.3 556.7)" />
    <ellipse cx="423.1" cy="1236.5" rx="55.5" ry="41.7" fill="#ffffff" opacity="0.083" transform="rotate(-6.1 423.1 1236.5)" />
    <ellipse cx="297" cy="1163.2" rx="99.4" ry="31" fill="#ffffff" opacity="0.054" transform="rotate(-21.2 297 1163.2)" />
    <ellipse cx="792.9" cy="1220.4" rx="91.9" ry="26.7" fill="#39464d" opacity="0.051" transform="rotate(-19.2 792.9 1220.4)" />
    <ellipse cx="1178.6" cy="934.1" rx="125.9" ry="33.6" fill="#39464d" opacity="0.116" transform="rotate(3.4 1178.6 934.1)" />
    <ellipse cx="835.8" cy="1270.6" rx="133.6" ry="31" fill="#ffffff" opacity="0.097" transform="rotate(-0.8 835.8 1270.6)" />
    <ellipse cx="1007.5" cy="1225.5" rx="102.4" ry="32.1" fill="#39464d" opacity="0.084" transform="rotate(-8.7 1007.5 1225.5)" />
    <ellipse cx="1024.2" cy="1301" rx="133.3" ry="33.1" fill="#ffffff" opacity="0.111" transform="rotate(15.1 1024.2 1301)" />
    <circle cx="1008.7" cy="1115.6" r="13.9" fill="#39464d" opacity="0.105" />
    <circle cx="456.9" cy="944.7" r="13.9" fill="#ffffff" opacity="0.144" />
    <circle cx="998.3" cy="1198.5" r="11.5" fill="#39464d" opacity="0.173" />
    <circle cx="534.9" cy="426.9" r="8.4" fill="#ffffff" opacity="0.091" />
    <circle cx="1176.7" cy="938.2" r="12.7" fill="#ffffff" opacity="0.148" />
    <circle cx="401.2" cy="646.6" r="9.3" fill="#39464d" opacity="0.151" />
    <circle cx="692.1" cy="519" r="11.8" fill="#39464d" opacity="0.094" />
    <circle cx="908.6" cy="1237.7" r="15.9" fill="#ffffff" opacity="0.175" />
    <circle cx="494.4" cy="987" r="7.4" fill="#39464d" opacity="0.118" />
    <circle cx="365.5" cy="644.8" r="13" fill="#39464d" opacity="0.162" />
    <circle cx="632.5" cy="615.3" r="10.9" fill="#ffffff" opacity="0.167" />
    <circle cx="458.2" cy="712.2" r="15.6" fill="#39464d" opacity="0.146" />
    <circle cx="575.3" cy="879" r="15.3" fill="#39464d" opacity="0.096" />
    <circle cx="1038.6" cy="964.5" r="15.8" fill="#39464d" opacity="0.16" />
    <circle cx="854.3" cy="1345.9" r="12.3" fill="#39464d" opacity="0.154" />
    <circle cx="216.9" cy="786.6" r="6.4" fill="#ffffff" opacity="0.121" />
    <circle cx="1123.5" cy="931.4" r="33.8" fill="#39464d" opacity="0.24" />
    <circle cx="1115.4" cy="921.9" r="16.2" fill="#ffffff" opacity="0.2" />
    <circle cx="406.1" cy="1045.4" r="37.5" fill="#39464d" opacity="0.24" />
    <circle cx="397.1" cy="1034.9" r="18" fill="#ffffff" opacity="0.2" />
    <circle cx="990.6" cy="1270.6" r="35.2" fill="#39464d" opacity="0.24" />
    <circle cx="982.2" cy="1260.7" r="16.9" fill="#ffffff" opacity="0.2" />
    <circle cx="877.4" cy="853.4" r="43.1" fill="#39464d" opacity="0.24" />
    <circle cx="867.1" cy="841.3" r="20.7" fill="#ffffff" opacity="0.2" />
    <circle cx="644.4" cy="956.6" r="36.2" fill="#39464d" opacity="0.24" />
    <circle cx="635.7" cy="946.5" r="17.4" fill="#ffffff" opacity="0.2" />
    <circle cx="899" cy="1061.2" r="32.6" fill="#39464d" opacity="0.24" />
    <circle cx="891.2" cy="1052.1" r="15.6" fill="#ffffff" opacity="0.2" />
    <circle cx="482.1" cy="919.6" r="29.7" fill="#39464d" opacity="0.24" />
    <circle cx="475" cy="911.3" r="14.3" fill="#ffffff" opacity="0.2" />
    <circle cx="201" cy="1043.5" r="36.2" fill="#39464d" opacity="0.24" />
    <circle cx="192.3" cy="1033.4" r="17.4" fill="#ffffff" opacity="0.2" />
    <path d="M 81.9 1001.3 Q 640 939.9 1190.6 1001.3" fill="none" stroke="#f8fafc" stroke-opacity="0.074" stroke-width="22" stroke-linecap="round" />
    <path d="M 82.7 658 Q 640 619.7 1091.2 658" fill="none" stroke="#f8fafc" stroke-opacity="0.061" stroke-width="22" stroke-linecap="round" />
    <path d="M 81.8 566 Q 640 488.8 1092.5 566" fill="none" stroke="#f8fafc" stroke-opacity="0.075" stroke-width="22" stroke-linecap="round" />
    <path d="M 177.4 943.3 Q 640 891.6 1208.6 943.3" fill="none" stroke="#f8fafc" stroke-opacity="0.083" stroke-width="22" stroke-linecap="round" />
  </g>
  <g filter="url(#mountain-b-overhang-shadow)">
    <polygon points="171.3,781.7 301.3,371.1 431.4,781.7" fill="#5d7078" />
    <polygon points="171.3,781.7 301.3,371.1 301.3,781.7" fill="#8ea2a8" opacity="0.92" />
    <polygon points="301.3,371.1 431.4,781.7 316.9,699.6" fill="#e1ebf0" opacity="0.9" />
    <polygon points="275.3,436.8 301.3,371.1 332.5,445" fill="#ffffff" opacity="0.96" />
    <polygon points="468.1,915.4 631.6,325 795.2,915.4" fill="#5d7078" />
    <polygon points="468.1,915.4 631.6,325 631.6,915.4" fill="#8ea2a8" opacity="0.92" />
    <polygon points="631.6,325 795.2,915.4 651.2,797.3" fill="#e1ebf0" opacity="0.9" />
    <polygon points="598.9,419.5 631.6,325 670.9,431.3" fill="#ffffff" opacity="0.96" />
    <polygon points="796.8,919.4 953.5,405.3 1110.3,919.4" fill="#5d7078" />
    <polygon points="796.8,919.4 953.5,405.3 953.5,919.4" fill="#8ea2a8" opacity="0.92" />
    <polygon points="953.5,405.3 1110.3,919.4 972.3,816.6" fill="#e1ebf0" opacity="0.9" />
    <polygon points="922.2,487.6 953.5,405.3 991.1,497.8" fill="#ffffff" opacity="0.96" />
  </g>
  <polygon points="640,240 1194.3,560 1194.3,1200 640,1520 85.7,1200 85.7,560" fill="none" stroke="#39464d" stroke-opacity="0.16" stroke-width="10" />
  <path d="M96 1236 Q640 1560 1184 1236" fill="none" stroke="#f8fafc" stroke-opacity="0.16" stroke-width="18" />
  <path d="M160 1216 Q640 1468 1120 1216" fill="none" stroke="#253037" stroke-opacity="0.14" stroke-width="10" />
</svg>
