<svg xmlns="http://www.w3.org/2000/svg" viewBox="0 0 1280 1760" width="1280" height="1760">
<defs>
  <clipPath id="mountain-a-clip-top">
    <polygon points="640,240 1194.3,560 1194.3,1200 640,1520 85.7,1200 85.7,560" />
  </clipPath>
  <linearGradient id="mountain-a-top-gradient" x1="0%" y1="0%" x2="100%" y2="100%">
    <stop offset="0%" stop-color="#e1ebf0" />
    <stop offset="58%" stop-color="#8ea2a8" />
    <stop offset="100%" stop-color="#5d7078" />
  </linearGradient>
  <linearGradient id="mountain-a-left-face" x1="0%" y1="0%" x2="100%" y2="100%">
    <stop offset="0%" stop-color="#8a5a30" />
    <stop offset="100%" stop-color="#533114" />
  </linearGradient>
  <linearGradient id="mountain-a-right-face" x1="100%" y1="0%" x2="0%" y2="100%">
    <stop offset="0%" stop-color="#8a5a30" />
    <stop offset="100%" stop-color="#533114" />
  </linearGradient>
  <linearGradient id="mountain-a-front-face" x1="50%" y1="0%" x2="50%" y2="100%">
    <stop offset="0%" stop-color="#8a5a30" />
    <stop offset="100%" stop-color="#533114" />
  </linearGradient>
  <filter id="mountain-a-platform-shadow" x="-20%" y="-20%" width="140%" height="190%">
    <feDropShadow dx="0" dy="22" stdDeviation="22" flood-color="#253037" flood-opacity="0.42" />
  </filter>
  <filter id="mountain-a-overhang-shadow" x="-30%" y="-30%" width="160%" height="220%">
    <feDropShadow dx="0" dy="30" stdDeviation="24" flood-color="#253037" flood-opacity="0.5" />
  </filter>

</defs>
  <ellipse cx="640" cy="1676" rx="396" ry="70" fill="#253037" opacity="0.18" />
  <g filter="url(#mountain-a-platform-shadow)">
    <polygon points="85.7,1200 640,1520 640,1680 0,1360" fill="url(#mountain-a-left-face)" opacity="0.98" />
    <polygon points="640,1520 1194.3,1200 1280,1360 640,1680" fill="url(#mountain-a-right-face)" opacity="0.98" />
    <polygon points="224.3,1280 640,1520 1055.7,1280 1055.7,1440 640,1680 224.3,1440" fill="url(#mountain-a-front-face)" opacity="0.94" />
  </g>
  <g clip-path="url(#mountain-a-clip-top)">
    <polygon points="640,240 1194.3,560 1194.3,1200 640,1520 85.7,1200 85.7,560" fill="url(#mountain-a-top-gradient)" />
    <ellipse cx="352.7" cy="1373.7" rx="113.2" ry="29" fill="#ffffff" opacity="0.11" transform="rotate(17.3 352.7 1373.7)" />
    <ellipse cx="308.7" cy="598.2" rx="127.9" ry="19.4" fill="#ffffff" opacity="0.063" transform="rotate(-24.6 308.7 598.2)" />
    <ellipse cx="966.6" cy="1073.1" rx="148.7" ry="26" fill="#ffffff" opacity="0.078" transform="rotate(3.3 966.6 1073.1)" />
    <ellipse cx="587.6" cy="1139.1" rx="85.9" ry="36.4" fill="#ffffff" opacity="0.063" transform="rotate(-10 587.6 1139.1)" />
    <ellipse cx="644.6" cy="1034.9" rx="90.7" ry="29.9" fill="#ffffff" opacity="0.068" transform="rotate(-28.8 644.6 1034.9)" />
    <ellipse cx="825.3" cy="801.6" rx="94.1" ry="29.3" fill="#ffffff" opacity="0.047" transform="rotate(-16.2 825.3 801.6)" />
    <ellipse cx="1047.8" cy="1004.1" rx="145.5" ry="16.7" fill="#39464d" opacity="0.105" transform="rotate(-0.8 1047.8 1004.1)" />
    <ellipse cx="762" cy="946.7" rx="138.3" ry="28.3" fill="#39464d" opacity="0.1" transform="rotate(-21.8 762 946.7)" />
    <ellipse cx="1047.5" cy="500.8" rx="108.7" ry="39.4" fill="#ffffff" opacity="0.058" transform="rotate(31.7 1047.5 500.8)" />
    <ellipse cx="774.1" cy="1222.7" rx="119.3" ry="40" fill="#ffffff" opacity="0.113" transform="rotate(-28.2 774.1 1222.7)" />
    <ellipse cx="718.7" cy="937.7" rx="89" ry="24.5" fill="#39464d" opacity="0.1" transform="rotate(23.5 718.7 937.7)" />
    <ellipse cx="111.4" cy="894.5" rx="56.7" ry="42.9" fill="#ffffff" opacity="0.056" transform="rotate(33.1 111.4 894.5)" />
    <circle cx="284" cy="440.9" r="12.9" fill="#ffffff" opacity="0.143" />
    <circle cx="254.4" cy="1135.8" r="12.1" fill="#39464d" opacity="0.154" />
    <circle cx="470" cy="710.7" r="13.1" fill="#39464d" opacity="0.173" />
    <circle cx="397.3" cy="1000.1" r="13.3" fill="#ffffff" opacity="0.175" />
    <circle cx="792.7" cy="1120.5" r="14" fill="#39464d" opacity="0.105" />
    <circle cx="1032.6" cy="1335.3" r="12.5" fill="#ffffff" opacity="0.08" />
    <circle cx="671.7" cy="940.4" r="12.8" fill="#39464d" opacity="0.14" />
    <circle cx="785.5" cy="777.7" r="15.5" fill="#39464d" opacity="0.178" />
    <circle cx="287.1" cy="598.1" r="11.5" fill="#39464d" opacity="0.086" />
    <circle cx="968.9" cy="1312.1" r="8.5" fill="#ffffff" opacity="0.1" />
    <circle cx="811.6" cy="1058.5" r="15.2" fill="#39464d" opacity="0.161" />
    <circle cx="934.1" cy="1259.2" r="14.7" fill="#39464d" opacity="0.101" />
    <circle cx="900" cy="534.3" r="14.5" fill="#ffffff" opacity="0.121" />
    <circle cx="757.6" cy="1256.8" r="6.2" fill="#39464d" opacity="0.097" />
    <circle cx="1029.7" cy="920.4" r="9.4" fill="#39464d" opacity="0.155" />
    <circle cx="95" cy="844.2" r="8.4" fill="#39464d" opacity="0.135" />
    <circle cx="226.3" cy="1246.3" r="41.8" fill="#39464d" opacity="0.24" />
    <circle cx="216.3" cy="1234.6" r="20.1" fill="#ffffff" opacity="0.2" />
    <circle cx="790.2" cy="1204.2" r="27.5" fill="#39464d" opacity="0.24" />
    <circle cx="783.6" cy="1196.5" r="13.2" fill="#ffffff" opacity="0.2" />
    <circle cx="402.2" cy="1238.8" r="42.7" fill="#39464d" opacity="0.24" />
    <circle cx="392" cy="1226.8" r="20.5" fill="#ffffff" opacity="0.2" />
    <circle cx="860.3" cy="1099.3" r="22.5" fill="#39464d" opacity="0.24" />
    <circle cx="854.9" cy="1093" r="10.8" fill="#ffffff" opacity="0.2" />
    <circle cx="735.1" cy="952.9" r="23.5" fill="#39464d" opacity="0.24" />
    <circle cx="729.5" cy="946.3" r="11.3" fill="#ffffff" opacity="0.2" />
    <circle cx="1064.7" cy="1251.2" r="41.3" fill="#39464d" opacity="0.24" />
    <circle cx="1054.8" cy="1239.6" r="19.8" fill="#ffffff" opacity="0.2" />
    <circle cx="769" cy="1134.2" r="25.4" fill="#39464d" opacity="0.24" />
    <circle cx="762.9" cy="1127.1" r="12.2" fill="#ffffff" opacity="0.2" />
    <circle cx="1122.1" cy="853.9" r="39.7" fill="#39464d" opacity="0.24" />
    <circle cx="1112.6" cy="842.8" r="19.1" fill="#ffffff" opacity="0.2" />
    <path d="M 219.2 968.2 Q 640 897.3 1073.4 968.2" fill="none" stroke="#f8fafc" stroke-opacity="0.071" stroke-width="22" stroke-linecap="round" />
    <path d="M 192 852.5 Q 640 778 1164.1 852.5" fill="none" stroke="#f8fafc" stroke-opacity="0.076" stroke-width="22" stroke-linecap="round" />
    <path d="M 148.6 949.2 Q 640 897.4 1129.9 949.2" fill="none" stroke="#f8fafc" stroke-opacity="0.093" stroke-width="22" stroke-linecap="round" />
    <path d="M 168 645.6 Q 640 568.6 1076.3 645.6" fill="none" stroke="#f8fafc" stroke-opacity="0.099" stroke-width="22" stroke-linecap="round" />
  </g>
  <g filter="url(#mountain-a-overhang-shadow)">
    <polygon points="158.9,800.3 317,254 475.2,800.3" fill="#5d7078" />
    <polygon points="158.9,800.3 317,254 317,800.3" fill="#8ea2a8" opacity="0.92" />
    <polygon points="317,254 475.2,800.3 336,691" fill="#e1ebf0" opacity="0.9" />
    <polygon points="285.4,341.4 317,254 355,352.3" fill="#ffffff" opacity="0.96" />
    <polygon points="452.7,824.1 593.1,325.2 733.6,824.1" fill="#5d7078" />
    <polygon points="452.7,824.1 593.1,325.2 593.1,824.1" fill="#8ea2a8" opacity="0.92" />
    <polygon points="593.1,325.2 733.6,824.1 610,724.3" fill="#e1ebf0" opacity="0.9" />
    <polygon points="565,405 593.1,325.2 626.8,415" fill="#ffffff" opacity="0.96" />
    <polygon points="719.8,962.4 898.4,430 1077.1,962.4" fill="#5d7078" />
    <polygon points="719.8,962.4 898.4,430 898.4,962.4" fill="#8ea2a8" opacity="0.92" />
    <polygon points="898.4,430 1077.1,962.4 919.8,855.9" fill="#e1ebf0" opacity="0.9" />
    <polygon points="862.7,515.2 898.4,430 941.3,525.8" fill="#ffffff" opacity="0.96" />
  </g>
  <polygon points="640,240 1194.3,560 1194.3,1200 640,1520 85.7,1200 85.7,560" fill="none" stroke="#39464d" stroke-opacity="0.16" stroke-width="10" />
  <path d="M96 1236 Q640 1560 1184 1236" fill="none" stroke="#f8fafc" stroke-opacity="0.16" stroke-width="18" />
  <path d="M160 1216 Q640 1468 1120 1216" fill="none" stroke="#253037" stroke-opacity="0.14" stroke-width="10" />
</svg>
