<svg xmlns="http://www.w3.org/2000/svg" viewBox="0 0 1280 1760" width="1280" height="1760">
<defs>
  <clipPath id="plains-d-clip-top">
    <polygon points="640,240 1194.3,560 1194.3,1200 640,1520 85.7,1200 85.7,560" />
  </clipPath>
  <linearGradient id="plains-d-top-gradient" x1="0%" y1="0%" x2="100%" y2="100%">
    <stop offset="0%" stop-color="#b9e47b" />
    <stop offset="58%" stop-color="#8dc853" />
    <stop offset="100%" stop-color="#5f9638" />
  </linearGradient>
  <linearGradient id="plains-d-left-face" x1="0%" y1="0%" x2="100%" y2="100%">
    <stop offset="0%" stop-color="#9f6a34" />
    <stop offset="100%" stop-color="#603817" />
  </linearGradient>
  <linearGradient id="plains-d-right-face" x1="100%" y1="0%" x2="0%" y2="100%">
    <stop offset="0%" stop-color="#9f6a34" />
    <stop offset="100%" stop-color="#603817" />
  </linearGradient>
  <linearGradient id="plains-d-front-face" x1="50%" y1="0%" x2="50%" y2="100%">
    <stop offset="0%" stop-color="#9f6a34" />
    <stop offset="100%" stop-color="#603817" />
  </linearGradient>
  <filter id="plains-d-platform-shadow" x="-20%" y="-20%" width="140%" height="190%">
    <feDropShadow dx="0" dy="22" stdDeviation="22" flood-color="#23361a" flood-opacity="0.42" />
  </filter>
  <filter id="plains-d-overhang-shadow" x="-30%" y="-30%" width="160%" height="220%">
    <feDropShadow dx="0" dy="30" stdDeviation="24" flood-color="#23361a" flood-opacity="0.5" />
  </filter>

</defs>
  <ellipse cx="640" cy="1676" rx="396" ry="70" fill="#23361a" opacity="0.18" />
  <g filter="url(#plains-d-platform-shadow)">
    <polygon points="85.7,1200 640,1520 640,1680 0,1360" fill="url(#plains-d-left-face)" opacity="0.98" />
    <polygon points="640,1520 1194.3,1200 1280,1360 640,1680" fill="url(#plains-d-right-face)" opacity="0.98" />
    <polygon points="224.3,1280 640,1520 1055.7,1280 1055.7,1440 640,1680 224.3,1440" fill="url(#plains-d-front-face)" opacity="0.94" />
  </g>
  <g clip-path="url(#plains-d-clip-top)">
    <polygon points="640,240 1194.3,560 1194.3,1200 640,1520 85.7,1200 85.7,560" fill="url(#plains-d-top-gradient)" />
    <ellipse cx="610.1" cy="763.3" rx="120.5" ry="31.3" fill="#3c5f28" opacity="0.068" transform="rotate(-18.4 610.1 763.3)" />
    <ellipse cx="600.5" cy="626.7" rx="79.7" ry="38.1" fill="#3c5f28" opacity="0.103" transform="rotate(-33.4 600.5 626.7)" />
    <ellipse cx="381" cy="1071.8" rx="130" ry="35.4" fill="#effbc6" opacity="0.112" transform="rotate(1.4 381 1071.8)" />
    <ellipse cx="328.4" cy="592.7" rx="58.9" ry="26.3" fill="#effbc6" opacity="0.113" transform="rotate(6.2 328.4 592.7)" />
    <ellipse cx="424.8" cy="1216.5" rx="93" ry="29.5" fill="#effbc6" opacity="0.079" transform="rotate(-1.1 424.8 1216.5)" />
    <ellipse cx="697.6" cy="1359.5" rx="58.9" ry="37.6" fill="#effbc6" opacity="0.093" transform="rotate(-5.3 697.6 1359.5)" />
    <ellipse cx="505.9" cy="734.9" rx="98.4" ry="31.6" fill="#3c5f28" opacity="0.076" transform="rotate(-7.8 505.9 734.9)" />
    <ellipse cx="643.3" cy="511.2" rx="116.3" ry="33.7" fill="#3c5f28" opacity="0.063" transform="rotate(-28.9 643.3 511.2)" />
    <ellipse cx="365.5" cy="1164.4" rx="63.4" ry="32.4" fill="#effbc6" opacity="0.073" transform="rotate(-19.9 365.5 1164.4)" />
    <ellipse cx="620.5" cy="1302.8" rx="59.2" ry="16.3" fill="#effbc6" opacity="0.117" transform="rotate(26.4 620.5 1302.8)" />
    <ellipse cx="301.2" cy="1036.4" rx="57.2" ry="24.6" fill="#effbc6" opacity="0.085" transform="rotate(24.8 301.2 1036.4)" />
    <ellipse cx="511.9" cy="1259.8" rx="63.9" ry="34.5" fill="#effbc6" opacity="0.094" transform="rotate(-3.3 511.9 1259.8)" />
    <circle cx="1109.6" cy="1162.1" r="9.3" fill="#3c5f28" opacity="0.157" />
    <circle cx="185.7" cy="1353.3" r="11.5" fill="#effbc6" opacity="0.177" />
    <circle cx="554.6" cy="1091.2" r="14" fill="#3c5f28" opacity="0.164" />
    <circle cx="1007.2" cy="1141.4" r="11" fill="#effbc6" opacity="0.098" />
    <circle cx="206.9" cy="512.9" r="7.3" fill="#3c5f28" opacity="0.14" />
    <circle cx="693.8" cy="877.8" r="15" fill="#3c5f28" opacity="0.114" />
    <circle cx="934.4" cy="1362.6" r="10.1" fill="#3c5f28" opacity="0.086" />
    <circle cx="501.5" cy="981.8" r="8.7" fill="#3c5f28" opacity="0.12" />
    <circle cx="446.7" cy="665.1" r="6.1" fill="#3c5f28" opacity="0.146" />
    <circle cx="959.7" cy="1009.8" r="13" fill="#effbc6" opacity="0.177" />
    <circle cx="806.8" cy="837" r="12" fill="#3c5f28" opacity="0.15" />
    <circle cx="188.3" cy="728.4" r="10.9" fill="#3c5f28" opacity="0.178" />
    <circle cx="237.6" cy="532.1" r="11.2" fill="#3c5f28" opacity="0.157" />
    <circle cx="611.9" cy="548" r="10.5" fill="#effbc6" opacity="0.144" />
    <circle cx="663" cy="903.1" r="8.1" fill="#3c5f28" opacity="0.16" />
    <circle cx="128.9" cy="1245.7" r="15.1" fill="#effbc6" opacity="0.103" />
    <ellipse cx="1056.7" cy="1009.2" rx="211.9" ry="94" fill="#5f9638" opacity="0.16" />
    <ellipse cx="777.9" cy="869.9" rx="212.5" ry="67.9" fill="#5f9638" opacity="0.16" />
    <ellipse cx="1064.4" cy="1178.5" rx="170.4" ry="83.5" fill="#5f9638" opacity="0.16" />
    <ellipse cx="362.8" cy="1068" rx="179.3" ry="76" fill="#5f9638" opacity="0.16" />
    <path d="M 644.1 582.2 L 636.1 550" fill="none" stroke="#3c5f28" stroke-opacity="0.34" stroke-width="6" stroke-linecap="round" />
    <path d="M 644.1 582.2 L 644.1 554.5" fill="none" stroke="#8dc853" stroke-opacity="0.56" stroke-width="6" stroke-linecap="round" />
    <path d="M 644.1 582.2 L 652.1 552.6" fill="none" stroke="#effbc6" stroke-opacity="0.38" stroke-width="5" stroke-linecap="round" />
    <path d="M 346.6 932.4 L 338.6 888.2" fill="none" stroke="#3c5f28" stroke-opacity="0.34" stroke-width="6" stroke-linecap="round" />
    <path d="M 346.6 932.4 L 346.6 894.4" fill="none" stroke="#8dc853" stroke-opacity="0.56" stroke-width="6" stroke-linecap="round" />
    <path d="M 346.6 932.4 L 354.6 891.7" fill="none" stroke="#effbc6" stroke-opacity="0.38" stroke-width="5" stroke-linecap="round" />
    <path d="M 837.5 782.7 L 829.5 733.5" fill="none" stroke="#3c5f28" stroke-opacity="0.34" stroke-width="6" stroke-linecap="round" />
    <path d="M 837.5 782.7 L 837.5 740.4" fill="none" stroke="#8dc853" stroke-opacity="0.56" stroke-width="6" stroke-linecap="round" />
    <path d="M 837.5 782.7 L 845.5 737.4" fill="none" stroke="#effbc6" stroke-opacity="0.38" stroke-width="5" stroke-linecap="round" />
    <path d="M 645.9 591.4 L 637.9 552.2" fill="none" stroke="#3c5f28" stroke-opacity="0.34" stroke-width="6" stroke-linecap="round" />
    <path d="M 645.9 591.4 L 645.9 557.7" fill="none" stroke="#8dc853" stroke-opacity="0.56" stroke-width="6" stroke-linecap="round" />
    <path d="M 645.9 591.4 L 653.9 555.3" fill="none" stroke="#effbc6" stroke-opacity="0.38" stroke-width="5" stroke-linecap="round" />
    <path d="M 960.6 571.9 L 952.6 520.6" fill="none" stroke="#3c5f28" stroke-opacity="0.34" stroke-width="6" stroke-linecap="round" />
    <path d="M 960.6 571.9 L 960.6 527.8" fill="none" stroke="#8dc853" stroke-opacity="0.56" stroke-width="6" stroke-linecap="round" />
    <path d="M 960.6 571.9 L 968.6 524.7" fill="none" stroke="#effbc6" stroke-opacity="0.38" stroke-width="5" stroke-linecap="round" />
    <path d="M 217.2 756.5 L 209.2 699" fill="none" stroke="#3c5f28" stroke-opacity="0.34" stroke-width="6" stroke-linecap="round" />
    <path d="M 217.2 756.5 L 217.2 707.1" fill="none" stroke="#8dc853" stroke-opacity="0.56" stroke-width="6" stroke-linecap="round" />
    <path d="M 217.2 756.5 L 225.2 703.6" fill="none" stroke="#effbc6" stroke-opacity="0.38" stroke-width="5" stroke-linecap="round" />
    <path d="M 717.1 630.3 L 709.1 571.1" fill="none" stroke="#3c5f28" stroke-opacity="0.34" stroke-width="6" stroke-linecap="round" />
    <path d="M 717.1 630.3 L 717.1 579.4" fill="none" stroke="#8dc853" stroke-opacity="0.56" stroke-width="6" stroke-linecap="round" />
    <path d="M 717.1 630.3 L 725.1 575.8" fill="none" stroke="#effbc6" stroke-opacity="0.38" stroke-width="5" stroke-linecap="round" />
    <path d="M 638.3 1068.7 L 630.3 1014.3" fill="none" stroke="#3c5f28" stroke-opacity="0.34" stroke-width="6" stroke-linecap="round" />
    <path d="M 638.3 1068.7 L 638.3 1021.9" fill="none" stroke="#8dc853" stroke-opacity="0.56" stroke-width="6" stroke-linecap="round" />
    <path d="M 638.3 1068.7 L 646.3 1018.7" fill="none" stroke="#effbc6" stroke-opacity="0.38" stroke-width="5" stroke-linecap="round" />
    <path d="M 360.2 863.9 L 352.2 823.6" fill="none" stroke="#3c5f28" stroke-opacity="0.34" stroke-width="6" stroke-linecap="round" />
    <path d="M 360.2 863.9 L 360.2 829.2" fill="none" stroke="#8dc853" stroke-opacity="0.56" stroke-width="6" stroke-linecap="round" />
    <path d="M 360.2 863.9 L 368.2 826.8" fill="none" stroke="#effbc6" stroke-opacity="0.38" stroke-width="5" stroke-linecap="round" />
    <path d="M 512.7 718.3 L 504.7 664.3" fill="none" stroke="#3c5f28" stroke-opacity="0.34" stroke-width="6" stroke-linecap="round" />
    <path d="M 512.7 718.3 L 512.7 671.9" fill="none" stroke="#8dc853" stroke-opacity="0.56" stroke-width="6" stroke-linecap="round" />
    <path d="M 512.7 718.3 L 520.7 668.6" fill="none" stroke="#effbc6" stroke-opacity="0.38" stroke-width="5" stroke-linecap="round" />
    <path d="M 1071.2 1284.5 L 1063.2 1225.2" fill="none" stroke="#3c5f28" stroke-opacity="0.34" stroke-width="6" stroke-linecap="round" />
    <path d="M 1071.2 1284.5 L 1071.2 1233.5" fill="none" stroke="#8dc853" stroke-opacity="0.56" stroke-width="6" stroke-linecap="round" />
    <path d="M 1071.2 1284.5 L 1079.2 1229.9" fill="none" stroke="#effbc6" stroke-opacity="0.38" stroke-width="5" stroke-linecap="round" />
    <path d="M 312.9 782.3 L 304.9 734.1" fill="none" stroke="#3c5f28" stroke-opacity="0.34" stroke-width="6" stroke-linecap="round" />
    <path d="M 312.9 782.3 L 312.9 740.8" fill="none" stroke="#8dc853" stroke-opacity="0.56" stroke-width="6" stroke-linecap="round" />
    <path d="M 312.9 782.3 L 320.9 738" fill="none" stroke="#effbc6" stroke-opacity="0.38" stroke-width="5" stroke-linecap="round" />
    <path d="M 758.7 1157.1 L 750.7 1111" fill="none" stroke="#3c5f28" stroke-opacity="0.34" stroke-width="6" stroke-linecap="round" />
    <path d="M 758.7 1157.1 L 758.7 1117.5" fill="none" stroke="#8dc853" stroke-opacity="0.56" stroke-width="6" stroke-linecap="round" />
    <path d="M 758.7 1157.1 L 766.7 1114.7" fill="none" stroke="#effbc6" stroke-opacity="0.38" stroke-width="5" stroke-linecap="round" />
    <path d="M 1147.5 664.1 L 1139.5 625.1" fill="none" stroke="#3c5f28" stroke-opacity="0.34" stroke-width="6" stroke-linecap="round" />
    <path d="M 1147.5 664.1 L 1147.5 630.6" fill="none" stroke="#8dc853" stroke-opacity="0.56" stroke-width="6" stroke-linecap="round" />
    <path d="M 1147.5 664.1 L 1155.5 628.2" fill="none" stroke="#effbc6" stroke-opacity="0.38" stroke-width="5" stroke-linecap="round" />
    <path d="M 596.1 971.7 L 588.1 927.3" fill="none" stroke="#3c5f28" stroke-opacity="0.34" stroke-width="6" stroke-linecap="round" />
    <path d="M 596.1 971.7 L 596.1 933.5" fill="none" stroke="#8dc853" stroke-opacity="0.56" stroke-width="6" stroke-linecap="round" />
    <path d="M 596.1 971.7 L 604.1 930.9" fill="none" stroke="#effbc6" stroke-opacity="0.38" stroke-width="5" stroke-linecap="round" />
    <path d="M 374.4 954.1 L 366.4 905.8" fill="none" stroke="#3c5f28" stroke-opacity="0.34" stroke-width="6" stroke-linecap="round" />
    <path d="M 374.4 954.1 L 374.4 912.6" fill="none" stroke="#8dc853" stroke-opacity="0.56" stroke-width="6" stroke-linecap="round" />
    <path d="M 374.4 954.1 L 382.4 909.7" fill="none" stroke="#effbc6" stroke-opacity="0.38" stroke-width="5" stroke-linecap="round" />
    <path d="M 160.4 731.2 L 152.4 667.2" fill="none" stroke="#3c5f28" stroke-opacity="0.34" stroke-width="6" stroke-linecap="round" />
    <path d="M 160.4 731.2 L 160.4 676.2" fill="none" stroke="#8dc853" stroke-opacity="0.56" stroke-width="6" stroke-linecap="round" />
    <path d="M 160.4 731.2 L 168.4 672.3" fill="none" stroke="#effbc6" stroke-opacity="0.38" stroke-width="5" stroke-linecap="round" />
    <path d="M 813.4 589.6 L 805.4 555.2" fill="none" stroke="#3c5f28" stroke-opacity="0.34" stroke-width="6" stroke-linecap="round" />
    <path d="M 813.4 589.6 L 813.4 560" fill="none" stroke="#8dc853" stroke-opacity="0.56" stroke-width="6" stroke-linecap="round" />
    <path d="M 813.4 589.6 L 821.4 558" fill="none" stroke="#effbc6" stroke-opacity="0.38" stroke-width="5" stroke-linecap="round" />
    <path d="M 71.5 979.9 Q 640 938.2 1116.4 979.9" fill="none" stroke="#f4fbcc" stroke-opacity="0.051" stroke-width="22" stroke-linecap="round" />
    <path d="M 77 630.6 Q 640 573.4 1062.2 630.6" fill="none" stroke="#f4fbcc" stroke-opacity="0.071" stroke-width="22" stroke-linecap="round" />
    <path d="M 210.7 1069.2 Q 640 1012.5 1084.3 1069.2" fill="none" stroke="#f4fbcc" stroke-opacity="0.086" stroke-width="22" stroke-linecap="round" />
    <path d="M 96.9 891.5 Q 640 818.6 1108.8 891.5" fill="none" stroke="#f4fbcc" stroke-opacity="0.099" stroke-width="22" stroke-linecap="round" />
  </g>
  <g filter="url(#plains-d-overhang-shadow)">
    <path d="M 247.2 741.5 C 237.2 679.9 257.2 611.5 247.2 570.4" fill="none" stroke="#3c5f28" stroke-width="16" stroke-linecap="round" opacity="0.72" />
    <circle cx="247.2" cy="570.4" r="60.9" fill="#5f9638" />
    <circle cx="214.3" cy="581.4" r="41.4" fill="#8dc853" />
    <circle cx="278.9" cy="583.8" r="35.3" fill="#effbc6" opacity="0.9" />
    <path d="M 307.1 796.4317113244906 C 297.1 747.4 317.1 692.8 307.1 660.1" fill="none" stroke="#3c5f28" stroke-width="16" stroke-linecap="round" opacity="0.72" />
    <circle cx="307.1" cy="660.1" r="51" fill="#5f9638" />
    <circle cx="279.6" cy="669.3" r="34.7" fill="#8dc853" />
    <circle cx="333.6" cy="671.3" r="29.6" fill="#effbc6" opacity="0.9" />
    <path d="M 552.6 740.2 C 542.6 662.9 562.6 577 552.6 525.4" fill="none" stroke="#3c5f28" stroke-width="16" stroke-linecap="round" opacity="0.72" />
    <circle cx="552.6" cy="525.4" r="70.1" fill="#5f9638" />
    <circle cx="514.7" cy="538" r="47.7" fill="#8dc853" />
    <circle cx="589.1" cy="540.8" r="40.7" fill="#effbc6" opacity="0.9" />
    <path d="M 628.1 793.9017913581804 C 618.1 732.2 638.1 663.7 628.1 622.6" fill="none" stroke="#3c5f28" stroke-width="16" stroke-linecap="round" opacity="0.72" />
    <circle cx="628.1" cy="622.6" r="50.5" fill="#5f9638" />
    <circle cx="600.8" cy="631.7" r="34.3" fill="#8dc853" />
    <circle cx="654.4" cy="633.7" r="29.3" fill="#effbc6" opacity="0.9" />
    <path d="M 838.8 595.1 C 828.8 524.6 848.8 446.3 838.8 399.3" fill="none" stroke="#3c5f28" stroke-width="16" stroke-linecap="round" opacity="0.72" />
    <circle cx="838.8" cy="399.3" r="60.9" fill="#5f9638" />
    <circle cx="805.9" cy="410.3" r="41.4" fill="#8dc853" />
    <circle cx="870.5" cy="412.7" r="35.3" fill="#effbc6" opacity="0.9" />
    <path d="M 925.9 645.10232901657 C 915.9 591.7 935.9 532.3 925.9 496.7" fill="none" stroke="#3c5f28" stroke-width="16" stroke-linecap="round" opacity="0.72" />
    <circle cx="925.9" cy="496.7" r="47.5" fill="#5f9638" />
    <circle cx="900.3" cy="505.3" r="32.3" fill="#8dc853" />
    <circle cx="950.6" cy="507.2" r="27.6" fill="#effbc6" opacity="0.9" />
  </g>
  <polygon points="640,240 1194.3,560 1194.3,1200 640,1520 85.7,1200 85.7,560" fill="none" stroke="#3c5f28" stroke-opacity="0.16" stroke-width="10" />
  <path d="M96 1236 Q640 1560 1184 1236" fill="none" stroke="#f4fbcc" stroke-opacity="0.16" stroke-width="18" />
  <path d="M160 1216 Q640 1468 1120 1216" fill="none" stroke="#23361a" stroke-opacity="0.14" stroke-width="10" />
</svg>
