<svg xmlns="http://www.w3.org/2000/svg" viewBox="0 0 1280 1760" width="1280" height="1760">
<defs>
  <clipPath id="rift-c-clip-top">
    <polygon points="640,240 1194.3,560 1194.3,1200 640,1520 85.7,1200 85.7,560" />
  </clipPath>
  <linearGradient id="rift-c-top-gradient" x1="0%" y1="0%" x2="100%" y2="100%">
    <stop offset="0%" stop-color="#7e8b98" />
    <stop offset="58%" stop-color="#46525f" />
    <stop offset="100%" stop-color="#222831" />
  </linearGradient>
  <linearGradient id="rift-c-left-face" x1="0%" y1="0%" x2="100%" y2="100%">
    <stop offset="0%" stop-color="#7b3324" />
    <stop offset="100%" stop-color="#3b0f11" />
  </linearGradient>
  <linearGradient id="rift-c-right-face" x1="100%" y1="0%" x2="0%" y2="100%">
    <stop offset="0%" stop-color="#7b3324" />
    <stop offset="100%" stop-color="#3b0f11" />
  </linearGradient>
  <linearGradient id="rift-c-front-face" x1="50%" y1="0%" x2="50%" y2="100%">
    <stop offset="0%" stop-color="#7b3324" />
    <stop offset="100%" stop-color="#3b0f11" />
  </linearGradient>
  <filter id="rift-c-platform-shadow" x="-20%" y="-20%" width="140%" height="190%">
    <feDropShadow dx="0" dy="22" stdDeviation="22" flood-color="#08090c" flood-opacity="0.42" />
  </filter>
  <filter id="rift-c-overhang-shadow" x="-30%" y="-30%" width="160%" height="220%">
    <feDropShadow dx="0" dy="30" stdDeviation="24" flood-color="#08090c" flood-opacity="0.5" />
  </filter>

</defs>
  <ellipse cx="640" cy="1676" rx="396" ry="70" fill="#08090c" opacity="0.18" />
  <g filter="url(#rift-c-platform-shadow)">
    <polygon points="85.7,1200 640,1520 640,1680 0,1360" fill="url(#rift-c-left-face)" opacity="0.98" />
    <polygon points="640,1520 1194.3,1200 1280,1360 640,1680" fill="url(#rift-c-right-face)" opacity="0.98" />
    <polygon points="224.3,1280 640,1520 1055.7,1280 1055.7,1440 640,1680 224.3,1440" fill="url(#rift-c-front-face)" opacity="0.94" />
  </g>
  <g clip-path="url(#rift-c-clip-top)">
    <polygon points="640,240 1194.3,560 1194.3,1200 640,1520 85.7,1200 85.7,560" fill="url(#rift-c-top-gradient)" />
    <ellipse cx="1064.5" cy="545.6" rx="134.3" ry="27.9" fill="#ff9b5b" opacity="0.082" transform="rotate(10.9 1064.5 545.6)" />
    <ellipse cx="171.7" cy="641.8" rx="112.3" ry="28.8" fill="#ff9b5b" opacity="0.064" transform="rotate(21.9 171.7 641.8)" />
    <ellipse cx="1020.8" cy="1035" rx="103.2" ry="23.8" fill="#0f1218" opacity="0.073" transform="rotate(-9.9 1020.8 1035)" />
    <ellipse cx="530.6" cy="851.5" rx="126.5" ry="25.8" fill="#ff9b5b" opacity="0.054" transform="rotate(22.4 530.6 851.5)" />
    <ellipse cx="682.4" cy="948.7" rx="56.6" ry="30.7" fill="#0f1218" opacity="0.115" transform="rotate(8.1 682.4 948.7)" />
    <ellipse cx="411" cy="484.2" rx="79.6" ry="36.4" fill="#0f1218" opacity="0.077" transform="rotate(-0.7 411 484.2)" />
    <ellipse cx="779.3" cy="505.2" rx="129.6" ry="41.4" fill="#ff9b5b" opacity="0.042" transform="rotate(-5.1 779.3 505.2)" />
    <ellipse cx="520.8" cy="1026.8" rx="124.5" ry="32" fill="#0f1218" opacity="0.103" transform="rotate(14.7 520.8 1026.8)" />
    <ellipse cx="616.8" cy="1116.8" rx="95.8" ry="34.5" fill="#0f1218" opacity="0.042" transform="rotate(1.3 616.8 1116.8)" />
    <ellipse cx="255.1" cy="1046.4" rx="82" ry="26.7" fill="#0f1218" opacity="0.08" transform="rotate(-33.3 255.1 1046.4)" />
    <ellipse cx="188.5" cy="489" rx="142.2" ry="21.8" fill="#0f1218" opacity="0.116" transform="rotate(5.1 188.5 489)" />
    <ellipse cx="170.9" cy="731" rx="130.2" ry="36.8" fill="#0f1218" opacity="0.066" transform="rotate(1.9 170.9 731)" />
    <circle cx="393.9" cy="609.4" r="7" fill="#0f1218" opacity="0.169" />
    <circle cx="781.4" cy="1241.2" r="14.7" fill="#0f1218" opacity="0.135" />
    <circle cx="372.1" cy="1365.2" r="13.6" fill="#0f1218" opacity="0.121" />
    <circle cx="1072.1" cy="626.7" r="9.4" fill="#0f1218" opacity="0.112" />
    <circle cx="440.7" cy="644.3" r="12.9" fill="#ff9b5b" opacity="0.173" />
    <circle cx="793.1" cy="1147.8" r="12.1" fill="#0f1218" opacity="0.167" />
    <circle cx="166.8" cy="744.6" r="12.8" fill="#ff9b5b" opacity="0.167" />
    <circle cx="273.1" cy="869.4" r="10.8" fill="#ff9b5b" opacity="0.101" />
    <circle cx="1169.1" cy="777.6" r="6.2" fill="#0f1218" opacity="0.083" />
    <circle cx="1125.4" cy="1300.7" r="12.7" fill="#0f1218" opacity="0.177" />
    <circle cx="450.2" cy="822" r="13.8" fill="#0f1218" opacity="0.11" />
    <circle cx="1127.4" cy="1189.9" r="10.7" fill="#ff9b5b" opacity="0.151" />
    <circle cx="691.4" cy="822.7" r="11" fill="#ff9b5b" opacity="0.087" />
    <circle cx="130.9" cy="1278.1" r="14" fill="#0f1218" opacity="0.111" />
    <circle cx="1154" cy="983.6" r="8.5" fill="#0f1218" opacity="0.16" />
    <circle cx="179.7" cy="502.4" r="12.1" fill="#ff9b5b" opacity="0.106" />
    <path d="M 140 920 Q 320 760 468 806 T 786 730 T 1140 884" fill="none" stroke="#f97316" stroke-opacity="0.54" stroke-width="58" stroke-linecap="round" />
    <path d="M 140 920 Q 320 760 468 806 T 786 730 T 1140 884" fill="none" stroke="#0f1218" stroke-width="28" stroke-linecap="round" />
    <circle cx="256.7" cy="1059.1" r="39.9" fill="#f97316" opacity="0.131" />
    <circle cx="866.9" cy="709.8" r="38.7" fill="#f97316" opacity="0.138" />
    <circle cx="307.3" cy="768.2" r="19.6" fill="#f97316" opacity="0.158" />
    <circle cx="201.4" cy="1021.5" r="22.4" fill="#f97316" opacity="0.143" />
    <circle cx="465.1" cy="1189.2" r="30" fill="#f97316" opacity="0.16" />
    <circle cx="421.6" cy="969.7" r="24.7" fill="#f97316" opacity="0.101" />
    <circle cx="305.6" cy="1031.1" r="18.7" fill="#f97316" opacity="0.09" />
    <path d="M 179.1 1047.8 Q 640 991.2 1171.8 1047.8" fill="none" stroke="#f97316" stroke-opacity="0.054" stroke-width="22" stroke-linecap="round" />
    <path d="M 161.1 777.6 Q 640 729.2 1073.4 777.6" fill="none" stroke="#f97316" stroke-opacity="0.082" stroke-width="22" stroke-linecap="round" />
    <path d="M 79.2 1162 Q 640 1090.1 1127 1162" fill="none" stroke="#f97316" stroke-opacity="0.055" stroke-width="22" stroke-linecap="round" />
    <path d="M 169.8 872.6 Q 640 799.5 1102.7 872.6" fill="none" stroke="#f97316" stroke-opacity="0.083" stroke-width="22" stroke-linecap="round" />
  </g>
  <g filter="url(#rift-c-overhang-shadow)">
    <polygon points="130.6,784.2 213.4,390 296.2,784.2 233.3,665.9 188.6,713.2" fill="#222831" />
    <polygon points="213.4,390 231.6,681.7 196.8,721.1" fill="#ff9b5b" opacity="0.92" />
    <polygon points="205.1,516.1 241.6,713.2 211.7,760.5" fill="#f97316" opacity="0.64" />
    <polygon points="282.3,531.4 361.2,258.9 440.1,531.4 380.1,449.7 337.5,482.4" fill="#222831" />
    <polygon points="361.2,258.9 378.6,460.6 345.4,487.8" fill="#ff9b5b" opacity="0.92" />
    <polygon points="353.3,346.1 388,482.4 359.6,515.1" fill="#f97316" opacity="0.64" />
    <polygon points="464.8,840.3 555.6,581.8 646.4,840.3 577.4,762.8 528.4,793.8" fill="#222831" />
    <polygon points="555.6,581.8 575.6,773.1 537.4,798.9" fill="#ff9b5b" opacity="0.92" />
    <polygon points="546.5,664.5 586.5,793.8 553.8,824.8" fill="#f97316" opacity="0.64" />
    <polygon points="664.5,821.7 745.9,539.7 827.3,821.7 765.4,737.1 721.5,770.9" fill="#222831" />
    <polygon points="745.9,539.7 763.8,748.4 729.6,776.6" fill="#ff9b5b" opacity="0.92" />
    <polygon points="737.8,629.9 773.6,770.9 744.3,804.8" fill="#f97316" opacity="0.64" />
    <polygon points="840.4,660.1 942.7,297 1045,660.1 967.3,551.2 912,594.7" fill="#222831" />
    <polygon points="942.7,297 965.2,565.7 922.2,602" fill="#ff9b5b" opacity="0.92" />
    <polygon points="932.5,413.2 977.5,594.7 940.7,638.3" fill="#f97316" opacity="0.64" />
  </g>
  <polygon points="640,240 1194.3,560 1194.3,1200 640,1520 85.7,1200 85.7,560" fill="none" stroke="#0f1218" stroke-opacity="0.16" stroke-width="10" />
  <path d="M96 1236 Q640 1560 1184 1236" fill="none" stroke="#f97316" stroke-opacity="0.16" stroke-width="18" />
  <path d="M160 1216 Q640 1468 1120 1216" fill="none" stroke="#08090c" stroke-opacity="0.14" stroke-width="10" />
</svg>
