<svg xmlns="http://www.w3.org/2000/svg" viewBox="0 0 1280 1760" width="1280" height="1760">
<defs>
  <clipPath id="rift-d-clip-top">
    <polygon points="640,240 1194.3,560 1194.3,1200 640,1520 85.7,1200 85.7,560" />
  </clipPath>
  <linearGradient id="rift-d-top-gradient" x1="0%" y1="0%" x2="100%" y2="100%">
    <stop offset="0%" stop-color="#7e8b98" />
    <stop offset="58%" stop-color="#46525f" />
    <stop offset="100%" stop-color="#222831" />
  </linearGradient>
  <linearGradient id="rift-d-left-face" x1="0%" y1="0%" x2="100%" y2="100%">
    <stop offset="0%" stop-color="#7b3324" />
    <stop offset="100%" stop-color="#3b0f11" />
  </linearGradient>
  <linearGradient id="rift-d-right-face" x1="100%" y1="0%" x2="0%" y2="100%">
    <stop offset="0%" stop-color="#7b3324" />
    <stop offset="100%" stop-color="#3b0f11" />
  </linearGradient>
  <linearGradient id="rift-d-front-face" x1="50%" y1="0%" x2="50%" y2="100%">
    <stop offset="0%" stop-color="#7b3324" />
    <stop offset="100%" stop-color="#3b0f11" />
  </linearGradient>
  <filter id="rift-d-platform-shadow" x="-20%" y="-20%" width="140%" height="190%">
    <feDropShadow dx="0" dy="22" stdDeviation="22" flood-color="#08090c" flood-opacity="0.42" />
  </filter>
  <filter id="rift-d-overhang-shadow" x="-30%" y="-30%" width="160%" height="220%">
    <feDropShadow dx="0" dy="30" stdDeviation="24" flood-color="#08090c" flood-opacity="0.5" />
  </filter>

</defs>
  <ellipse cx="640" cy="1676" rx="396" ry="70" fill="#08090c" opacity="0.18" />
  <g filter="url(#rift-d-platform-shadow)">
    <polygon points="85.7,1200 640,1520 640,1680 0,1360" fill="url(#rift-d-left-face)" opacity="0.98" />
    <polygon points="640,1520 1194.3,1200 1280,1360 640,1680" fill="url(#rift-d-right-face)" opacity="0.98" />
    <polygon points="224.3,1280 640,1520 1055.7,1280 1055.7,1440 640,1680 224.3,1440" fill="url(#rift-d-front-face)" opacity="0.94" />
  </g>
  <g clip-path="url(#rift-d-clip-top)">
    <polygon points="640,240 1194.3,560 1194.3,1200 640,1520 85.7,1200 85.7,560" fill="url(#rift-d-top-gradient)" />
    <ellipse cx="241.3" cy="1163.8" rx="94.3" ry="26.8" fill="#0f1218" opacity="0.105" transform="rotate(-3.2 241.3 1163.8)" />
    <ellipse cx="909" cy="810.6" rx="88.9" ry="18.1" fill="#0f1218" opacity="0.061" transform="rotate(16.6 909 810.6)" />
    <ellipse cx="1132" cy="489.2" rx="140.9" ry="40.1" fill="#ff9b5b" opacity="0.058" transform="rotate(25 1132 489.2)" />
    <ellipse cx="877" cy="520.3" rx="125.4" ry="21.8" fill="#ff9b5b" opacity="0.042" transform="rotate(8.5 877 520.3)" />
    <ellipse cx="519.7" cy="1095.5" rx="134.7" ry="23.5" fill="#ff9b5b" opacity="0.118" transform="rotate(-13.1 519.7 1095.5)" />
    <ellipse cx="1113.2" cy="965.4" rx="74" ry="34.3" fill="#ff9b5b" opacity="0.098" transform="rotate(3.6 1113.2 965.4)" />
    <ellipse cx="837.4" cy="981.8" rx="87.1" ry="33.2" fill="#ff9b5b" opacity="0.054" transform="rotate(22.4 837.4 981.8)" />
    <ellipse cx="1093.4" cy="1155.3" rx="113.6" ry="16.3" fill="#ff9b5b" opacity="0.093" transform="rotate(15.6 1093.4 1155.3)" />
    <ellipse cx="639.8" cy="859.1" rx="136.7" ry="31.2" fill="#ff9b5b" opacity="0.053" transform="rotate(-31.3 639.8 859.1)" />
    <ellipse cx="695" cy="1083.6" rx="87.5" ry="19.1" fill="#0f1218" opacity="0.069" transform="rotate(-26.6 695 1083.6)" />
    <ellipse cx="998.9" cy="789.8" rx="104.4" ry="26.9" fill="#0f1218" opacity="0.116" transform="rotate(-9.1 998.9 789.8)" />
    <ellipse cx="1125" cy="1322.2" rx="83.8" ry="33.9" fill="#ff9b5b" opacity="0.059" transform="rotate(-26 1125 1322.2)" />
    <circle cx="205.5" cy="1136.9" r="8.8" fill="#0f1218" opacity="0.169" />
    <circle cx="1021.6" cy="942.1" r="13.6" fill="#0f1218" opacity="0.172" />
    <circle cx="297.9" cy="1309.2" r="9.8" fill="#0f1218" opacity="0.153" />
    <circle cx="562" cy="1396.4" r="7.7" fill="#0f1218" opacity="0.102" />
    <circle cx="118.7" cy="1227.1" r="7.9" fill="#ff9b5b" opacity="0.159" />
    <circle cx="240.5" cy="540.3" r="7.8" fill="#0f1218" opacity="0.083" />
    <circle cx="788.1" cy="1330.5" r="10.8" fill="#0f1218" opacity="0.081" />
    <circle cx="964.7" cy="559.5" r="6.7" fill="#0f1218" opacity="0.133" />
    <circle cx="992.2" cy="878.2" r="14.2" fill="#ff9b5b" opacity="0.179" />
    <circle cx="549.8" cy="745.6" r="7.3" fill="#ff9b5b" opacity="0.174" />
    <circle cx="1086.3" cy="816.4" r="14.5" fill="#0f1218" opacity="0.157" />
    <circle cx="1093.7" cy="755.3" r="12.1" fill="#ff9b5b" opacity="0.177" />
    <circle cx="702.6" cy="1071.1" r="11.4" fill="#0f1218" opacity="0.119" />
    <circle cx="936.3" cy="831.1" r="14" fill="#ff9b5b" opacity="0.177" />
    <circle cx="1049.2" cy="743.3" r="15" fill="#0f1218" opacity="0.172" />
    <circle cx="348.4" cy="1159.5" r="15" fill="#0f1218" opacity="0.086" />
    <path d="M 140 920 Q 320 760 468 806 T 786 730 T 1140 884" fill="none" stroke="#f97316" stroke-opacity="0.54" stroke-width="58" stroke-linecap="round" />
    <path d="M 140 920 Q 320 760 468 806 T 786 730 T 1140 884" fill="none" stroke="#0f1218" stroke-width="28" stroke-linecap="round" />
    <circle cx="845.9" cy="1081" r="16.8" fill="#f97316" opacity="0.132" />
    <circle cx="591.3" cy="1227.2" r="26.9" fill="#f97316" opacity="0.125" />
    <circle cx="433" cy="673.6" r="22.1" fill="#f97316" opacity="0.1" />
    <circle cx="614.1" cy="1062.7" r="27.6" fill="#f97316" opacity="0.134" />
    <circle cx="264.7" cy="633.6" r="30.5" fill="#f97316" opacity="0.16" />
    <circle cx="1135.8" cy="974.4" r="37.1" fill="#f97316" opacity="0.154" />
    <circle cx="934.8" cy="921" r="38.1" fill="#f97316" opacity="0.164" />
    <path d="M 202.9 1112.3 Q 640 1030.4 1176.2 1112.3" fill="none" stroke="#f97316" stroke-opacity="0.084" stroke-width="22" stroke-linecap="round" />
    <path d="M 121.9 907.5 Q 640 846.3 1100 907.5" fill="none" stroke="#f97316" stroke-opacity="0.064" stroke-width="22" stroke-linecap="round" />
    <path d="M 215.4 603.8 Q 640 568.3 1074.4 603.8" fill="none" stroke="#f97316" stroke-opacity="0.072" stroke-width="22" stroke-linecap="round" />
    <path d="M 184 1160.1 Q 640 1084.7 1141.2 1160.1" fill="none" stroke="#f97316" stroke-opacity="0.08" stroke-width="22" stroke-linecap="round" />
  </g>
  <g filter="url(#rift-d-overhang-shadow)">
    <polygon points="140.9,633.1 210.7,347 280.5,633.1 227.5,547.3 189.8,581.6" fill="#222831" />
    <polygon points="210.7,347 226.1,558.7 196.7,587.3" fill="#ff9b5b" opacity="0.92" />
    <polygon points="203.7,438.6 234.4,581.6 209.3,615.9" fill="#f97316" opacity="0.64" />
    <polygon points="285.6,737.2 349.6,398.7 413.6,737.2 365,635.7 330.4,676.3" fill="#222831" />
    <polygon points="349.6,398.7 363.7,649.2 336.8,683" fill="#ff9b5b" opacity="0.92" />
    <polygon points="343.2,507 371.4,676.3 348.3,716.9" fill="#f97316" opacity="0.64" />
    <polygon points="485.9,547.1 574.7,161.5 663.5,547.1 596,431.4 548.1,477.7" fill="#222831" />
    <polygon points="574.7,161.5 594.2,446.8 556.9,485.4" fill="#ff9b5b" opacity="0.92" />
    <polygon points="565.8,284.9 604.9,477.7 572.9,524" fill="#f97316" opacity="0.64" />
    <polygon points="729.1,831.9 806.4,565.6 883.7,831.9 825,752 783.2,784" fill="#222831" />
    <polygon points="806.4,565.6 823.4,762.7 790.9,789.3" fill="#ff9b5b" opacity="0.92" />
    <polygon points="798.7,650.8 832.7,784 804.9,815.9" fill="#f97316" opacity="0.64" />
    <polygon points="873.5,683.6 956.2,421.9 1038.9,683.6 976,605.1 931.4,636.5" fill="#222831" />
    <polygon points="956.2,421.9 974.4,615.6 939.7,641.7" fill="#ff9b5b" opacity="0.92" />
    <polygon points="947.9,505.6 984.3,636.5 954.5,667.9" fill="#f97316" opacity="0.64" />
  </g>
  <polygon points="640,240 1194.3,560 1194.3,1200 640,1520 85.7,1200 85.7,560" fill="none" stroke="#0f1218" stroke-opacity="0.16" stroke-width="10" />
  <path d="M96 1236 Q640 1560 1184 1236" fill="none" stroke="#f97316" stroke-opacity="0.16" stroke-width="18" />
  <path d="M160 1216 Q640 1468 1120 1216" fill="none" stroke="#08090c" stroke-opacity="0.14" stroke-width="10" />
</svg>
