<svg xmlns="http://www.w3.org/2000/svg" viewBox="0 0 1280 1760" width="1280" height="1760">
<defs>
  <clipPath id="swamp-a-clip-top">
    <polygon points="640,240 1194.3,560 1194.3,1200 640,1520 85.7,1200 85.7,560" />
  </clipPath>
  <linearGradient id="swamp-a-top-gradient" x1="0%" y1="0%" x2="100%" y2="100%">
    <stop offset="0%" stop-color="#94b865" />
    <stop offset="58%" stop-color="#567b41" />
    <stop offset="100%" stop-color="#2a4b2c" />
  </linearGradient>
  <linearGradient id="swamp-a-left-face" x1="0%" y1="0%" x2="100%" y2="100%">
    <stop offset="0%" stop-color="#7d5431" />
    <stop offset="100%" stop-color="#4b2d19" />
  </linearGradient>
  <linearGradient id="swamp-a-right-face" x1="100%" y1="0%" x2="0%" y2="100%">
    <stop offset="0%" stop-color="#7d5431" />
    <stop offset="100%" stop-color="#4b2d19" />
  </linearGradient>
  <linearGradient id="swamp-a-front-face" x1="50%" y1="0%" x2="50%" y2="100%">
    <stop offset="0%" stop-color="#7d5431" />
    <stop offset="100%" stop-color="#4b2d19" />
  </linearGradient>
  <filter id="swamp-a-platform-shadow" x="-20%" y="-20%" width="140%" height="190%">
    <feDropShadow dx="0" dy="22" stdDeviation="22" flood-color="#122117" flood-opacity="0.42" />
  </filter>
  <filter id="swamp-a-overhang-shadow" x="-30%" y="-30%" width="160%" height="220%">
    <feDropShadow dx="0" dy="30" stdDeviation="24" flood-color="#122117" flood-opacity="0.5" />
  </filter>

</defs>
  <ellipse cx="640" cy="1676" rx="396" ry="70" fill="#122117" opacity="0.18" />
  <g filter="url(#swamp-a-platform-shadow)">
    <polygon points="85.7,1200 640,1520 640,1680 0,1360" fill="url(#swamp-a-left-face)" opacity="0.98" />
    <polygon points="640,1520 1194.3,1200 1280,1360 640,1680" fill="url(#swamp-a-right-face)" opacity="0.98" />
    <polygon points="224.3,1280 640,1520 1055.7,1280 1055.7,1440 640,1680 224.3,1440" fill="url(#swamp-a-front-face)" opacity="0.94" />
  </g>
  <g clip-path="url(#swamp-a-clip-top)">
    <polygon points="640,240 1194.3,560 1194.3,1200 640,1520 85.7,1200 85.7,560" fill="url(#swamp-a-top-gradient)" />
    <ellipse cx="919.9" cy="587.6" rx="92.8" ry="17.7" fill="#18311d" opacity="0.097" transform="rotate(-4.1 919.9 587.6)" />
    <ellipse cx="934.1" cy="549.6" rx="73.9" ry="17.9" fill="#18311d" opacity="0.056" transform="rotate(23.2 934.1 549.6)" />
    <ellipse cx="437.1" cy="1221.5" rx="65.3" ry="21.6" fill="#dff4ba" opacity="0.117" transform="rotate(13.3 437.1 1221.5)" />
    <ellipse cx="935.5" cy="894.1" rx="94.8" ry="35.7" fill="#dff4ba" opacity="0.061" transform="rotate(29.3 935.5 894.1)" />
    <ellipse cx="514.1" cy="1034.2" rx="132.6" ry="16.9" fill="#18311d" opacity="0.113" transform="rotate(6.8 514.1 1034.2)" />
    <ellipse cx="531.8" cy="1324" rx="119" ry="20.9" fill="#dff4ba" opacity="0.091" transform="rotate(-14.9 531.8 1324)" />
    <ellipse cx="572.3" cy="777.3" rx="93.4" ry="21.5" fill="#dff4ba" opacity="0.048" transform="rotate(22.9 572.3 777.3)" />
    <ellipse cx="160.9" cy="905.1" rx="61.1" ry="35.8" fill="#dff4ba" opacity="0.083" transform="rotate(11.6 160.9 905.1)" />
    <ellipse cx="549" cy="701.5" rx="136.5" ry="29.2" fill="#dff4ba" opacity="0.054" transform="rotate(-17.5 549 701.5)" />
    <ellipse cx="1056.5" cy="559.9" rx="83.5" ry="43.6" fill="#dff4ba" opacity="0.067" transform="rotate(-21.7 1056.5 559.9)" />
    <ellipse cx="1170" cy="1187.3" rx="144.7" ry="23.1" fill="#dff4ba" opacity="0.054" transform="rotate(-15.5 1170 1187.3)" />
    <ellipse cx="1039.9" cy="1277.6" rx="65.6" ry="37.5" fill="#dff4ba" opacity="0.091" transform="rotate(0.8 1039.9 1277.6)" />
    <circle cx="836.3" cy="1409.9" r="10" fill="#dff4ba" opacity="0.137" />
    <circle cx="1134.5" cy="865.1" r="14.4" fill="#dff4ba" opacity="0.17" />
    <circle cx="899.3" cy="1001.7" r="6.7" fill="#18311d" opacity="0.082" />
    <circle cx="917.7" cy="1368.3" r="9.3" fill="#18311d" opacity="0.108" />
    <circle cx="827.3" cy="521.1" r="13.3" fill="#18311d" opacity="0.107" />
    <circle cx="353.2" cy="532.8" r="12.2" fill="#18311d" opacity="0.113" />
    <circle cx="806" cy="441.4" r="15.3" fill="#18311d" opacity="0.104" />
    <circle cx="333.7" cy="879.9" r="10.3" fill="#18311d" opacity="0.127" />
    <circle cx="909" cy="1026.3" r="10.1" fill="#dff4ba" opacity="0.165" />
    <circle cx="587.4" cy="1098.3" r="12.2" fill="#18311d" opacity="0.095" />
    <circle cx="713.7" cy="1215.9" r="12.3" fill="#18311d" opacity="0.123" />
    <circle cx="932.7" cy="655.3" r="15.4" fill="#18311d" opacity="0.151" />
    <circle cx="942.6" cy="1036.7" r="9" fill="#18311d" opacity="0.089" />
    <circle cx="923.5" cy="578.7" r="12.8" fill="#18311d" opacity="0.114" />
    <circle cx="672" cy="1311.2" r="11" fill="#18311d" opacity="0.166" />
    <circle cx="462.7" cy="1268.2" r="9.6" fill="#dff4ba" opacity="0.143" />
    <ellipse cx="481.3" cy="954.7" rx="115" ry="40.2" fill="#57a3ad" opacity="0.86" />
    <ellipse cx="462.9" cy="949.9" rx="52.9" ry="13.7" fill="#dff4ba" opacity="0.24" />
    <ellipse cx="846.1" cy="1147.9" rx="113.1" ry="49.5" fill="#57a3ad" opacity="0.86" />
    <ellipse cx="828" cy="1142" rx="52" ry="16.8" fill="#dff4ba" opacity="0.24" />
    <ellipse cx="905.2" cy="873" rx="121.9" ry="36.3" fill="#57a3ad" opacity="0.86" />
    <ellipse cx="885.7" cy="868.6" rx="56.1" ry="12.3" fill="#dff4ba" opacity="0.24" />
    <path d="M 560.3 937.6 L 556.3 894.8" fill="none" stroke="#dff4ba" stroke-opacity="0.48" stroke-width="6" stroke-linecap="round" />
    <path d="M 568.3 937.6 L 564.3 894.8" fill="none" stroke="#dff4ba" stroke-opacity="0.48" stroke-width="6" stroke-linecap="round" />
    <path d="M 576.3 937.6 L 572.3 894.8" fill="none" stroke="#dff4ba" stroke-opacity="0.48" stroke-width="6" stroke-linecap="round" />
    <path d="M 492.2 1312.7 L 488.2 1276.7" fill="none" stroke="#dff4ba" stroke-opacity="0.48" stroke-width="6" stroke-linecap="round" />
    <path d="M 500.2 1312.7 L 496.2 1276.7" fill="none" stroke="#dff4ba" stroke-opacity="0.48" stroke-width="6" stroke-linecap="round" />
    <path d="M 508.2 1312.7 L 504.2 1276.7" fill="none" stroke="#dff4ba" stroke-opacity="0.48" stroke-width="6" stroke-linecap="round" />
    <path d="M 521.6 873.3 L 517.6 832.6" fill="none" stroke="#dff4ba" stroke-opacity="0.48" stroke-width="6" stroke-linecap="round" />
    <path d="M 529.6 873.3 L 525.6 832.6" fill="none" stroke="#dff4ba" stroke-opacity="0.48" stroke-width="6" stroke-linecap="round" />
    <path d="M 537.6 873.3 L 533.6 832.6" fill="none" stroke="#dff4ba" stroke-opacity="0.48" stroke-width="6" stroke-linecap="round" />
    <path d="M 852.8 1236.2 L 848.8 1204.8" fill="none" stroke="#dff4ba" stroke-opacity="0.48" stroke-width="6" stroke-linecap="round" />
    <path d="M 860.8 1236.2 L 856.8 1204.8" fill="none" stroke="#dff4ba" stroke-opacity="0.48" stroke-width="6" stroke-linecap="round" />
    <path d="M 868.8 1236.2 L 864.8 1204.8" fill="none" stroke="#dff4ba" stroke-opacity="0.48" stroke-width="6" stroke-linecap="round" />
    <path d="M 136.9 1205.2 L 132.9 1158.9" fill="none" stroke="#dff4ba" stroke-opacity="0.48" stroke-width="6" stroke-linecap="round" />
    <path d="M 144.9 1205.2 L 140.9 1158.9" fill="none" stroke="#dff4ba" stroke-opacity="0.48" stroke-width="6" stroke-linecap="round" />
    <path d="M 152.9 1205.2 L 148.9 1158.9" fill="none" stroke="#dff4ba" stroke-opacity="0.48" stroke-width="6" stroke-linecap="round" />
    <path d="M 940.4 1223.9 L 936.4 1162.3" fill="none" stroke="#dff4ba" stroke-opacity="0.48" stroke-width="6" stroke-linecap="round" />
    <path d="M 948.4 1223.9 L 944.4 1162.3" fill="none" stroke="#dff4ba" stroke-opacity="0.48" stroke-width="6" stroke-linecap="round" />
    <path d="M 956.4 1223.9 L 952.4 1162.3" fill="none" stroke="#dff4ba" stroke-opacity="0.48" stroke-width="6" stroke-linecap="round" />
    <path d="M 416.7 708.2 L 412.7 646.5" fill="none" stroke="#dff4ba" stroke-opacity="0.48" stroke-width="6" stroke-linecap="round" />
    <path d="M 424.7 708.2 L 420.7 646.5" fill="none" stroke="#dff4ba" stroke-opacity="0.48" stroke-width="6" stroke-linecap="round" />
    <path d="M 432.7 708.2 L 428.7 646.5" fill="none" stroke="#dff4ba" stroke-opacity="0.48" stroke-width="6" stroke-linecap="round" />
    <path d="M 657.8 1117.3 L 653.8 1081.1" fill="none" stroke="#dff4ba" stroke-opacity="0.48" stroke-width="6" stroke-linecap="round" />
    <path d="M 665.8 1117.3 L 661.8 1081.1" fill="none" stroke="#dff4ba" stroke-opacity="0.48" stroke-width="6" stroke-linecap="round" />
    <path d="M 673.8 1117.3 L 669.8 1081.1" fill="none" stroke="#dff4ba" stroke-opacity="0.48" stroke-width="6" stroke-linecap="round" />
    <path d="M 350.9 1088.7 L 346.9 1029.2" fill="none" stroke="#dff4ba" stroke-opacity="0.48" stroke-width="6" stroke-linecap="round" />
    <path d="M 358.9 1088.7 L 354.9 1029.2" fill="none" stroke="#dff4ba" stroke-opacity="0.48" stroke-width="6" stroke-linecap="round" />
    <path d="M 366.9 1088.7 L 362.9 1029.2" fill="none" stroke="#dff4ba" stroke-opacity="0.48" stroke-width="6" stroke-linecap="round" />
    <path d="M 533.4 1120.5 L 529.4 1089.2" fill="none" stroke="#dff4ba" stroke-opacity="0.48" stroke-width="6" stroke-linecap="round" />
    <path d="M 541.4 1120.5 L 537.4 1089.2" fill="none" stroke="#dff4ba" stroke-opacity="0.48" stroke-width="6" stroke-linecap="round" />
    <path d="M 549.4 1120.5 L 545.4 1089.2" fill="none" stroke="#dff4ba" stroke-opacity="0.48" stroke-width="6" stroke-linecap="round" />
    <path d="M 123.3 1091.3 L 119.3 1031.8" fill="none" stroke="#dff4ba" stroke-opacity="0.48" stroke-width="6" stroke-linecap="round" />
    <path d="M 131.3 1091.3 L 127.3 1031.8" fill="none" stroke="#dff4ba" stroke-opacity="0.48" stroke-width="6" stroke-linecap="round" />
    <path d="M 139.3 1091.3 L 135.3 1031.8" fill="none" stroke="#dff4ba" stroke-opacity="0.48" stroke-width="6" stroke-linecap="round" />
    <path d="M 532.7 678.1 L 528.7 641.1" fill="none" stroke="#dff4ba" stroke-opacity="0.48" stroke-width="6" stroke-linecap="round" />
    <path d="M 540.7 678.1 L 536.7 641.1" fill="none" stroke="#dff4ba" stroke-opacity="0.48" stroke-width="6" stroke-linecap="round" />
    <path d="M 548.7 678.1 L 544.7 641.1" fill="none" stroke="#dff4ba" stroke-opacity="0.48" stroke-width="6" stroke-linecap="round" />
    <path d="M 271.5 1180.2 L 267.5 1119.2" fill="none" stroke="#dff4ba" stroke-opacity="0.48" stroke-width="6" stroke-linecap="round" />
    <path d="M 279.5 1180.2 L 275.5 1119.2" fill="none" stroke="#dff4ba" stroke-opacity="0.48" stroke-width="6" stroke-linecap="round" />
    <path d="M 287.5 1180.2 L 283.5 1119.2" fill="none" stroke="#dff4ba" stroke-opacity="0.48" stroke-width="6" stroke-linecap="round" />
    <path d="M 1017.9 877.7 L 1013.9 839.9" fill="none" stroke="#dff4ba" stroke-opacity="0.48" stroke-width="6" stroke-linecap="round" />
    <path d="M 1025.9 877.7 L 1021.9 839.9" fill="none" stroke="#dff4ba" stroke-opacity="0.48" stroke-width="6" stroke-linecap="round" />
    <path d="M 1033.9 877.7 L 1029.9 839.9" fill="none" stroke="#dff4ba" stroke-opacity="0.48" stroke-width="6" stroke-linecap="round" />
    <path d="M 430.7 1168 L 426.7 1121.2" fill="none" stroke="#dff4ba" stroke-opacity="0.48" stroke-width="6" stroke-linecap="round" />
    <path d="M 438.7 1168 L 434.7 1121.2" fill="none" stroke="#dff4ba" stroke-opacity="0.48" stroke-width="6" stroke-linecap="round" />
    <path d="M 446.7 1168 L 442.7 1121.2" fill="none" stroke="#dff4ba" stroke-opacity="0.48" stroke-width="6" stroke-linecap="round" />
    <path d="M 812.8 891.1 L 808.8 855.2" fill="none" stroke="#dff4ba" stroke-opacity="0.48" stroke-width="6" stroke-linecap="round" />
    <path d="M 820.8 891.1 L 816.8 855.2" fill="none" stroke="#dff4ba" stroke-opacity="0.48" stroke-width="6" stroke-linecap="round" />
    <path d="M 828.8 891.1 L 824.8 855.2" fill="none" stroke="#dff4ba" stroke-opacity="0.48" stroke-width="6" stroke-linecap="round" />
    <path d="M 195.9 668.8 Q 640 585.2 1065.5 668.8" fill="none" stroke="#c9ffd8" stroke-opacity="0.1" stroke-width="22" stroke-linecap="round" />
    <path d="M 208.4 580.5 Q 640 529.5 1066.2 580.5" fill="none" stroke="#c9ffd8" stroke-opacity="0.066" stroke-width="22" stroke-linecap="round" />
    <path d="M 176.6 1013.9 Q 640 963.6 1210 1013.9" fill="none" stroke="#c9ffd8" stroke-opacity="0.094" stroke-width="22" stroke-linecap="round" />
    <path d="M 218.1 860.3 Q 640 786 1178.3 860.3" fill="none" stroke="#c9ffd8" stroke-opacity="0.063" stroke-width="22" stroke-linecap="round" />
  </g>
  <g filter="url(#swamp-a-overhang-shadow)">
    <path d="M 285 809.2 C 263 721.4 301 628.4 279 550.9" fill="none" stroke="#18311d" stroke-width="18" stroke-linecap="round" opacity="0.8" />
    <circle cx="267" cy="550.9" r="65.1" fill="#2a4b2c" />
    <circle cx="303" cy="560.9" r="50.8" fill="#567b41" opacity="0.96" />
    <circle cx="329" cy="558.9" r="33.9" fill="#dff4ba" opacity="0.22" />
    <path d="M 569.2 735.6 C 547.2 664.5 585.2 589.2 563.2 526.4" fill="none" stroke="#18311d" stroke-width="18" stroke-linecap="round" opacity="0.8" />
    <circle cx="551.2" cy="526.4" r="61.1" fill="#2a4b2c" />
    <circle cx="587.2" cy="536.4" r="47.7" fill="#567b41" opacity="0.96" />
    <circle cx="613.2" cy="534.4" r="31.8" fill="#dff4ba" opacity="0.22" />
    <path d="M 878.4 797.7 C 856.4 721.5 894.4 640.8 872.4 573.5" fill="none" stroke="#18311d" stroke-width="18" stroke-linecap="round" opacity="0.8" />
    <circle cx="860.4" cy="573.5" r="53.3" fill="#2a4b2c" />
    <circle cx="896.4" cy="583.5" r="41.6" fill="#567b41" opacity="0.96" />
    <circle cx="922.4" cy="581.5" r="27.7" fill="#dff4ba" opacity="0.22" />
    <ellipse cx="440" cy="560" rx="220" ry="48" fill="#c9ffd8" opacity="0.12" />
    <ellipse cx="382.8" cy="570" rx="105.6" ry="39.4" fill="#dff4ba" opacity="0.084" />
    <ellipse cx="501.6" cy="552" rx="92.4" ry="37.4" fill="#c9ffd8" opacity="0.096" />
    <ellipse cx="820" cy="620" rx="260" ry="56" fill="#c9ffd8" opacity="0.1" />
    <ellipse cx="752.4" cy="630" rx="124.8" ry="45.9" fill="#dff4ba" opacity="0.07" />
    <ellipse cx="892.8" cy="612" rx="109.2" ry="43.7" fill="#c9ffd8" opacity="0.08" />
  </g>
  <polygon points="640,240 1194.3,560 1194.3,1200 640,1520 85.7,1200 85.7,560" fill="none" stroke="#18311d" stroke-opacity="0.16" stroke-width="10" />
  <path d="M96 1236 Q640 1560 1184 1236" fill="none" stroke="#c9ffd8" stroke-opacity="0.16" stroke-width="18" />
  <path d="M160 1216 Q640 1468 1120 1216" fill="none" stroke="#122117" stroke-opacity="0.14" stroke-width="10" />
</svg>
