<svg xmlns="http://www.w3.org/2000/svg" viewBox="0 0 1280 1760" width="1280" height="1760">
<defs>
  <clipPath id="tundra-c-clip-top">
    <polygon points="640,240 1194.3,560 1194.3,1200 640,1520 85.7,1200 85.7,560" />
  </clipPath>
  <linearGradient id="tundra-c-top-gradient" x1="0%" y1="0%" x2="100%" y2="100%">
    <stop offset="0%" stop-color="#d8eef9" />
    <stop offset="58%" stop-color="#95b6c8" />
    <stop offset="100%" stop-color="#617e93" />
  </linearGradient>
  <linearGradient id="tundra-c-left-face" x1="0%" y1="0%" x2="100%" y2="100%">
    <stop offset="0%" stop-color="#7c94a6" />
    <stop offset="100%" stop-color="#47586b" />
  </linearGradient>
  <linearGradient id="tundra-c-right-face" x1="100%" y1="0%" x2="0%" y2="100%">
    <stop offset="0%" stop-color="#7c94a6" />
    <stop offset="100%" stop-color="#47586b" />
  </linearGradient>
  <linearGradient id="tundra-c-front-face" x1="50%" y1="0%" x2="50%" y2="100%">
    <stop offset="0%" stop-color="#7c94a6" />
    <stop offset="100%" stop-color="#47586b" />
  </linearGradient>
  <filter id="tundra-c-platform-shadow" x="-20%" y="-20%" width="140%" height="190%">
    <feDropShadow dx="0" dy="22" stdDeviation="22" flood-color="#1b2834" flood-opacity="0.42" />
  </filter>
  <filter id="tundra-c-overhang-shadow" x="-30%" y="-30%" width="160%" height="220%">
    <feDropShadow dx="0" dy="30" stdDeviation="24" flood-color="#1b2834" flood-opacity="0.5" />
  </filter>

</defs>
  <ellipse cx="640" cy="1676" rx="396" ry="70" fill="#1b2834" opacity="0.18" />
  <g filter="url(#tundra-c-platform-shadow)">
    <polygon points="85.7,1200 640,1520 640,1680 0,1360" fill="url(#tundra-c-left-face)" opacity="0.98" />
    <polygon points="640,1520 1194.3,1200 1280,1360 640,1680" fill="url(#tundra-c-right-face)" opacity="0.98" />
    <polygon points="224.3,1280 640,1520 1055.7,1280 1055.7,1440 640,1680 224.3,1440" fill="url(#tundra-c-front-face)" opacity="0.94" />
  </g>
  <g clip-path="url(#tundra-c-clip-top)">
    <polygon points="640,240 1194.3,560 1194.3,1200 640,1520 85.7,1200 85.7,560" fill="url(#tundra-c-top-gradient)" />
    <ellipse cx="793.7" cy="1010.4" rx="117.7" ry="24.5" fill="#ffffff" opacity="0.11" transform="rotate(-20.5 793.7 1010.4)" />
    <ellipse cx="672.1" cy="1368.3" rx="54.8" ry="30.8" fill="#ffffff" opacity="0.072" transform="rotate(-5 672.1 1368.3)" />
    <ellipse cx="1003.4" cy="980.8" rx="124.2" ry="37.9" fill="#365065" opacity="0.095" transform="rotate(-33.4 1003.4 980.8)" />
    <ellipse cx="1031" cy="1308.6" rx="124.3" ry="37.6" fill="#ffffff" opacity="0.097" transform="rotate(23.8 1031 1308.6)" />
    <ellipse cx="238.5" cy="813.5" rx="106.6" ry="33.8" fill="#ffffff" opacity="0.043" transform="rotate(-15.6 238.5 813.5)" />
    <ellipse cx="809.8" cy="1342" rx="54.9" ry="17.9" fill="#ffffff" opacity="0.043" transform="rotate(33 809.8 1342)" />
    <ellipse cx="870.9" cy="453.5" rx="145.5" ry="43" fill="#365065" opacity="0.082" transform="rotate(8.3 870.9 453.5)" />
    <ellipse cx="613.5" cy="1262.1" rx="59.9" ry="29.3" fill="#ffffff" opacity="0.101" transform="rotate(23.7 613.5 1262.1)" />
    <ellipse cx="1060" cy="1012.2" rx="87.6" ry="39.2" fill="#ffffff" opacity="0.092" transform="rotate(-21.1 1060 1012.2)" />
    <ellipse cx="692.6" cy="861.4" rx="112.5" ry="43.7" fill="#ffffff" opacity="0.068" transform="rotate(-15.9 692.6 861.4)" />
    <ellipse cx="182.3" cy="1082.1" rx="116.2" ry="43.8" fill="#ffffff" opacity="0.089" transform="rotate(-24.7 182.3 1082.1)" />
    <ellipse cx="228.5" cy="1059.1" rx="91" ry="29.3" fill="#ffffff" opacity="0.114" transform="rotate(-18 228.5 1059.1)" />
    <circle cx="425.5" cy="737.4" r="11" fill="#365065" opacity="0.155" />
    <circle cx="263.5" cy="679.8" r="7" fill="#365065" opacity="0.159" />
    <circle cx="974.5" cy="1322.9" r="7.2" fill="#365065" opacity="0.161" />
    <circle cx="949.4" cy="1012.8" r="13.4" fill="#365065" opacity="0.105" />
    <circle cx="466.8" cy="819.9" r="15" fill="#ffffff" opacity="0.12" />
    <circle cx="763.8" cy="1315.9" r="11" fill="#ffffff" opacity="0.145" />
    <circle cx="141.1" cy="1129.9" r="11.8" fill="#365065" opacity="0.13" />
    <circle cx="513.8" cy="1366.7" r="11.4" fill="#ffffff" opacity="0.179" />
    <circle cx="570.6" cy="466.4" r="9.5" fill="#365065" opacity="0.17" />
    <circle cx="791.3" cy="1218.1" r="12.5" fill="#365065" opacity="0.132" />
    <circle cx="461.8" cy="540.4" r="11" fill="#365065" opacity="0.158" />
    <circle cx="908.1" cy="456.1" r="13.4" fill="#ffffff" opacity="0.135" />
    <circle cx="806.4" cy="908.8" r="14.8" fill="#365065" opacity="0.095" />
    <circle cx="1040.3" cy="983.4" r="12" fill="#ffffff" opacity="0.137" />
    <circle cx="1085.1" cy="1323.7" r="9" fill="#ffffff" opacity="0.129" />
    <circle cx="623.4" cy="651.5" r="8.3" fill="#365065" opacity="0.155" />
    <ellipse cx="280.4" cy="881.5" rx="131" ry="28.4" fill="#ffffff" opacity="0.88" />
    <ellipse cx="256.8" cy="878.7" rx="60.3" ry="9.7" fill="#eefaff" opacity="0.34" />
    <ellipse cx="672.4" cy="870.4" rx="164.5" ry="43.7" fill="#ffffff" opacity="0.88" />
    <ellipse cx="642.8" cy="866" rx="75.7" ry="14.9" fill="#eefaff" opacity="0.34" />
    <ellipse cx="332.3" cy="1075.7" rx="178.3" ry="34.9" fill="#ffffff" opacity="0.88" />
    <ellipse cx="300.2" cy="1072.2" rx="82" ry="11.9" fill="#eefaff" opacity="0.34" />
    <ellipse cx="1081" cy="1135.9" rx="106.8" ry="45.3" fill="#ffffff" opacity="0.88" />
    <ellipse cx="1061.8" cy="1131.4" rx="49.1" ry="15.4" fill="#eefaff" opacity="0.34" />
    <ellipse cx="761.8" cy="1115.9" rx="142.9" ry="31.7" fill="#ffffff" opacity="0.88" />
    <ellipse cx="736.1" cy="1112.7" rx="65.7" ry="10.8" fill="#eefaff" opacity="0.34" />
    <ellipse cx="420" cy="1176.5" rx="87.1" ry="43" fill="#89d5f4" opacity="0.86" />
    <ellipse cx="406.1" cy="1171.3" rx="40.1" ry="14.6" fill="#ffffff" opacity="0.24" />
    <ellipse cx="557.7" cy="1078.9" rx="98.5" ry="40.6" fill="#89d5f4" opacity="0.86" />
    <ellipse cx="541.9" cy="1074" rx="45.3" ry="13.8" fill="#ffffff" opacity="0.24" />
    <path d="M 133.1 862.8 Q 640 815.5 1145.5 862.8" fill="none" stroke="#eefaff" stroke-opacity="0.094" stroke-width="22" stroke-linecap="round" />
    <path d="M 120.7 1070.9 Q 640 1023.5 1069.2 1070.9" fill="none" stroke="#eefaff" stroke-opacity="0.054" stroke-width="22" stroke-linecap="round" />
    <path d="M 181.4 1044.3 Q 640 1009.6 1214.7 1044.3" fill="none" stroke="#eefaff" stroke-opacity="0.056" stroke-width="22" stroke-linecap="round" />
    <path d="M 65.7 539.5 Q 640 487 1075.3 539.5" fill="none" stroke="#eefaff" stroke-opacity="0.082" stroke-width="22" stroke-linecap="round" />
  </g>
  <g filter="url(#tundra-c-overhang-shadow)">
    <path d="M 250 770.6 L 250 703" fill="none" stroke="#365065" stroke-width="18" stroke-linecap="round" opacity="0.74" />
    <polygon points="226.4,641.6 250,463.5 273.7,641.6" fill="#617e93" />
    <polygon points="213.5,696.9 250,561.8 286.6,696.9" fill="#95b6c8" />
    <polygon points="200.6,770.6 250,641.6 299.5,770.6" fill="#d8eef9" opacity="0.92" />
    <polygon points="239.3,506.5 250,463.5 261.8,509.6" fill="#ffffff" opacity="0.9" />
    <polygon points="308.7,798 330.1,606.8 352.6,752.1 344.7,798" fill="#95b6c8" opacity="0.96" />
    <polygon points="330.1,606.8 344.7,725.4 333.5,767.4" fill="#ffffff" opacity="0.84" />
    <path d="M 552.9 802.1 L 552.9 744.2" fill="none" stroke="#365065" stroke-width="18" stroke-linecap="round" opacity="0.74" />
    <polygon points="530.6,691.6 552.9,539 575.2,691.6" fill="#617e93" />
    <polygon points="518.5,739 552.9,623.2 587.3,739" fill="#95b6c8" />
    <polygon points="506.3,802.1 552.9,691.6 599.5,802.1" fill="#d8eef9" opacity="0.92" />
    <polygon points="542.8,575.8 552.9,539 564,578.5" fill="#ffffff" opacity="0.9" />
    <polygon points="602.7,858.2 624.6,683.2 647.6,816.2 639.6,858.2" fill="#95b6c8" opacity="0.96" />
    <polygon points="624.6,683.2 639.6,791.7 628,830.2" fill="#ffffff" opacity="0.84" />
    <path d="M 836.5 737.4 L 836.5 672.1" fill="none" stroke="#365065" stroke-width="18" stroke-linecap="round" opacity="0.74" />
    <polygon points="814.5,612.8 836.5,440.7 858.5,612.8" fill="#617e93" />
    <polygon points="802.5,666.2 836.5,535.6 870.5,666.2" fill="#95b6c8" />
    <polygon points="790.5,737.4 836.5,612.8 882.5,737.4" fill="#d8eef9" opacity="0.92" />
    <polygon points="826.5,482.2 836.5,440.7 847.5,485.2" fill="#ffffff" opacity="0.9" />
    <polygon points="892.2,770.4 912.4,605.7 933.7,730.9 926.3,770.4" fill="#95b6c8" opacity="0.96" />
    <polygon points="912.4,605.7 926.3,707.8 915.6,744.1" fill="#ffffff" opacity="0.84" />
  </g>
  <polygon points="640,240 1194.3,560 1194.3,1200 640,1520 85.7,1200 85.7,560" fill="none" stroke="#365065" stroke-opacity="0.16" stroke-width="10" />
  <path d="M96 1236 Q640 1560 1184 1236" fill="none" stroke="#eefaff" stroke-opacity="0.16" stroke-width="18" />
  <path d="M160 1216 Q640 1468 1120 1216" fill="none" stroke="#1b2834" stroke-opacity="0.14" stroke-width="10" />
</svg>
