<svg xmlns="http://www.w3.org/2000/svg" viewBox="0 0 1280 1760" width="1280" height="1760">
<defs>
  <clipPath id="tundra-d-clip-top">
    <polygon points="640,240 1194.3,560 1194.3,1200 640,1520 85.7,1200 85.7,560" />
  </clipPath>
  <linearGradient id="tundra-d-top-gradient" x1="0%" y1="0%" x2="100%" y2="100%">
    <stop offset="0%" stop-color="#d8eef9" />
    <stop offset="58%" stop-color="#95b6c8" />
    <stop offset="100%" stop-color="#617e93" />
  </linearGradient>
  <linearGradient id="tundra-d-left-face" x1="0%" y1="0%" x2="100%" y2="100%">
    <stop offset="0%" stop-color="#7c94a6" />
    <stop offset="100%" stop-color="#47586b" />
  </linearGradient>
  <linearGradient id="tundra-d-right-face" x1="100%" y1="0%" x2="0%" y2="100%">
    <stop offset="0%" stop-color="#7c94a6" />
    <stop offset="100%" stop-color="#47586b" />
  </linearGradient>
  <linearGradient id="tundra-d-front-face" x1="50%" y1="0%" x2="50%" y2="100%">
    <stop offset="0%" stop-color="#7c94a6" />
    <stop offset="100%" stop-color="#47586b" />
  </linearGradient>
  <filter id="tundra-d-platform-shadow" x="-20%" y="-20%" width="140%" height="190%">
    <feDropShadow dx="0" dy="22" stdDeviation="22" flood-color="#1b2834" flood-opacity="0.42" />
  </filter>
  <filter id="tundra-d-overhang-shadow" x="-30%" y="-30%" width="160%" height="220%">
    <feDropShadow dx="0" dy="30" stdDeviation="24" flood-color="#1b2834" flood-opacity="0.5" />
  </filter>

</defs>
  <ellipse cx="640" cy="1676" rx="396" ry="70" fill="#1b2834" opacity="0.18" />
  <g filter="url(#tundra-d-platform-shadow)">
    <polygon points="85.7,1200 640,1520 640,1680 0,1360" fill="url(#tundra-d-left-face)" opacity="0.98" />
    <polygon points="640,1520 1194.3,1200 1280,1360 640,1680" fill="url(#tundra-d-right-face)" opacity="0.98" />
    <polygon points="224.3,1280 640,1520 1055.7,1280 1055.7,1440 640,1680 224.3,1440" fill="url(#tundra-d-front-face)" opacity="0.94" />
  </g>
  <g clip-path="url(#tundra-d-clip-top)">
    <polygon points="640,240 1194.3,560 1194.3,1200 640,1520 85.7,1200 85.7,560" fill="url(#tundra-d-top-gradient)" />
    <ellipse cx="629.6" cy="1049.3" rx="111.3" ry="17" fill="#ffffff" opacity="0.112" transform="rotate(32.2 629.6 1049.3)" />
    <ellipse cx="678" cy="456.2" rx="142.4" ry="25.3" fill="#365065" opacity="0.108" transform="rotate(13.8 678 456.2)" />
    <ellipse cx="523.2" cy="846.9" rx="125.1" ry="41.5" fill="#ffffff" opacity="0.072" transform="rotate(14.8 523.2 846.9)" />
    <ellipse cx="413.9" cy="915.5" rx="141" ry="38.2" fill="#365065" opacity="0.08" transform="rotate(-1.2 413.9 915.5)" />
    <ellipse cx="505.1" cy="503.3" rx="71.5" ry="42.2" fill="#ffffff" opacity="0.094" transform="rotate(17.1 505.1 503.3)" />
    <ellipse cx="838.4" cy="1042.3" rx="91.7" ry="41.3" fill="#365065" opacity="0.112" transform="rotate(-10.4 838.4 1042.3)" />
    <ellipse cx="444.9" cy="793" rx="91.2" ry="23.3" fill="#ffffff" opacity="0.079" transform="rotate(-17 444.9 793)" />
    <ellipse cx="1030.1" cy="1302.3" rx="136.4" ry="26" fill="#ffffff" opacity="0.1" transform="rotate(-9 1030.1 1302.3)" />
    <ellipse cx="729.4" cy="461.3" rx="100.5" ry="37.9" fill="#365065" opacity="0.118" transform="rotate(-11.1 729.4 461.3)" />
    <ellipse cx="645.8" cy="1228" rx="57.6" ry="19.7" fill="#ffffff" opacity="0.059" transform="rotate(1.9 645.8 1228)" />
    <ellipse cx="1179.2" cy="790.9" rx="64.5" ry="36.4" fill="#365065" opacity="0.1" transform="rotate(24.4 1179.2 790.9)" />
    <ellipse cx="101.9" cy="1223.4" rx="56" ry="39.9" fill="#ffffff" opacity="0.046" transform="rotate(-28.4 101.9 1223.4)" />
    <circle cx="201.4" cy="1390.2" r="13.5" fill="#ffffff" opacity="0.108" />
    <circle cx="905.2" cy="491.5" r="15.8" fill="#ffffff" opacity="0.12" />
    <circle cx="1120.1" cy="1144.6" r="12.5" fill="#ffffff" opacity="0.153" />
    <circle cx="764.9" cy="1142.1" r="10.6" fill="#ffffff" opacity="0.104" />
    <circle cx="900.7" cy="1205.6" r="7.4" fill="#365065" opacity="0.134" />
    <circle cx="323.6" cy="441.5" r="14.8" fill="#365065" opacity="0.171" />
    <circle cx="269.8" cy="670.6" r="14.9" fill="#365065" opacity="0.151" />
    <circle cx="1105.8" cy="873.8" r="11.2" fill="#ffffff" opacity="0.167" />
    <circle cx="1076" cy="1064.4" r="7.2" fill="#365065" opacity="0.161" />
    <circle cx="770.2" cy="781.7" r="11.6" fill="#ffffff" opacity="0.123" />
    <circle cx="1080.9" cy="1134.7" r="10.8" fill="#365065" opacity="0.151" />
    <circle cx="992" cy="1316.1" r="10.1" fill="#ffffff" opacity="0.087" />
    <circle cx="801.2" cy="1189.3" r="11" fill="#ffffff" opacity="0.1" />
    <circle cx="917" cy="604" r="12.3" fill="#ffffff" opacity="0.114" />
    <circle cx="321.2" cy="549.7" r="14.2" fill="#365065" opacity="0.099" />
    <circle cx="701.3" cy="1110.5" r="12" fill="#365065" opacity="0.159" />
    <ellipse cx="742.9" cy="1000.3" rx="127.2" ry="36.2" fill="#ffffff" opacity="0.88" />
    <ellipse cx="720" cy="996.7" rx="58.5" ry="12.3" fill="#eefaff" opacity="0.34" />
    <ellipse cx="537.5" cy="1149" rx="94.6" ry="27.2" fill="#ffffff" opacity="0.88" />
    <ellipse cx="520.5" cy="1146.3" rx="43.5" ry="9.2" fill="#eefaff" opacity="0.34" />
    <ellipse cx="532.6" cy="962" rx="154.2" ry="53.5" fill="#ffffff" opacity="0.88" />
    <ellipse cx="504.8" cy="956.7" rx="70.9" ry="18.2" fill="#eefaff" opacity="0.34" />
    <ellipse cx="713.1" cy="1259.2" rx="135.1" ry="32.8" fill="#ffffff" opacity="0.88" />
    <ellipse cx="688.8" cy="1255.9" rx="62.1" ry="11.2" fill="#eefaff" opacity="0.34" />
    <ellipse cx="231.4" cy="1229.3" rx="126.2" ry="29" fill="#ffffff" opacity="0.88" />
    <ellipse cx="208.7" cy="1226.4" rx="58.1" ry="9.9" fill="#eefaff" opacity="0.34" />
    <ellipse cx="438.2" cy="1039.9" rx="106.8" ry="36.4" fill="#89d5f4" opacity="0.86" />
    <ellipse cx="421.1" cy="1035.5" rx="49.1" ry="12.4" fill="#ffffff" opacity="0.24" />
    <ellipse cx="1016.9" cy="1106.7" rx="100.3" ry="40.2" fill="#89d5f4" opacity="0.86" />
    <ellipse cx="1000.9" cy="1101.9" rx="46.1" ry="13.7" fill="#ffffff" opacity="0.24" />
    <path d="M 122.2 866.9 Q 640 818.9 1118.7 866.9" fill="none" stroke="#eefaff" stroke-opacity="0.055" stroke-width="22" stroke-linecap="round" />
    <path d="M 71 795 Q 640 755.2 1196.2 795" fill="none" stroke="#eefaff" stroke-opacity="0.087" stroke-width="22" stroke-linecap="round" />
    <path d="M 163.8 1164.8 Q 640 1096.3 1044.6 1164.8" fill="none" stroke="#eefaff" stroke-opacity="0.05" stroke-width="22" stroke-linecap="round" />
    <path d="M 118 674.2 Q 640 602.4 1205.4 674.2" fill="none" stroke="#eefaff" stroke-opacity="0.076" stroke-width="22" stroke-linecap="round" />
  </g>
  <g filter="url(#tundra-d-overhang-shadow)">
    <path d="M 274.8 746.2 L 274.8 687.1" fill="none" stroke="#365065" stroke-width="18" stroke-linecap="round" opacity="0.74" />
    <polygon points="246.7,633.3 274.8,477.5 302.9,633.3" fill="#617e93" />
    <polygon points="231.4,681.7 274.8,563.5 318.2,681.7" fill="#95b6c8" />
    <polygon points="216.1,746.2 274.8,633.3 333.5,746.2" fill="#d8eef9" opacity="0.92" />
    <polygon points="262,515.1 274.8,477.5 288.8,517.8" fill="#ffffff" opacity="0.9" />
    <polygon points="319.6,785.5 336.2,623.6 353.7,746.6 347.6,785.5" fill="#95b6c8" opacity="0.96" />
    <polygon points="336.2,623.6 347.6,724 338.8,759.6" fill="#ffffff" opacity="0.84" />
    <path d="M 513.2 687.2 L 513.2 629.7" fill="none" stroke="#365065" stroke-width="18" stroke-linecap="round" opacity="0.74" />
    <polygon points="481.8,577.5 513.2,425.9 544.6,577.5" fill="#617e93" />
    <polygon points="464.6,624.5 513.2,509.5 561.8,624.5" fill="#95b6c8" />
    <polygon points="447.5,687.2 513.2,577.5 578.9,687.2" fill="#d8eef9" opacity="0.92" />
    <polygon points="498.9,462.5 513.2,425.9 528.9,465.1" fill="#ffffff" opacity="0.9" />
    <polygon points="568.9,728 587.3,515.1 606.7,676.9 599.9,728" fill="#95b6c8" opacity="0.96" />
    <polygon points="587.3,515.1 599.9,647.1 590.2,694" fill="#ffffff" opacity="0.84" />
    <path d="M 803.3 739.1 L 803.3 678.5" fill="none" stroke="#365065" stroke-width="18" stroke-linecap="round" opacity="0.74" />
    <polygon points="772.6,623.4 803.3,463.7 834,623.4" fill="#617e93" />
    <polygon points="755.8,673 803.3,551.8 850.8,673" fill="#95b6c8" />
    <polygon points="739.1,739.1 803.3,623.4 867.5,739.1" fill="#d8eef9" opacity="0.92" />
    <polygon points="789.3,502.3 803.3,463.7 818.7,505" fill="#ffffff" opacity="0.9" />
    <polygon points="846.5,792.2 870.3,582.7 895.3,741.9 886.6,792.2" fill="#95b6c8" opacity="0.96" />
    <polygon points="870.3,582.7 886.6,712.6 874,758.7" fill="#ffffff" opacity="0.84" />
  </g>
  <polygon points="640,240 1194.3,560 1194.3,1200 640,1520 85.7,1200 85.7,560" fill="none" stroke="#365065" stroke-opacity="0.16" stroke-width="10" />
  <path d="M96 1236 Q640 1560 1184 1236" fill="none" stroke="#eefaff" stroke-opacity="0.16" stroke-width="18" />
  <path d="M160 1216 Q640 1468 1120 1216" fill="none" stroke="#1b2834" stroke-opacity="0.14" stroke-width="10" />
</svg>
